<svg version="1.1" id="Layer_1" xmlns="http://www.w3.org/2000/svg" xmlns:xlink="http://www.w3.org/1999/xlink" x="0px" y="0px"
	 width="100%" viewBox="0 0 860 373" enable-background="new 0 0 860 373" xml:space="preserve">
<path fill="#F6F6F6" opacity="1.000000" stroke="none" 
	d="
M662.000000,374.000000 
	C441.333344,374.000000 221.166672,374.000000 1.000000,374.000000 
	C1.000000,249.666672 1.000000,125.333336 1.000000,1.000000 
	C287.666656,1.000000 574.333313,1.000000 861.000000,1.000000 
	C861.000000,125.333336 861.000000,249.666672 861.000000,374.000000 
	C794.833313,374.000000 728.666687,374.000000 662.000000,374.000000 
M35.971775,71.961403 
	C35.971775,71.961403 35.897980,71.889832 35.343197,72.315033 
	C35.147942,73.208870 34.952682,74.102715 34.392601,75.594345 
	C34.095070,77.178497 33.797539,78.762642 33.099213,80.829041 
	C33.050823,82.222092 33.002434,83.615135 32.766117,85.928436 
	C32.752769,159.794586 32.738247,233.660736 32.736771,307.526886 
	C32.736748,308.683960 32.897171,309.841034 32.750519,311.462982 
	C32.880028,312.294800 33.009537,313.126617 33.089054,314.726379 
	C33.317120,315.453491 33.545189,316.180603 33.600391,317.615753 
	C35.049347,321.115753 36.498302,324.615784 38.034008,328.667267 
	C38.360344,329.109070 38.686680,329.550903 39.051800,330.596832 
	C39.583538,331.172516 40.115276,331.748199 40.998947,332.025757 
	C40.998947,332.025757 40.637924,332.312103 40.799435,332.954895 
	C42.131573,334.380371 43.463711,335.805847 44.898655,337.100525 
	C44.898655,337.100525 44.752502,337.179932 44.918800,337.729919 
	C45.239437,337.917694 45.560078,338.105438 46.033199,338.704712 
	C46.221752,338.960266 46.474819,339.088593 47.050137,339.701233 
	C48.689674,340.815369 50.329212,341.929535 51.989880,342.994110 
	C51.989880,342.994110 51.951138,343.032898 52.135666,343.461975 
	C52.365051,343.725616 52.648926,343.813782 53.342285,344.035767 
	C53.342285,344.035767 53.810631,344.083984 54.214687,344.651215 
	C58.152126,346.020142 62.089565,347.389099 66.712326,349.032318 
	C67.918953,349.151794 69.125580,349.271271 71.122452,349.815887 
	C72.950249,349.895691 74.778053,350.045227 76.605850,350.045349 
	C312.495850,350.057495 548.385864,350.060883 784.275879,350.025299 
	C786.374268,350.024994 788.472595,349.495148 791.035767,349.404999 
	C791.347961,349.297119 791.660217,349.189240 792.351196,349.287079 
	C792.886292,349.143494 793.421326,348.999878 794.593445,348.929413 
	C795.395447,348.650696 796.197388,348.371948 797.710693,348.195007 
	C798.790405,347.739349 799.870178,347.283691 801.659912,346.800446 
	C818.682251,339.134125 827.781677,326.008972 827.816040,307.305542 
	C827.950012,234.365250 827.879944,161.424606 827.853943,88.484093 
	C827.853027,85.994919 827.663635,83.483719 827.304504,81.020325 
	C824.816406,63.950832 810.377075,49.241638 793.791565,46.736176 
	C793.567322,46.577953 793.372925,46.608627 792.346313,46.368374 
	C790.019958,46.252857 787.693542,46.036308 785.367188,46.036175 
	C548.837219,46.022381 312.307220,46.022808 75.777237,46.053474 
	C73.142982,46.053814 70.508781,46.460922 67.506332,46.484173 
	C67.201515,46.512100 66.979164,46.662243 66.060089,46.887856 
	C53.713840,49.522232 44.254829,56.119904 37.717846,67.599464 
	C37.547260,68.065704 37.376671,68.531937 36.917381,69.317162 
	C36.917381,69.317162 36.854778,69.742813 36.324005,70.104172 
	C36.172913,70.716942 36.021820,71.329720 35.971775,71.961403 
z"/>
<path fill="#0A3262" opacity="1.000000" stroke="none" 
	d="
M791.972412,349.081390 
	C791.660217,349.189240 791.347961,349.297119 790.290039,349.228760 
	C764.900513,349.033630 740.256653,349.001526 715.612854,348.997894 
	C577.071777,348.977417 438.530701,348.963806 299.993225,348.580109 
	C299.997467,347.475311 299.998108,346.738281 300.308594,345.998901 
	C301.353607,345.757446 302.088867,345.518341 303.143494,345.221069 
	C303.983063,344.822479 304.503265,344.481964 305.045471,343.664368 
	C305.067474,246.003143 305.067474,148.819031 305.067474,51.294048 
	C302.904053,51.294048 301.594757,51.294018 300.285492,51.294056 
	C226.658310,51.296185 153.031128,51.295200 79.403938,51.311695 
	C76.410103,51.312366 73.386505,51.238182 70.427414,51.606144 
	C53.603085,53.698238 43.264259,63.785931 37.799461,83.001595 
	C37.365685,83.019524 37.192368,83.030968 36.816551,82.780991 
	C35.763428,82.348099 34.912800,82.176636 33.956024,81.578812 
	C33.733253,80.883904 33.616631,80.615349 33.500008,80.346794 
	C33.797539,78.762642 34.095070,77.178497 34.883934,75.110054 
	C35.549507,73.713783 35.723743,72.801811 35.897980,71.889832 
	C35.897980,71.889832 35.971775,71.961403 36.207153,71.783684 
	C36.579948,70.984917 36.717365,70.363861 36.854778,69.742813 
	C36.854778,69.742813 36.917381,69.317162 37.289680,69.023422 
	C37.808537,68.238274 37.955086,67.746864 38.101639,67.255447 
	C44.254829,56.119904 53.713840,49.522232 66.634888,46.934490 
	C67.470505,46.966114 67.692123,46.865124 67.874550,46.678146 
	C70.508781,46.460922 73.142982,46.053814 75.777237,46.053474 
	C312.307220,46.022808 548.837219,46.022381 785.367188,46.036175 
	C787.693542,46.036308 790.019958,46.252857 792.896729,46.667854 
	C793.447083,46.967331 793.717163,47.026588 793.717163,47.026588 
	C793.717163,47.026588 793.992126,46.997955 793.992126,46.997955 
	C810.377075,49.241638 824.816406,63.950832 827.304504,81.020325 
	C827.663635,83.483719 827.853027,85.994919 827.853943,88.484093 
	C827.879944,161.424606 827.950012,234.365250 827.816040,307.305542 
	C827.781677,326.008972 818.682251,339.134125 801.090027,346.586548 
	C799.346558,346.946198 798.172974,347.519714 796.999390,348.093201 
	C796.197388,348.371948 795.395447,348.650696 794.112793,348.688293 
	C793.078918,348.658569 792.525635,348.869995 791.972412,349.081390 
M521.096069,232.580429 
	C521.378906,230.845642 521.885620,229.113510 521.906067,227.375641 
	C521.995850,219.771210 521.944702,212.165100 521.944702,204.219421 
	C530.259338,204.219421 538.054260,203.894531 545.808044,204.320145 
	C552.244751,204.673477 554.891418,207.792648 555.393005,214.260208 
	C555.727478,218.572037 555.628967,222.931641 556.206543,227.204666 
	C556.509583,229.446091 557.490356,233.093140 558.796326,233.397537 
	C561.731262,234.081650 565.060120,233.075836 567.099548,232.871216 
	C566.207397,228.076324 565.368347,224.513763 564.909241,220.902893 
	C563.937256,213.257919 566.154236,204.630264 557.405457,199.575851 
	C565.665710,193.783447 567.280151,186.133514 564.766296,177.598358 
	C562.187988,168.843887 554.795715,166.508682 546.773254,166.036728 
	C539.971558,165.636581 533.131897,165.875107 526.308899,165.848389 
	C521.898376,165.831116 517.487732,165.845139 513.014893,165.845139 
	C513.014893,188.528809 513.014893,210.436951 513.014893,232.753128 
	C515.604675,232.753128 517.912170,232.753128 521.096069,232.580429 
M748.682617,182.832733 
	C736.664856,181.870300 728.295593,187.996475 726.225098,199.839661 
	C725.491638,204.034897 725.520630,208.473587 725.911560,212.735977 
	C727.528992,230.367401 743.555359,240.763870 760.573547,228.686188 
	C759.624146,233.134415 759.465820,236.830338 758.042419,239.948868 
	C754.774170,247.109253 741.046570,248.904053 737.263672,242.407303 
	C734.494202,237.650986 731.334351,238.329391 727.116943,238.894211 
	C727.568604,243.922531 729.600098,247.811981 733.758728,250.139679 
	C741.772888,254.625397 750.190369,254.285217 758.216064,250.482559 
	C765.669922,246.950806 768.056763,239.983673 768.161743,232.225098 
	C768.310181,221.243362 768.219421,210.258392 768.227966,199.274796 
	C768.231873,194.328125 768.228638,189.381439 768.228638,184.229889 
	C765.419495,184.229889 763.175110,184.229889 760.679199,184.229889 
	C760.428589,185.924973 760.206848,187.424805 760.051086,188.478775 
	C756.351257,186.547607 752.908081,184.750427 748.682617,182.832733 
M364.188049,230.849350 
	C364.505341,231.475693 364.708435,232.545395 365.157257,232.660995 
	C370.721863,234.094269 373.031708,232.764114 375.045776,227.155121 
	C380.033203,213.265518 380.033264,213.265533 393.187042,213.267120 
	C406.623169,213.268723 406.623138,213.268723 410.968750,226.042953 
	C413.578186,233.713638 414.504730,234.182037 423.025391,231.877319 
	C415.327698,210.634415 407.644684,189.415207 399.946289,168.201569 
	C398.425079,164.009781 394.804474,166.054871 392.197327,166.038849 
	C390.634125,166.029251 388.177307,167.586349 387.622223,169.020096 
	C379.762421,189.320175 372.159973,209.719879 364.188049,230.849350 
M591.448853,234.100143 
	C596.957336,232.290222 602.465759,230.480286 608.134888,228.617569 
	C610.743896,233.901703 614.063171,235.050629 621.081116,232.279785 
	C621.081116,230.676682 621.081116,229.042725 621.081116,227.027878 
	C616.055603,227.834702 615.688049,224.828781 615.767822,221.052216 
	C615.929443,213.402542 615.845520,205.747070 615.817383,198.094177 
	C615.786255,189.626175 612.323364,184.498047 604.010864,183.491150 
	C598.118408,182.777390 591.720520,183.381470 585.987915,184.976929 
	C579.818787,186.693863 577.218567,192.617096 578.291504,198.765472 
	C580.399963,198.765472 582.534058,198.765472 584.610046,198.765472 
	C588.603699,190.197464 595.277222,187.303543 602.971069,190.674652 
	C606.517578,192.228546 607.840515,194.963791 607.420776,198.706161 
	C607.042053,202.082596 604.741882,202.881607 601.825500,203.175034 
	C597.689941,203.591141 593.569031,204.173431 589.453796,204.766937 
	C579.804382,206.158524 574.617493,211.905594 575.037964,220.665085 
	C575.426819,228.765015 580.877380,233.491760 591.448853,234.100143 
M684.367981,230.823471 
	C684.373901,222.838287 684.211853,214.847733 684.467163,206.870529 
	C684.571594,203.609543 685.087769,200.181625 686.285278,197.175674 
	C688.364136,191.957138 694.419373,189.216370 699.909668,190.342789 
	C704.952026,191.377289 707.165344,194.471786 707.321472,201.158386 
	C707.453491,206.811691 707.363464,212.470230 707.367554,218.126450 
	C707.370972,222.897537 707.368286,227.668640 707.368286,232.494080 
	C710.481140,232.494080 712.896240,232.494080 715.558899,232.494080 
	C715.558899,220.097122 716.019348,207.979355 715.396423,195.917557 
	C714.983582,187.924301 709.670166,183.742798 701.600891,182.737457 
	C694.811523,181.891586 689.367920,184.413452 684.308105,189.740341 
	C684.023987,187.385193 683.838928,185.851257 683.646362,184.255386 
	C681.013916,184.255386 678.763184,184.255386 676.362793,184.255386 
	C676.362793,200.524796 676.362793,216.517227 676.362793,233.285797 
	C679.358948,232.680344 681.803894,232.186295 684.367981,230.823471 
M647.460815,189.192856 
	C647.460815,187.575531 647.460815,185.958206 647.460815,184.253342 
	C644.692444,184.033890 642.442200,183.855499 639.642334,183.633545 
	C639.642334,179.124405 639.642334,174.896561 639.642334,170.555145 
	C636.654724,170.555145 634.251465,170.555145 631.279358,170.555145 
	C631.279358,175.065414 631.279358,179.301575 631.279358,183.684814 
	C628.837341,183.914871 626.943970,184.093231 625.078613,184.268967 
	C625.078613,186.681259 625.078613,188.733017 625.078613,190.857513 
	C627.214050,191.003433 628.988708,191.124710 631.054199,191.265854 
	C631.142700,193.173981 631.278137,194.792999 631.282715,196.412384 
	C631.307007,205.053986 631.239380,213.696228 631.318054,222.337204 
	C631.398132,231.131882 634.561829,233.913849 643.417542,233.144745 
	C644.683960,233.034760 645.936707,232.767410 647.237671,232.566422 
	C647.237671,230.317566 647.237671,228.385376 647.237671,226.453186 
	C646.883850,226.777512 646.530090,227.101837 646.176270,227.426163 
	C644.057922,225.710007 640.214417,224.094482 640.107422,222.260986 
	C639.511597,212.046310 639.821289,201.778809 639.821289,191.708084 
	C642.710022,191.061127 645.014526,190.544998 647.460815,189.192856 
M448.028503,216.636963 
	C448.028503,221.897934 448.028503,227.158920 448.028503,232.518188 
	C450.667603,232.518188 452.586639,232.518188 455.136292,232.518188 
	C455.136292,225.885422 455.136292,219.493820 455.136292,212.509537 
	C462.150665,212.509537 468.550568,212.509537 474.920776,212.509537 
	C474.920776,209.949600 474.920776,208.020157 474.920776,205.459137 
	C468.263763,205.459137 461.883118,205.459137 455.026093,205.459137 
	C455.026093,198.581589 455.026093,192.336945 455.026093,185.955841 
	C452.441711,185.955841 450.375275,185.955841 447.901489,185.955841 
	C447.901489,192.576904 447.901489,198.855301 447.901489,205.685791 
	C441.102753,205.685791 434.704712,205.685791 428.163605,205.685791 
	C428.163605,208.199600 428.163605,210.150467 428.163605,212.688950 
	C433.639282,212.688950 438.930450,212.725571 444.220703,212.671112 
	C446.367279,212.649017 448.381744,212.595001 448.028503,216.636963 
M655.382812,226.318848 
	C655.382812,228.391296 655.382812,230.463760 655.382812,232.489853 
	C658.661255,232.489853 661.080811,232.489853 663.747009,232.489853 
	C663.747009,216.283051 663.747009,200.410797 663.747009,184.265137 
	C660.938904,184.265137 658.396851,184.265137 655.381714,184.265137 
	C655.381714,198.160995 655.381714,211.760574 655.382812,226.318848 
M657.546265,165.814804 
	C652.900635,168.232956 656.461670,171.918381 655.627197,174.992950 
	C658.659241,174.992950 661.179932,174.992950 663.779297,174.992950 
	C663.779297,171.859711 663.779297,169.116226 663.779297,165.808914 
	C661.809082,165.808914 660.041870,165.808914 657.546265,165.814804 
z"/>
<path fill="#053165" opacity="1.000000" stroke="none" 
	d="
M34.062172,82.005173 
	C34.912800,82.176636 35.763428,82.348099 36.817635,83.244896 
	C37.015057,158.792709 37.000095,233.615189 37.053806,308.437622 
	C37.055138,310.297211 37.816063,312.156281 38.301544,314.110413 
	C38.380371,314.205200 38.280998,314.430878 38.173492,314.822449 
	C38.422184,316.143066 38.778381,317.072113 39.319221,318.249390 
	C39.772049,319.484894 40.040241,320.472168 40.222794,321.817932 
	C40.474880,322.775757 40.812603,323.375092 41.248314,324.255890 
	C41.996578,325.489685 42.646851,326.442017 43.236099,327.765320 
	C43.803581,328.743378 44.432079,329.350464 45.028885,329.975311 
	C44.997185,329.993103 45.048103,329.940643 45.050453,330.264465 
	C45.504601,330.939148 45.956402,331.290039 46.219788,331.826965 
	C46.159294,331.890625 46.287216,331.768188 46.321373,332.006653 
	C48.150051,333.912415 50.072491,335.457336 51.997467,337.001129 
	C52.000000,337.000000 51.998314,337.004761 52.058472,337.362305 
	C52.918774,338.070007 53.718914,338.420135 54.673569,338.773987 
	C54.828087,338.777679 54.996281,339.037048 55.052483,339.422668 
	C56.650566,340.399811 58.192455,340.991302 59.971794,341.579437 
	C60.532745,341.653015 60.790257,341.827362 61.039001,342.434387 
	C62.064003,343.209106 63.031780,343.648590 63.999527,344.413818 
	C63.998901,345.173737 63.998306,345.608002 63.586609,346.037231 
	C60.053886,345.382782 56.932259,344.733368 53.810631,344.083984 
	C53.810631,344.083984 53.342285,344.035767 53.060112,343.681030 
	C52.551384,343.090363 52.275784,342.992554 51.951138,343.032898 
	C51.951138,343.032898 51.989880,342.994110 51.952797,342.663574 
	C50.207943,341.251923 48.500172,340.170776 46.792404,339.089661 
	C46.474819,339.088593 46.221752,338.960266 45.879440,338.219452 
	C45.401283,337.549438 45.076889,337.364685 44.752495,337.179932 
	C44.752502,337.179932 44.898655,337.100525 44.877148,336.810486 
	C43.449734,335.117645 42.043827,333.714874 40.637920,332.312103 
	C40.637924,332.312103 40.998947,332.025757 40.895279,331.836609 
	C40.198742,331.095886 39.605877,330.544312 39.013016,329.992706 
	C38.686680,329.550903 38.360344,329.109070 38.018997,327.993713 
	C36.593746,323.849365 35.183502,320.378540 33.773254,316.907715 
	C33.545189,316.180603 33.317120,315.453491 33.346092,314.129333 
	C33.724930,312.709259 33.846725,311.886230 33.978504,310.590698 
	C33.975491,235.047806 33.962498,159.977417 33.955559,84.545029 
	C33.995136,83.457077 34.028656,82.731133 34.062172,82.005173 
z"/>
<path fill="#24436D" opacity="1.000000" stroke="none" 
	d="
M299.989624,348.947845 
	C438.530701,348.963806 577.071777,348.977417 715.612854,348.997894 
	C740.256653,349.001526 764.900513,349.033630 790.057617,349.132507 
	C788.472595,349.495148 786.374268,350.024994 784.275879,350.025299 
	C548.385864,350.060883 312.495850,350.057495 76.605850,350.045349 
	C74.778053,350.045227 72.950249,349.895691 71.233269,349.473022 
	C73.505440,349.083221 75.666786,348.995789 77.828148,348.995178 
	C151.881973,348.974304 225.935791,348.961670 299.989624,348.947845 
z"/>
<path fill="#043264" opacity="1.000000" stroke="none" 
	d="
M299.993225,348.580109 
	C225.935791,348.961670 151.881973,348.974304 77.828148,348.995178 
	C75.666786,348.995789 73.505440,349.083221 70.838142,349.260437 
	C69.125580,349.271271 67.918953,349.151794 66.337097,348.596375 
	C65.307152,347.454376 64.652435,346.748291 63.997711,346.042236 
	C63.998306,345.608002 63.998901,345.173737 64.315834,344.427307 
	C65.753387,344.105499 66.874611,344.095856 68.329033,344.053162 
	C69.096542,344.113556 69.530861,344.207031 69.970459,344.504852 
	C69.975731,344.709198 70.060890,345.109009 70.366562,345.376404 
	C72.654015,345.762451 74.635765,345.984406 76.617569,345.984894 
	C151.077972,346.003021 225.538376,346.000732 299.998779,346.001221 
	C299.998108,346.738281 299.997467,347.475311 299.993225,348.580109 
z"/>
<path fill="#0A3262" opacity="1.000000" stroke="none" 
	d="
M33.949501,84.907036 
	C33.962498,159.977417 33.975491,235.047806 33.732525,310.569763 
	C33.476562,311.021332 32.982719,310.998108 32.982719,310.998108 
	C32.897171,309.841034 32.736748,308.683960 32.736771,307.526886 
	C32.738247,233.660736 32.752769,159.794586 33.109459,85.448097 
	C33.618370,84.947525 33.783936,84.927284 33.949501,84.907036 
z"/>
<path fill="#24436D" opacity="1.000000" stroke="none" 
	d="
M63.586609,346.037231 
	C64.652435,346.748291 65.307152,347.454376 65.994438,348.459229 
	C62.089565,347.389099 58.152126,346.020142 54.012661,344.367584 
	C56.932259,344.733368 60.053886,345.382782 63.586609,346.037231 
z"/>
<path fill="#324A71" opacity="1.000000" stroke="none" 
	d="
M33.686825,317.261719 
	C35.183502,320.378540 36.593746,323.849365 37.975624,327.717987 
	C36.498302,324.615784 35.049347,321.115753 33.686825,317.261719 
z"/>
<path fill="#24436D" opacity="1.000000" stroke="none" 
	d="
M40.718674,332.633484 
	C42.043827,333.714874 43.449734,335.117645 44.825745,336.875854 
	C43.463711,335.805847 42.131573,334.380371 40.718674,332.633484 
z"/>
<path fill="#24436D" opacity="1.000000" stroke="none" 
	d="
M46.921272,339.395447 
	C48.500172,340.170776 50.207943,341.251923 51.942230,342.688354 
	C50.329212,341.929535 48.689674,340.815369 46.921272,339.395447 
z"/>
<path fill="#24436D" opacity="1.000000" stroke="none" 
	d="
M797.355042,348.144104 
	C798.172974,347.519714 799.346558,346.946198 800.734985,346.600342 
	C799.870178,347.283691 798.790405,347.739349 797.355042,348.144104 
z"/>
<path fill="#324A71" opacity="1.000000" stroke="none" 
	d="
M33.955559,84.545029 
	C33.783936,84.927284 33.618370,84.947525 33.203426,84.987976 
	C33.002434,83.615135 33.050823,82.222092 33.299610,80.587921 
	C33.616631,80.615349 33.733253,80.883904 33.956024,81.578812 
	C34.028656,82.731133 33.995136,83.457077 33.955559,84.545029 
z"/>
<path fill="#324A71" opacity="1.000000" stroke="none" 
	d="
M32.866619,311.230530 
	C32.982719,310.998108 33.476562,311.021332 33.722542,311.042297 
	C33.846725,311.886230 33.724930,312.709259 33.371090,313.745361 
	C33.009537,313.126617 32.880028,312.294800 32.866619,311.230530 
z"/>
<path fill="#24436D" opacity="1.000000" stroke="none" 
	d="
M792.161804,349.184235 
	C792.525635,348.869995 793.078918,348.658569 793.794312,348.651733 
	C793.421326,348.999878 792.886292,349.143494 792.161804,349.184235 
z"/>
<path fill="#24436D" opacity="1.000000" stroke="none" 
	d="
M39.032410,330.294769 
	C39.605877,330.544312 40.198742,331.095886 40.719311,331.985687 
	C40.115276,331.748199 39.583538,331.172516 39.032410,330.294769 
z"/>
<path fill="#324A71" opacity="1.000000" stroke="none" 
	d="
M35.620590,72.102432 
	C35.723743,72.801811 35.549507,73.713783 35.066345,74.811157 
	C34.952682,74.102715 35.147942,73.208870 35.620590,72.102432 
z"/>
<path fill="#324A71" opacity="1.000000" stroke="none" 
	d="
M36.589394,69.923492 
	C36.717365,70.363861 36.579948,70.984917 36.156628,71.774231 
	C36.021820,71.329720 36.172913,70.716942 36.589394,69.923492 
z"/>
<path fill="#324A71" opacity="1.000000" stroke="none" 
	d="
M37.909744,67.427460 
	C37.955086,67.746864 37.808537,68.238274 37.434036,68.863937 
	C37.376671,68.531937 37.547260,68.065704 37.909744,67.427460 
z"/>
<path fill="#24436D" opacity="1.000000" stroke="none" 
	d="
M44.835648,337.454956 
	C45.076889,337.364685 45.401283,337.549438 45.803200,338.013702 
	C45.560078,338.105438 45.239437,337.917694 44.835648,337.454956 
z"/>
<path fill="#24436D" opacity="1.000000" stroke="none" 
	d="
M52.043404,343.247437 
	C52.275784,342.992554 52.551384,343.090363 52.882614,343.526398 
	C52.648926,343.813782 52.365051,343.725616 52.043404,343.247437 
z"/>
<path fill="#134070" opacity="1.000000" stroke="none" 
	d="
M793.891846,46.867065 
	C793.992126,46.997955 793.717163,47.026588 793.717163,47.026588 
	C793.717163,47.026588 793.447083,46.967331 793.327759,46.897766 
	C793.372925,46.608627 793.567322,46.577953 793.891846,46.867065 
z"/>
<path fill="#134070" opacity="1.000000" stroke="none" 
	d="
M67.690445,46.581161 
	C67.692123,46.865124 67.470505,46.966114 67.024475,46.957863 
	C66.979164,46.662243 67.201515,46.512100 67.690445,46.581161 
z"/>
<path fill="#FDFDFE" opacity="1.000000" stroke="none" 
	d="
M69.965179,344.300507 
	C69.530861,344.207031 69.096542,344.113556 68.015106,343.877136 
	C65.239250,343.189178 63.110516,342.644165 60.981781,342.099182 
	C60.790257,341.827362 60.532745,341.653015 59.747681,341.321045 
	C57.856167,340.389648 56.426224,339.713348 54.996284,339.037048 
	C54.996281,339.037048 54.828087,338.777679 54.511063,338.498047 
	C53.462132,337.813904 52.730221,337.409332 51.998310,337.004761 
	C51.998314,337.004761 52.000000,337.000000 51.864330,336.701172 
	C49.957489,334.816833 48.186317,333.231293 46.415138,331.645782 
	C46.287216,331.768188 46.159294,331.890625 46.159824,331.543884 
	C45.874882,330.696716 45.461494,330.318695 45.048103,329.940643 
	C45.048103,329.940643 44.997185,329.993103 44.981255,329.655670 
	C44.409256,328.676941 43.853191,328.035645 43.297123,327.394348 
	C42.646851,326.442017 41.996578,325.489685 41.327866,323.909119 
	C40.975761,322.673767 40.642097,322.066589 40.308434,321.459442 
	C40.040241,320.472168 39.772049,319.484894 39.363701,317.872955 
	C38.909367,316.309143 38.595184,315.370026 38.280998,314.430878 
	C38.280998,314.430878 38.380371,314.205200 38.367065,313.641693 
	C38.259083,310.252869 38.082409,307.427582 38.081703,304.602234 
	C38.063328,230.733200 38.063194,156.864151 38.059921,82.995117 
	C43.264259,63.785931 53.603085,53.698238 70.427414,51.606144 
	C73.386505,51.238182 76.410103,51.312366 79.403938,51.311695 
	C153.031128,51.295200 226.658310,51.296185 300.285492,51.294056 
	C301.594757,51.294018 302.904053,51.294048 305.067474,51.294048 
	C305.067474,148.819031 305.067474,246.003143 304.578705,343.726562 
	C302.594818,344.321320 301.099640,344.425964 299.604553,344.425262 
	C223.058090,344.389374 146.511642,344.344452 69.965179,344.300507 
M188.654053,254.710083 
	C188.720901,254.363281 188.787766,254.016479 188.802948,253.296417 
	C188.802948,253.296417 189.035522,252.999939 189.549454,252.537369 
	C189.634338,251.870468 189.719223,251.203568 189.775864,249.986450 
	C189.918259,249.651642 190.060654,249.316833 190.732819,248.520584 
	C190.961670,247.411072 191.190521,246.301559 191.377701,244.539505 
	C191.820206,243.319748 192.262711,242.099991 193.327911,240.662415 
	C193.529892,240.285095 193.731873,239.907791 194.385269,239.311844 
	C194.548538,239.347885 194.711792,239.383926 195.112411,240.051544 
	C196.087189,239.833481 197.061951,239.615402 198.952744,239.216949 
	C205.535843,239.216949 212.118927,239.216949 219.062759,239.216949 
	C218.270386,236.086548 217.628784,233.551743 217.050644,230.464249 
	C216.795868,230.003433 216.541107,229.542633 215.889862,228.513519 
	C215.566986,228.184128 215.244110,227.854736 214.228714,227.104401 
	C182.271393,227.042542 150.314056,226.975449 118.356712,226.950165 
	C117.589043,226.949554 116.821007,227.415955 115.766754,228.088562 
	C115.674881,228.391830 115.583008,228.695084 115.027336,229.493027 
	C114.888298,229.671249 114.749268,229.849472 114.246017,230.309143 
	C114.053345,230.577637 113.999435,230.871597 114.071846,231.812439 
	C113.718147,232.543610 113.364441,233.274796 112.478470,234.422379 
	C112.372040,235.067261 112.265617,235.712143 112.093636,237.214127 
	C113.237946,237.867493 114.360786,239.041290 115.530060,239.089539 
	C122.994186,239.397491 130.468536,239.457733 137.995087,240.054749 
	C138.303680,240.369812 138.612274,240.684875 139.290924,241.537537 
	C139.483627,242.370300 139.676331,243.203064 139.416016,244.477615 
	C140.296188,246.652527 141.176361,248.827438 142.355972,251.358383 
	C142.529755,251.647614 142.551590,251.947906 142.296417,252.922607 
	C142.539749,253.282181 142.783096,253.641739 143.258286,254.242264 
	C143.258286,254.242264 143.184830,254.568481 143.086517,255.201782 
	C143.717697,255.492783 144.348877,255.783798 145.899811,255.865311 
	C157.940079,255.933228 169.980331,256.001129 182.440826,256.573853 
	C183.620789,256.405518 184.800766,256.237183 186.553726,255.897217 
	C186.747253,255.945160 186.940796,255.993103 187.540543,255.972702 
	C187.804123,255.849472 187.986710,255.651520 188.026840,255.153229 
	C188.026840,255.153229 188.243942,255.066330 188.654053,254.710083 
M191.000000,303.000000 
	C191.000000,303.000000 190.987427,303.007599 191.048737,302.437500 
	C190.776886,301.965576 190.505035,301.493622 189.928513,300.695251 
	C189.928513,300.695251 189.892517,300.250153 189.826004,299.714539 
	C189.573288,299.470551 189.320557,299.226532 188.545013,298.595154 
	C187.034607,297.384613 185.524200,296.174042 184.016647,294.241882 
	C184.021332,293.520477 184.026016,292.799042 184.227814,291.602234 
	C184.502914,291.407074 184.778030,291.211884 185.511932,290.788544 
	C185.650574,290.486603 185.789215,290.184662 185.969757,289.961609 
	C185.969757,289.961609 185.883545,289.938263 186.451233,289.800781 
	C186.968933,289.531982 187.486633,289.263184 188.107040,289.259491 
	C188.186951,289.308014 188.266846,289.356537 188.346741,289.405090 
	C188.229248,289.271545 188.111771,289.138000 187.780426,288.566711 
	C187.594772,288.280640 187.337616,288.092072 187.054047,287.301727 
	C187.440247,286.200745 187.826447,285.099731 188.513107,283.840179 
	C188.571854,283.744080 188.701584,283.618469 188.676178,283.557343 
	C188.595688,283.363678 188.457199,283.194061 188.255920,282.143799 
	C188.133163,280.107666 188.010406,278.071533 188.370941,275.712372 
	C187.906891,275.144836 187.442856,274.577301 186.437363,273.609283 
	C182.308060,271.205566 178.178772,268.801880 173.864166,265.856018 
	C172.916992,265.874908 171.969818,265.893799 170.089844,266.038971 
	C161.056152,265.927185 152.022476,265.815369 142.797363,265.416565 
	C142.533234,265.531616 142.269104,265.646667 141.347565,266.357330 
	C141.215714,266.831757 140.969360,267.305969 140.968582,267.780609 
	C140.939087,285.676697 140.914749,303.572906 140.966217,321.468842 
	C140.969254,322.524841 141.607086,323.578979 142.247421,325.247498 
	C151.187744,325.424164 160.127899,325.612274 169.068985,325.731506 
	C169.392319,325.735809 169.724701,325.062653 170.875290,324.410065 
	C173.648911,324.079956 176.422546,323.749847 179.873611,323.611572 
	C180.220993,323.334717 180.568359,323.057831 181.251663,322.352905 
	C181.765732,322.203644 182.279785,322.054352 183.490952,321.918060 
	C183.938995,321.465729 184.387054,321.013428 185.177750,320.094849 
	C186.074707,319.377777 186.971649,318.660675 188.596939,317.881195 
	C189.019821,316.871490 189.442719,315.861816 189.935410,314.934509 
	C189.935410,314.934509 189.828903,314.916840 190.399399,314.545990 
	C190.458176,314.113098 190.516953,313.680176 190.610901,312.432678 
	C190.791977,309.620850 190.973053,306.808990 191.457855,303.786041 
	C191.301407,303.527771 191.144958,303.269531 191.000000,303.000000 
M167.102676,220.285034 
	C167.102676,220.285034 167.454620,220.137375 168.020569,219.960800 
	C168.341812,219.295792 168.663040,218.630768 169.030914,217.501572 
	C169.135101,217.177536 169.350601,216.967941 170.277725,216.693176 
	C170.525375,216.147308 170.773010,215.601425 171.199097,214.427795 
	C172.424545,212.934082 173.650009,211.440384 175.403976,209.697617 
	C175.552994,209.350723 175.702026,209.003845 176.072083,208.027969 
	C187.525314,192.775406 186.001389,180.627121 171.103241,168.903091 
	C168.626343,166.953888 165.995926,165.198547 163.421310,163.375015 
	C159.086288,160.304703 154.460526,157.563263 150.526123,154.046783 
	C148.810852,152.513702 148.574081,149.374374 147.526459,147.026733 
	C146.974838,145.790543 146.123138,144.688293 144.607605,142.227905 
	C138.940781,150.590622 134.041443,157.820724 128.584335,165.321121 
	C128.337692,166.534515 128.091049,167.747925 127.893494,169.654373 
	C127.742043,170.087112 127.590599,170.519836 126.772766,171.258728 
	C125.662315,175.047287 124.909599,178.789246 128.328018,182.150665 
	C128.328018,182.150665 128.286575,182.357178 128.246155,183.011505 
	C128.510635,183.341492 128.775101,183.671463 129.457352,184.350937 
	C129.664597,184.842682 129.871841,185.334412 130.024078,186.586761 
	C130.768646,187.353180 131.513214,188.119598 132.827667,189.198730 
	C134.873062,191.176926 136.918457,193.155121 139.209747,195.568359 
	C139.449905,195.831024 139.747940,195.960861 140.550522,196.003113 
	C140.860657,196.110107 141.056915,196.322403 141.314407,197.265671 
	C141.884964,197.506607 142.455521,197.747528 143.500244,198.054733 
	C143.828110,198.180817 144.026474,198.416107 144.356842,199.348633 
	C144.743927,199.498154 145.130997,199.647690 146.107071,199.934540 
	C147.062256,200.654495 148.017456,201.374451 149.231583,202.539810 
	C149.539291,202.671463 149.847000,202.803131 150.687592,203.066956 
	C150.801086,203.210510 150.914581,203.354065 151.150665,203.779663 
	C151.286133,203.949905 151.462006,204.046738 152.227585,204.207336 
	C152.484802,204.472809 152.742035,204.738266 153.259872,205.488174 
	C153.589142,205.623291 153.918427,205.758423 154.884018,206.047607 
	C156.258606,207.142487 157.633194,208.237381 159.157471,209.686523 
	C159.325165,209.901550 159.544632,210.023087 160.507797,210.323761 
	C161.302368,212.550690 162.096924,214.777603 162.410309,217.425125 
	C162.683228,218.255508 162.956146,219.085907 163.921036,219.986969 
	C164.322083,220.201477 164.723129,220.416000 165.434235,220.916107 
	C165.952026,220.827057 166.469833,220.738007 167.102676,220.285034 
M254.403595,319.050568 
	C254.184616,319.068359 253.965622,319.086182 253.314835,318.641724 
	C252.562958,318.494263 251.811096,318.346802 250.632721,317.606415 
	C248.754272,317.738495 246.875839,317.870575 245.009384,317.293945 
	C244.986252,316.822601 244.963120,316.351257 244.982834,315.320709 
	C245.285110,314.866608 245.587402,314.412506 246.419556,313.530945 
	C246.436493,313.095123 246.453430,312.659332 246.437790,311.563110 
	C246.641861,310.708466 246.845917,309.853821 247.522125,308.617889 
	C247.367340,307.745819 247.212555,306.873779 246.819397,305.295776 
	C246.218964,300.761414 243.803085,297.441772 239.765060,294.464233 
	C239.478073,293.894073 239.191086,293.323914 239.140747,292.238617 
	C239.938354,291.436188 240.735962,290.633759 242.218216,289.571564 
	C242.354858,289.123932 242.491501,288.676300 242.601013,287.631134 
	C242.864029,287.099609 243.127045,286.568085 243.919601,285.940186 
	C243.934586,285.289581 243.949570,284.638977 243.893082,283.132721 
	C243.942642,281.417969 243.992203,279.703186 244.468750,277.694305 
	C244.116699,277.116028 243.764648,276.537720 243.024643,275.363739 
	C240.494492,269.777863 235.362045,268.000671 229.880981,265.928162 
	C228.922989,265.942688 227.964996,265.957184 226.074127,266.081299 
	C216.383560,266.055115 206.692978,266.028931 196.206375,266.160156 
	C195.809921,267.168213 195.072052,268.174835 195.067841,269.184540 
	C194.996552,286.275787 194.981445,303.367676 195.090637,320.458527 
	C195.098358,321.669037 196.169296,322.872772 197.573196,324.299561 
	C198.699326,324.432159 199.825455,324.564789 201.333344,325.334595 
	C209.256104,325.474274 217.178741,325.626923 225.102097,325.705627 
	C225.414719,325.708710 225.734360,325.007355 226.869995,324.368103 
	C228.590805,324.283936 230.311600,324.199768 232.309845,324.524139 
	C232.890564,324.212952 233.471283,323.901764 234.639832,323.202271 
	C235.964127,322.746338 237.288406,322.290436 239.193192,321.778412 
	C239.454849,321.504852 239.716507,321.231293 240.282242,320.431763 
	C241.391602,319.561279 242.500961,318.690796 244.300705,317.954071 
	C244.534653,317.968536 244.768616,317.983002 245.011856,318.828461 
	C246.081879,326.585632 249.489014,328.354309 256.796906,324.673157 
	C257.161835,322.851868 257.526764,321.030548 257.922791,318.560364 
	C256.960510,318.731384 255.998215,318.902374 254.997604,319.012329 
	C254.997604,319.012329 255.062683,319.043213 254.403595,319.050568 
M130.753220,296.517914 
	C130.428238,296.376434 130.103256,296.234924 129.239487,296.026184 
	C128.815475,295.707367 128.391464,295.388519 127.980667,294.274658 
	C127.969650,293.479919 127.958641,292.685181 128.171875,291.326111 
	C128.826965,290.566406 129.482056,289.806671 130.690613,288.981903 
	C130.833466,288.331146 130.976334,287.680359 131.107468,286.388580 
	C131.403946,285.592560 131.700424,284.796539 132.533493,283.503571 
	C132.377167,281.670135 132.220856,279.836731 131.827744,277.564484 
	C131.682053,277.248810 131.653229,276.922791 131.807007,275.980072 
	C131.584808,275.655518 131.362610,275.330963 130.695236,274.514313 
	C129.099060,272.754242 127.502876,270.994141 125.574921,268.643921 
	C125.151794,268.537231 124.728668,268.430542 123.693352,268.277710 
	C123.144020,268.019684 122.594688,267.761688 121.828239,266.877411 
	C119.556015,266.569763 117.283798,266.262146 114.078331,266.064850 
	C104.714836,265.957794 95.351334,265.850708 85.744286,265.455811 
	C85.501755,265.649597 85.259216,265.843353 84.836906,266.955872 
	C84.795731,268.936279 84.731331,270.916504 84.717079,272.897095 
	C84.606590,288.248810 84.505775,303.600586 83.872391,319.126129 
	C84.048828,320.100433 84.225266,321.074738 84.655861,322.760681 
	C84.745842,323.255371 84.835823,323.750092 85.178589,324.993591 
	C85.729431,325.305267 86.278099,325.884094 86.831429,325.888580 
	C95.254379,325.957153 103.678177,325.978607 112.100891,325.906860 
	C112.754730,325.901276 113.401962,325.118927 114.867630,324.416901 
	C116.589912,324.319885 118.312195,324.222900 120.470772,324.585480 
	C121.939583,323.944458 123.408394,323.303467 125.182060,322.273285 
	C125.646584,322.123901 126.111107,321.974548 127.169220,321.795685 
	C127.445068,321.527527 127.720924,321.259399 128.351196,320.432007 
	C130.221359,318.288483 132.091522,316.144928 134.490784,313.668976 
	C134.671967,312.449188 134.853134,311.229431 134.898148,309.181213 
	C134.937393,307.785950 134.976639,306.390717 135.488708,304.627136 
	C134.981125,303.417694 134.473526,302.208252 133.521591,300.557190 
	C132.680130,299.374207 131.838684,298.191254 130.753220,296.517914 
M204.597916,169.107178 
	C208.318146,163.790283 212.271957,158.619537 215.709656,153.125839 
	C222.717773,141.926285 224.062012,130.168579 216.470856,118.859344 
	C212.927734,113.580818 208.147644,108.871506 203.143768,104.890091 
	C193.384354,97.124863 183.208923,89.855904 172.932526,82.778206 
	C167.808426,79.249069 166.126556,74.985062 167.345016,69.101555 
	C167.634857,67.702034 167.149963,66.142059 167.021408,64.655891 
	C166.448914,64.559456 165.876404,64.463020 165.303909,64.366585 
	C156.534897,75.943466 146.301559,86.759499 141.696716,100.856659 
	C137.529160,113.615074 140.126511,125.625610 150.422653,135.118668 
	C153.595688,138.044189 156.998840,140.745575 160.466248,143.321198 
	C168.345352,149.173828 176.530060,154.631912 184.216400,160.722549 
	C192.321075,167.144669 193.503601,173.098862 189.807755,182.781342 
	C189.385071,183.888641 189.842453,185.331863 189.891769,186.619354 
	C191.034943,185.957001 192.519836,185.556992 193.263672,184.588089 
	C197.011429,179.706161 200.565948,174.675903 204.597916,169.107178 
z"/>
<path fill="#F0F4F6" opacity="1.000000" stroke="none" 
	d="
M520.657898,232.666779 
	C517.912170,232.753128 515.604675,232.753128 513.014893,232.753128 
	C513.014893,210.436951 513.014893,188.528809 513.014893,165.845139 
	C517.487732,165.845139 521.898376,165.831116 526.308899,165.848389 
	C533.131897,165.875107 539.971558,165.636581 546.773254,166.036728 
	C554.795715,166.508682 562.187988,168.843887 564.766296,177.598358 
	C567.280151,186.133514 565.665710,193.783447 557.405457,199.575851 
	C566.154236,204.630264 563.937256,213.257919 564.909241,220.902893 
	C565.368347,224.513763 566.207397,228.076324 567.099548,232.871216 
	C565.060120,233.075836 561.731262,234.081650 558.796326,233.397537 
	C557.490356,233.093140 556.509583,229.446091 556.206543,227.204666 
	C555.628967,222.931641 555.727478,218.572037 555.393005,214.260208 
	C554.891418,207.792648 552.244751,204.673477 545.808044,204.320145 
	C538.054260,203.894531 530.259338,204.219421 521.944702,204.219421 
	C521.944702,212.165100 521.995850,219.771210 521.906067,227.375641 
	C521.885620,229.113510 521.378906,230.845642 520.657898,232.666779 
M526.592957,196.222427 
	C533.234863,196.142593 539.893494,196.326050 546.513794,195.906097 
	C552.676270,195.515167 556.014099,191.563263 556.212463,185.384354 
	C556.424561,178.776840 553.564636,174.495468 547.560425,174.157593 
	C539.184143,173.686234 530.761536,174.038834 521.938721,174.038834 
	C521.938721,175.858459 521.937927,177.323929 521.938904,178.789398 
	C521.942200,183.772430 521.764465,188.768295 522.115112,193.726822 
	C522.179321,194.634857 524.393616,195.390854 526.592957,196.222427 
z"/>
<path fill="#F0F5F5" opacity="1.000000" stroke="none" 
	d="
M749.073792,182.892990 
	C752.908081,184.750427 756.351257,186.547607 760.051086,188.478775 
	C760.206848,187.424805 760.428589,185.924973 760.679199,184.229889 
	C763.175110,184.229889 765.419495,184.229889 768.228638,184.229889 
	C768.228638,189.381439 768.231873,194.328125 768.227966,199.274796 
	C768.219421,210.258392 768.310181,221.243362 768.161743,232.225098 
	C768.056763,239.983673 765.669922,246.950806 758.216064,250.482559 
	C750.190369,254.285217 741.772888,254.625397 733.758728,250.139679 
	C729.600098,247.811981 727.568604,243.922531 727.116943,238.894211 
	C731.334351,238.329391 734.494202,237.650986 737.263672,242.407303 
	C741.046570,248.904053 754.774170,247.109253 758.042419,239.948868 
	C759.465820,236.830338 759.624146,233.134415 760.573547,228.686188 
	C743.555359,240.763870 727.528992,230.367401 725.911560,212.735977 
	C725.520630,208.473587 725.491638,204.034897 726.225098,199.839661 
	C728.295593,187.996475 736.664856,181.870300 749.073792,182.892990 
M734.854797,215.364227 
	C737.159607,223.557541 741.748901,227.516479 748.195435,226.872391 
	C755.064941,226.186066 759.999817,220.651917 760.076660,212.573441 
	C760.121887,207.819778 759.598938,202.913406 758.372864,198.332306 
	C756.843201,192.617096 752.378174,189.909882 746.745911,190.080566 
	C740.875488,190.258499 736.267334,193.392502 735.240417,199.236008 
	C734.364563,204.219894 734.801270,209.434433 734.854797,215.364227 
z"/>
<path fill="#F0F4F5" opacity="1.000000" stroke="none" 
	d="
M364.341644,230.472412 
	C372.159973,209.719879 379.762421,189.320175 387.622223,169.020096 
	C388.177307,167.586349 390.634125,166.029251 392.197327,166.038849 
	C394.804474,166.054871 398.425079,164.009781 399.946289,168.201569 
	C407.644684,189.415207 415.327698,210.634415 423.025391,231.877319 
	C414.504730,234.182037 413.578186,233.713638 410.968750,226.042953 
	C406.623138,213.268723 406.623169,213.268723 393.187042,213.267120 
	C380.033264,213.265533 380.033203,213.265518 375.045776,227.155121 
	C373.031708,232.764114 370.721863,234.094269 365.157257,232.660995 
	C364.708435,232.545395 364.505341,231.475693 364.341644,230.472412 
M396.848511,185.735977 
	C395.847870,182.957092 394.847198,180.178207 393.423309,176.223953 
	C389.708801,186.420593 386.404480,195.491211 383.017548,204.788574 
	C390.017487,204.788574 396.360107,204.788574 403.171021,204.788574 
	C401.029633,198.378250 399.044220,192.434860 396.848511,185.735977 
z"/>
<path fill="#EDF1F3" opacity="1.000000" stroke="none" 
	d="
M591.005005,234.113541 
	C580.877380,233.491760 575.426819,228.765015 575.037964,220.665085 
	C574.617493,211.905594 579.804382,206.158524 589.453796,204.766937 
	C593.569031,204.173431 597.689941,203.591141 601.825500,203.175034 
	C604.741882,202.881607 607.042053,202.082596 607.420776,198.706161 
	C607.840515,194.963791 606.517578,192.228546 602.971069,190.674652 
	C595.277222,187.303543 588.603699,190.197464 584.610046,198.765472 
	C582.534058,198.765472 580.399963,198.765472 578.291504,198.765472 
	C577.218567,192.617096 579.818787,186.693863 585.987915,184.976929 
	C591.720520,183.381470 598.118408,182.777390 604.010864,183.491150 
	C612.323364,184.498047 615.786255,189.626175 615.817383,198.094177 
	C615.845520,205.747070 615.929443,213.402542 615.767822,221.052216 
	C615.688049,224.828781 616.055603,227.834702 621.081116,227.027878 
	C621.081116,229.042725 621.081116,230.676682 621.081116,232.279785 
	C614.063171,235.050629 610.743896,233.901703 608.134888,228.617569 
	C602.465759,230.480286 596.957336,232.290222 591.005005,234.113541 
M583.789429,218.666245 
	C584.514771,225.128143 586.775574,227.198990 592.977600,227.082291 
	C603.534668,226.883621 608.709290,220.200867 606.780823,208.975403 
	C601.275024,209.907440 595.611938,210.349762 590.318604,211.987274 
	C587.798706,212.766800 585.982666,215.821518 583.789429,218.666245 
z"/>
<path fill="#ECF1F3" opacity="1.000000" stroke="none" 
	d="
M684.308350,231.257858 
	C681.803894,232.186295 679.358948,232.680344 676.362793,233.285797 
	C676.362793,216.517227 676.362793,200.524796 676.362793,184.255386 
	C678.763184,184.255386 681.013916,184.255386 683.646362,184.255386 
	C683.838928,185.851257 684.023987,187.385193 684.308105,189.740341 
	C689.367920,184.413452 694.811523,181.891586 701.600891,182.737457 
	C709.670166,183.742798 714.983582,187.924301 715.396423,195.917557 
	C716.019348,207.979355 715.558899,220.097122 715.558899,232.494080 
	C712.896240,232.494080 710.481140,232.494080 707.368286,232.494080 
	C707.368286,227.668640 707.370972,222.897537 707.367554,218.126450 
	C707.363464,212.470230 707.453491,206.811691 707.321472,201.158386 
	C707.165344,194.471786 704.952026,191.377289 699.909668,190.342789 
	C694.419373,189.216370 688.364136,191.957138 686.285278,197.175674 
	C685.087769,200.181625 684.571594,203.609543 684.467163,206.870529 
	C684.211853,214.847733 684.373901,222.838287 684.308350,231.257858 
z"/>
<path fill="#E9EFF2" opacity="1.000000" stroke="none" 
	d="
M647.389954,189.610870 
	C645.014526,190.544998 642.710022,191.061127 639.821289,191.708084 
	C639.821289,201.778809 639.511597,212.046310 640.107422,222.260986 
	C640.214417,224.094482 644.057922,225.710007 646.176270,227.426163 
	C646.530090,227.101837 646.883850,226.777512 647.237671,226.453186 
	C647.237671,228.385376 647.237671,230.317566 647.237671,232.566422 
	C645.936707,232.767410 644.683960,233.034760 643.417542,233.144745 
	C634.561829,233.913849 631.398132,231.131882 631.318054,222.337204 
	C631.239380,213.696228 631.307007,205.053986 631.282715,196.412384 
	C631.278137,194.792999 631.142700,193.173981 631.054199,191.265854 
	C628.988708,191.124710 627.214050,191.003433 625.078613,190.857513 
	C625.078613,188.733017 625.078613,186.681259 625.078613,184.268967 
	C626.943970,184.093231 628.837341,183.914871 631.279358,183.684814 
	C631.279358,179.301575 631.279358,175.065414 631.279358,170.555145 
	C634.251465,170.555145 636.654724,170.555145 639.642334,170.555145 
	C639.642334,174.896561 639.642334,179.124405 639.642334,183.633545 
	C642.442200,183.855499 644.692444,184.033890 647.460815,184.253342 
	C647.460815,185.958206 647.460815,187.575531 647.389954,189.610870 
z"/>
<path fill="#EBF0F3" opacity="1.000000" stroke="none" 
	d="
M448.027710,216.150360 
	C448.381744,212.595001 446.367279,212.649017 444.220703,212.671112 
	C438.930450,212.725571 433.639282,212.688950 428.163605,212.688950 
	C428.163605,210.150467 428.163605,208.199600 428.163605,205.685791 
	C434.704712,205.685791 441.102753,205.685791 447.901489,205.685791 
	C447.901489,198.855301 447.901489,192.576904 447.901489,185.955841 
	C450.375275,185.955841 452.441711,185.955841 455.026093,185.955841 
	C455.026093,192.336945 455.026093,198.581589 455.026093,205.459137 
	C461.883118,205.459137 468.263763,205.459137 474.920776,205.459137 
	C474.920776,208.020157 474.920776,209.949600 474.920776,212.509537 
	C468.550568,212.509537 462.150665,212.509537 455.136292,212.509537 
	C455.136292,219.493820 455.136292,225.885422 455.136292,232.518188 
	C452.586639,232.518188 450.667603,232.518188 448.028503,232.518188 
	C448.028503,227.158920 448.028503,221.897934 448.027710,216.150360 
z"/>
<path fill="#E5EBEF" opacity="1.000000" stroke="none" 
	d="
M655.382263,225.839508 
	C655.381714,211.760574 655.381714,198.160995 655.381714,184.265137 
	C658.396851,184.265137 660.938904,184.265137 663.747009,184.265137 
	C663.747009,200.410797 663.747009,216.283051 663.747009,232.489853 
	C661.080811,232.489853 658.661255,232.489853 655.382812,232.489853 
	C655.382812,230.463760 655.382812,228.391296 655.382263,225.839508 
z"/>
<path fill="#24436D" opacity="1.000000" stroke="none" 
	d="
M69.970459,344.504852 
	C146.511642,344.344452 223.058090,344.389374 299.604553,344.425262 
	C301.099640,344.425964 302.594818,344.321320 304.556702,344.203644 
	C304.503265,344.481964 303.983063,344.822479 302.696411,345.166138 
	C224.640274,345.149200 147.350586,345.129089 70.060890,345.109009 
	C70.060890,345.109009 69.975731,344.709198 69.970459,344.504852 
z"/>
<path fill="#122D56" opacity="1.000000" stroke="none" 
	d="
M70.366562,345.376404 
	C147.350586,345.129089 224.640274,345.149200 302.377014,345.224243 
	C302.088867,345.518341 301.353607,345.757446 300.308594,345.998901 
	C225.538376,346.000732 151.077972,346.003021 76.617569,345.984894 
	C74.635765,345.984406 72.654015,345.762451 70.366562,345.376404 
z"/>
<path fill="#324A71" opacity="1.000000" stroke="none" 
	d="
M37.799461,83.001595 
	C38.063194,156.864151 38.063328,230.733200 38.081703,304.602234 
	C38.082409,307.427582 38.259083,310.252869 38.288239,313.546875 
	C37.816063,312.156281 37.055138,310.297211 37.053806,308.437622 
	C37.000095,233.615189 37.015057,158.792709 37.020134,83.506332 
	C37.192368,83.030968 37.365685,83.019524 37.799461,83.001595 
z"/>
<path fill="#E5EBEF" opacity="1.000000" stroke="none" 
	d="
M657.910461,165.811859 
	C660.041870,165.808914 661.809082,165.808914 663.779297,165.808914 
	C663.779297,169.116226 663.779297,171.859711 663.779297,174.992950 
	C661.179932,174.992950 658.659241,174.992950 655.627197,174.992950 
	C656.461670,171.918381 652.900635,168.232956 657.910461,165.811859 
z"/>
<path fill="#24436D" opacity="1.000000" stroke="none" 
	d="
M46.321377,332.006653 
	C48.186317,333.231293 49.957489,334.816833 51.861794,336.702332 
	C50.072491,335.457336 48.150051,333.912415 46.321377,332.006653 
z"/>
<path fill="#24436D" opacity="1.000000" stroke="none" 
	d="
M61.039001,342.434387 
	C63.110516,342.644165 65.239250,343.189178 67.681908,343.910217 
	C66.874611,344.095856 65.753387,344.105499 64.315857,344.101624 
	C63.031780,343.648590 62.064003,343.209106 61.039001,342.434387 
z"/>
<path fill="#24436D" opacity="1.000000" stroke="none" 
	d="
M55.052483,339.422668 
	C56.426224,339.713348 57.856167,340.389648 59.510223,341.324371 
	C58.192455,340.991302 56.650566,340.399811 55.052483,339.422668 
z"/>
<path fill="#24436D" opacity="1.000000" stroke="none" 
	d="
M52.058472,337.362305 
	C52.730221,337.409332 53.462132,337.813904 54.356548,338.494354 
	C53.718914,338.420135 52.918774,338.070007 52.058472,337.362305 
z"/>
<path fill="#24436D" opacity="1.000000" stroke="none" 
	d="
M43.236099,327.765320 
	C43.853191,328.035645 44.409256,328.676941 45.012951,329.637878 
	C44.432079,329.350464 43.803581,328.743378 43.236099,327.765320 
z"/>
<path fill="#324A71" opacity="1.000000" stroke="none" 
	d="
M38.173492,314.822449 
	C38.595184,315.370026 38.909367,316.309143 39.179066,317.624695 
	C38.778381,317.072113 38.422184,316.143066 38.173492,314.822449 
z"/>
<path fill="#24436D" opacity="1.000000" stroke="none" 
	d="
M45.050453,330.264465 
	C45.461494,330.318695 45.874882,330.696716 46.348236,331.357849 
	C45.956402,331.290039 45.504601,330.939148 45.050453,330.264465 
z"/>
<path fill="#324A71" opacity="1.000000" stroke="none" 
	d="
M40.222794,321.817932 
	C40.642097,322.066589 40.975761,322.673767 41.229874,323.627686 
	C40.812603,323.375092 40.474880,322.775757 40.222794,321.817932 
z"/>
<path fill="#0D3463" opacity="1.000000" stroke="none" 
	d="
M204.393097,169.402435 
	C200.565948,174.675903 197.011429,179.706161 193.263672,184.588089 
	C192.519836,185.556992 191.034943,185.957001 189.891769,186.619354 
	C189.842453,185.331863 189.385071,183.888641 189.807755,182.781342 
	C193.503601,173.098862 192.321075,167.144669 184.216400,160.722549 
	C176.530060,154.631912 168.345352,149.173828 160.466248,143.321198 
	C156.998840,140.745575 153.595688,138.044189 150.422653,135.118668 
	C140.126511,125.625610 137.529160,113.615074 141.696716,100.856659 
	C146.301559,86.759499 156.534897,75.943466 165.303909,64.366585 
	C165.876404,64.463020 166.448914,64.559456 167.021408,64.655891 
	C167.149963,66.142059 167.634857,67.702034 167.345016,69.101555 
	C166.126556,74.985062 167.808426,79.249069 172.932526,82.778206 
	C183.208923,89.855904 193.384354,97.124863 203.143768,104.890091 
	C208.147644,108.871506 212.927734,113.580818 216.470856,118.859344 
	C224.062012,130.168579 222.717773,141.926285 215.709656,153.125839 
	C212.271957,158.619537 208.318146,163.790283 204.393097,169.402435 
z"/>
<path fill="#0E3463" opacity="1.000000" stroke="none" 
	d="
M151.028091,203.497635 
	C150.914581,203.354065 150.801086,203.210510 150.308304,202.760178 
	C149.610229,202.333740 149.291443,202.214066 148.972641,202.094391 
	C148.017456,201.374451 147.062256,200.654495 145.665283,199.588242 
	C144.847427,199.081482 144.471359,198.921021 144.095306,198.760574 
	C144.026474,198.416107 143.828110,198.180817 143.125153,197.749115 
	C142.213120,197.175659 141.676193,196.907822 141.139267,196.639984 
	C141.056915,196.322403 140.860657,196.110107 140.223724,195.743073 
	C139.585907,195.366455 139.274872,195.249893 138.963852,195.133331 
	C136.918457,193.155121 134.873062,191.176926 132.463745,188.730225 
	C131.426239,187.449875 130.752655,186.638016 130.079086,185.826157 
	C129.871841,185.334412 129.664597,184.842682 129.248322,183.853668 
	C128.788376,183.023346 128.537476,182.690262 128.286575,182.357178 
	C128.286575,182.357178 128.328018,182.150665 128.249847,181.615005 
	C127.927498,177.703751 127.683327,174.328171 127.439148,170.952576 
	C127.590599,170.519836 127.742043,170.087112 128.085083,169.034210 
	C128.565155,167.292984 128.853638,166.171921 129.142120,165.050842 
	C134.041443,157.820724 138.940781,150.590622 144.607605,142.227905 
	C146.123138,144.688293 146.974838,145.790543 147.526459,147.026733 
	C148.574081,149.374374 148.810852,152.513702 150.526123,154.046783 
	C154.460526,157.563263 159.086288,160.304703 163.421310,163.375015 
	C165.995926,165.198547 168.626343,166.953888 171.103241,168.903091 
	C186.001389,180.627121 187.525314,192.775406 175.702637,208.473938 
	C175.180618,209.262161 175.028046,209.604416 174.875473,209.946686 
	C173.650009,211.440384 172.424545,212.934082 170.842499,214.874878 
	C170.216400,215.838898 169.946899,216.355850 169.677399,216.872787 
	C169.350601,216.967941 169.135101,217.177536 168.750427,217.847961 
	C168.131500,218.842010 167.793060,219.489700 167.454620,220.137375 
	C167.454620,220.137375 167.102676,220.285034 166.734421,220.441818 
	C165.952164,220.609238 165.538162,220.619873 165.124161,220.630524 
	C164.723129,220.416000 164.322083,220.201477 163.473358,219.594269 
	C162.980927,218.469238 162.936203,217.736877 162.891479,217.004532 
	C162.096924,214.777603 161.302368,212.550690 160.130341,209.975815 
	C159.577713,209.344849 159.329346,209.246323 159.007782,209.332260 
	C157.633194,208.237381 156.258606,207.142487 154.453430,205.711884 
	C153.681641,205.252029 153.340454,205.127884 152.999252,205.003738 
	C152.742035,204.738266 152.484802,204.472809 151.921661,203.974487 
	C151.471893,203.534988 151.276016,203.453659 151.028091,203.497635 
z"/>
<path fill="#113664" opacity="1.000000" stroke="none" 
	d="
M188.212646,283.998749 
	C187.826447,285.099731 187.440247,286.200745 186.784424,287.813110 
	C186.304382,288.862427 186.093979,289.400360 185.883545,289.938263 
	C185.883545,289.938263 185.969757,289.961609 185.698334,290.012329 
	C185.302322,290.380920 185.177719,290.698822 185.053131,291.016724 
	C184.778030,291.211884 184.502914,291.407074 183.805740,291.925659 
	C181.597153,293.617401 181.160080,294.672424 184.013794,294.963501 
	C185.524200,296.174042 187.034607,297.384613 188.824036,299.064514 
	C189.366226,299.772614 189.629364,300.011383 189.892517,300.250153 
	C189.892517,300.250153 189.928513,300.695251 190.062073,301.135315 
	C190.459564,302.052795 190.723495,302.530182 190.987427,303.007599 
	C190.987427,303.007599 191.000000,303.000000 190.936798,303.268677 
	C190.967117,303.690643 191.060623,303.843903 191.154129,303.997162 
	C190.973053,306.808990 190.791977,309.620850 190.360428,313.060272 
	C190.016266,314.097534 189.922592,314.507172 189.828903,314.916840 
	C189.828903,314.916840 189.935410,314.934509 189.629593,315.054504 
	C188.838715,316.097504 188.353653,317.020538 187.868591,317.943573 
	C186.971649,318.660675 186.074707,319.377777 184.697510,320.400299 
	C183.742798,321.105530 183.268326,321.505310 182.793854,321.905090 
	C182.279785,322.054352 181.765732,322.203644 180.762482,322.560730 
	C179.914261,322.985626 179.555206,323.202698 179.196167,323.419769 
	C176.422546,323.749847 173.648911,324.079956 170.013535,324.408325 
	C160.084366,324.482361 151.016953,324.558167 141.949524,324.633972 
	C141.607086,323.578979 140.969254,322.524841 140.966217,321.468842 
	C140.914749,303.572906 140.939087,285.676697 140.968582,267.780609 
	C140.969360,267.305969 141.215714,266.831757 141.927505,266.134369 
	C142.667908,265.842133 142.828354,265.772858 142.988785,265.703552 
	C152.022476,265.815369 161.056152,265.927185 170.815338,266.164093 
	C172.377045,266.325531 173.213257,266.361847 174.049469,266.398132 
	C178.178772,268.801880 182.308060,271.205566 186.701752,274.104248 
	C187.273331,275.077911 187.580490,275.556671 187.887665,276.035400 
	C188.010406,278.071533 188.133163,280.107666 188.180405,282.814148 
	C188.140808,283.655945 188.176727,283.827362 188.212646,283.998749 
M174.646500,312.398163 
	C177.767532,311.026764 178.850937,308.340546 177.869415,305.448975 
	C177.294434,303.755066 175.259705,301.465729 173.754684,301.366302 
	C167.050751,300.923615 160.301041,301.174164 153.445953,301.174164 
	C153.445953,305.368317 153.445953,309.128326 153.445953,313.850433 
	C160.429764,313.466736 167.161255,313.096863 174.646500,312.398163 
M167.038345,277.122406 
	C162.763733,277.122406 158.489136,277.122406 154.014847,277.122406 
	C154.014847,281.523621 154.014847,285.386261 154.014847,289.931335 
	C159.811127,289.634979 165.297958,289.769073 170.640717,288.956116 
	C175.294266,288.248077 177.134613,282.332214 173.795135,279.448303 
	C172.296539,278.154114 169.909912,277.888214 167.038345,277.122406 
z"/>
<path fill="#103564" opacity="1.000000" stroke="none" 
	d="
M243.390076,286.036560 
	C243.127045,286.568085 242.864029,287.099609 242.344482,288.130737 
	C241.903168,289.030701 241.718369,289.431030 241.533569,289.831329 
	C240.735962,290.633759 239.938354,291.436188 238.730103,292.554840 
	C238.871399,293.602997 239.423309,294.334930 239.975235,295.066864 
	C243.803085,297.441772 246.218964,300.761414 246.849747,306.018219 
	C246.936722,307.493500 246.993362,308.246338 247.049988,308.999176 
	C246.845917,309.853821 246.641861,310.708466 246.255066,312.140808 
	C246.011444,313.131836 245.950562,313.545135 245.889679,313.958435 
	C245.587402,314.412506 245.285110,314.866608 244.699646,315.757690 
	C244.147736,316.736542 243.879044,317.278442 243.610352,317.820312 
	C242.500961,318.690796 241.391602,319.561279 239.842529,320.734131 
	C239.139435,321.302490 238.876053,321.568481 238.612671,321.834534 
	C237.288406,322.290436 235.964127,322.746338 234.077942,323.317017 
	C233.021515,323.659698 232.526962,323.887665 232.032410,324.115631 
	C230.311600,324.199768 228.590805,324.283936 226.005402,324.368774 
	C217.077713,324.478790 209.014648,324.588104 200.951569,324.697388 
	C199.825455,324.564789 198.699326,324.432159 197.163483,323.715820 
	C196.836639,304.088959 196.919540,285.045837 197.002411,266.002716 
	C206.692978,266.028931 216.383560,266.055115 226.802429,266.211670 
	C228.368561,266.392975 229.206390,266.443909 230.044205,266.494843 
	C235.362045,268.000671 240.494492,269.777863 243.166046,275.936554 
	C243.552231,277.002380 243.796997,277.495422 244.041763,277.988434 
	C243.992203,279.703186 243.942642,281.417969 243.726624,283.759674 
	C243.503479,284.936615 243.446777,285.486572 243.390076,286.036560 
M224.308655,300.860504 
	C219.249313,300.860504 214.189987,300.860504 209.195709,300.860504 
	C209.195709,305.477966 209.195709,309.242065 209.195709,313.775269 
	C215.864502,313.482117 222.338821,313.630066 228.643051,312.665863 
	C230.622711,312.363098 232.928665,309.330688 233.674454,307.080109 
	C234.565414,304.391541 232.863998,301.921509 229.690430,301.301422 
	C228.235977,301.017181 226.729416,300.999634 224.308655,300.860504 
M229.705444,287.097992 
	C232.208176,281.517303 230.808578,278.073425 225.083176,277.459686 
	C219.925369,276.906830 214.661530,277.343109 209.476196,277.343109 
	C209.476196,281.701447 209.476196,285.442474 209.476196,290.607880 
	C216.351089,289.582184 222.749710,288.627563 229.705444,287.097992 
z"/>
<path fill="#103664" opacity="1.000000" stroke="none" 
	d="
M125.906700,269.234070 
	C127.502876,270.994141 129.099060,272.754242 130.900558,275.060944 
	C131.317673,275.933868 131.529465,276.260193 131.741257,276.586487 
	C131.653229,276.922791 131.682053,277.248810 131.878494,278.208130 
	C131.951782,280.568054 131.974335,282.284271 131.996887,284.000519 
	C131.700424,284.796539 131.403946,285.592560 130.905655,286.913269 
	C130.514938,287.974304 130.326050,288.510651 130.137146,289.046967 
	C129.482056,289.806671 128.826965,290.566406 127.758469,291.680695 
	C126.781487,292.680908 126.217911,293.326569 125.654343,293.972229 
	C126.425385,294.338043 127.196426,294.703857 127.967453,295.069702 
	C128.391464,295.388519 128.815475,295.707367 129.626678,296.307007 
	C130.341644,296.727966 130.669434,296.868134 130.997223,297.008270 
	C131.838684,298.191254 132.680130,299.374207 133.733841,301.129272 
	C134.302689,302.799408 134.659286,303.897430 135.015900,304.995453 
	C134.976639,306.390717 134.937393,307.785950 134.781647,309.890381 
	C134.430664,311.733459 134.196182,312.867432 133.961700,314.001373 
	C132.091522,316.144928 130.221359,318.288483 127.880753,320.739044 
	C127.132080,321.305786 126.853859,321.565491 126.575638,321.825195 
	C126.111107,321.974548 125.646584,322.123901 124.660263,322.485657 
	C122.770470,323.174011 121.402473,323.649963 120.034477,324.125916 
	C118.312195,324.222900 116.589912,324.319885 114.011276,324.401886 
	C103.745216,324.339508 94.335510,324.292145 84.925804,324.244781 
	C84.835823,323.750092 84.745842,323.255371 84.680359,322.032227 
	C84.603889,320.519989 84.502930,319.736176 84.401978,318.952362 
	C84.505775,303.600586 84.606590,288.248810 84.717079,272.897095 
	C84.731331,270.916504 84.795731,268.936279 85.191086,266.494385 
	C85.692795,265.936462 85.840317,265.840027 85.987839,265.743622 
	C95.351334,265.850708 104.714836,265.957794 114.846260,266.203674 
	C117.757904,266.729584 119.901627,267.116638 122.045349,267.503693 
	C122.594688,267.761688 123.144020,268.019684 124.192047,268.562836 
	C125.096069,268.976654 125.501389,269.105347 125.906700,269.234070 
M118.531601,301.525177 
	C111.483940,301.525177 104.436279,301.525177 97.367996,301.525177 
	C97.367996,305.416840 97.367996,309.284760 97.367996,313.059021 
	C103.840500,313.059021 109.975304,313.400696 116.032295,312.864105 
	C118.014496,312.688507 120.909607,310.517639 121.369034,308.738159 
	C121.880104,306.758636 120.088356,304.184601 118.531601,301.525177 
M113.456993,289.264740 
	C117.021255,288.645447 119.206848,286.764954 119.067810,282.916779 
	C118.920334,278.835266 115.924957,277.531311 112.663124,277.324432 
	C107.631142,277.005341 102.564026,277.240417 97.539536,277.240417 
	C97.539536,281.707245 97.539536,285.447662 97.539536,289.406525 
	C102.769920,289.406525 107.696304,289.406525 113.456993,289.264740 
z"/>
<path fill="#0D3463" opacity="1.000000" stroke="none" 
	d="
M113.010735,234.005966 
	C113.364441,233.274796 113.718147,232.543610 114.289047,231.377365 
	C114.760841,230.662399 114.795502,230.357529 114.610245,230.027679 
	C114.749268,229.849472 114.888298,229.671249 115.695396,229.244965 
	C146.178055,228.998856 175.992676,228.989288 205.807251,229.018936 
	C209.130493,229.022247 212.453491,229.248520 215.888382,229.549408 
	C216.329163,230.157272 216.658157,230.587112 216.987167,231.016953 
	C217.628784,233.551743 218.270386,236.086548 219.062759,239.216949 
	C212.118927,239.216949 205.535843,239.216949 198.188858,239.193909 
	C196.574997,239.253922 195.725006,239.336945 194.875031,239.419983 
	C194.711792,239.383926 194.548538,239.347885 193.804245,239.462738 
	C193.050552,240.035828 192.877884,240.458023 192.705200,240.880234 
	C192.262711,242.099991 191.820206,243.319748 191.178192,245.125854 
	C190.720154,246.802139 190.461609,247.892090 190.203064,248.982040 
	C190.060654,249.316833 189.918259,249.651642 189.548218,250.500916 
	C189.225571,251.676910 189.130554,252.338425 189.035522,252.999939 
	C189.035522,252.999939 188.802948,253.296417 188.616119,253.654724 
	C188.367508,254.364136 188.305725,254.715240 188.243942,255.066330 
	C188.243942,255.066330 188.026840,255.153229 187.860687,255.316284 
	C187.426773,255.585770 187.240051,255.773010 187.134338,256.041046 
	C186.940796,255.993103 186.747253,255.945160 186.013596,255.833435 
	C184.322510,255.869446 183.171555,255.969254 182.020599,256.069061 
	C169.980331,256.001129 157.940079,255.933228 145.214890,255.780289 
	C144.081589,255.319672 143.633209,254.944077 143.184830,254.568481 
	C143.184830,254.568481 143.258286,254.242264 143.176086,253.794647 
	C142.869766,252.984421 142.645615,252.621826 142.421463,252.259247 
	C142.551590,251.947906 142.529755,251.647614 142.238098,250.799271 
	C141.369812,248.172043 140.619415,246.103943 139.869019,244.035828 
	C139.676331,243.203064 139.483627,242.370300 139.153137,240.994537 
	C138.656738,240.167542 138.298126,239.883514 137.939529,239.599487 
	C130.468536,239.457733 122.994186,239.397491 115.530060,239.089539 
	C114.360786,239.041290 113.237946,237.867493 112.370422,236.563721 
	C112.768379,235.277527 112.889557,234.641739 113.010735,234.005966 
z"/>
<path fill="#E7EDF0" opacity="1.000000" stroke="none" 
	d="
M196.604401,266.081421 
	C196.919540,285.045837 196.836639,304.088959 196.749802,323.605865 
	C196.169296,322.872772 195.098358,321.669037 195.090637,320.458527 
	C194.981445,303.367676 194.996552,286.275787 195.067841,269.184540 
	C195.072052,268.174835 195.809921,267.168213 196.604401,266.081421 
z"/>
<path fill="#122D56" opacity="1.000000" stroke="none" 
	d="
M215.776611,229.371399 
	C212.453491,229.248520 209.130493,229.022247 205.807251,229.018936 
	C175.992676,228.989288 146.178055,228.998856 115.927292,228.997620 
	C115.583008,228.695084 115.674881,228.391830 116.372192,227.921280 
	C123.974800,227.748169 130.972015,227.752640 137.969162,227.734695 
	C163.619858,227.668945 189.270554,227.595734 214.921234,227.525345 
	C215.244110,227.854736 215.566986,228.184128 215.948608,228.848816 
	C216.007355,229.184128 215.776611,229.371384 215.776611,229.371399 
z"/>
<path fill="#E7EDF0" opacity="1.000000" stroke="none" 
	d="
M214.574982,227.314880 
	C189.270554,227.595734 163.619858,227.668945 137.969162,227.734695 
	C130.972015,227.752640 123.974800,227.748169 116.515381,227.709259 
	C116.821007,227.415955 117.589043,226.949554 118.356712,226.950165 
	C150.314056,226.975449 182.271393,227.042542 214.574982,227.314880 
z"/>
<path fill="#E7EDF0" opacity="1.000000" stroke="none" 
	d="
M85.052200,324.619202 
	C94.335510,324.292145 103.745216,324.339508 113.603592,324.542236 
	C113.401962,325.118927 112.754730,325.901276 112.100891,325.906860 
	C103.678177,325.978607 95.254379,325.957153 86.831429,325.888580 
	C86.278099,325.884094 85.729431,325.305267 85.052200,324.619202 
z"/>
<path fill="#E7EDF0" opacity="1.000000" stroke="none" 
	d="
M244.997391,318.002686 
	C246.875839,317.870575 248.754272,317.738495 250.850311,318.264374 
	C250.513184,320.530731 249.958496,322.139160 249.396423,323.748230 
	C251.612488,324.020355 253.835938,324.291840 256.059387,324.563354 
	C249.489014,328.354309 246.081879,326.585632 245.005920,318.414246 
	C245.000000,318.000000 244.997391,318.002686 244.997391,318.002686 
z"/>
<path fill="#E7EDF0" opacity="1.000000" stroke="none" 
	d="
M142.098480,324.940735 
	C151.016953,324.558167 160.084366,324.482361 169.602325,324.555908 
	C169.724701,325.062653 169.392319,325.735809 169.068985,325.731506 
	C160.127899,325.612274 151.187744,325.424164 142.098480,324.940735 
z"/>
<path fill="#E7EDF0" opacity="1.000000" stroke="none" 
	d="
M201.142456,325.015991 
	C209.014648,324.588104 217.077713,324.478790 225.595764,324.501831 
	C225.734360,325.007355 225.414719,325.708710 225.102097,325.705627 
	C217.178741,325.626923 209.256104,325.474274 201.142456,325.015991 
z"/>
<path fill="#8190A1" opacity="1.000000" stroke="none" 
	d="
M256.428162,324.618225 
	C253.835938,324.291840 251.612488,324.020355 249.396423,323.748230 
	C249.958496,322.139160 250.513184,320.530731 251.063553,318.560852 
	C251.811096,318.346802 252.562958,318.494263 253.577271,319.150146 
	C254.122345,319.884338 254.404968,320.110046 254.687592,320.335754 
	C254.812607,319.904907 254.937637,319.474060 255.062683,319.043213 
	C255.062683,319.043213 254.997604,319.012329 255.374481,318.989563 
	C256.464813,319.047638 257.178253,319.128448 257.891693,319.209259 
	C257.526764,321.030548 257.161835,322.851868 256.428162,324.618225 
z"/>
<path fill="#E7EDF0" opacity="1.000000" stroke="none" 
	d="
M127.105957,171.105652 
	C127.683327,174.328171 127.927498,177.703751 128.172379,181.543671 
	C124.909599,178.789246 125.662315,175.047287 127.105957,171.105652 
z"/>
<path fill="#E7EDF0" opacity="1.000000" stroke="none" 
	d="
M121.936798,267.190552 
	C119.901627,267.116638 117.757904,266.729584 115.312881,266.148499 
	C117.283798,266.262146 119.556015,266.569763 121.936798,267.190552 
z"/>
<path fill="#E7EDF0" opacity="1.000000" stroke="none" 
	d="
M139.642517,244.256714 
	C140.619415,246.103943 141.369812,248.172043 142.088379,250.621246 
	C141.176361,248.827438 140.296188,246.652527 139.642517,244.256714 
z"/>
<path fill="#E7EDF0" opacity="1.000000" stroke="none" 
	d="
M182.230713,256.321472 
	C183.171555,255.969254 184.322510,255.869446 185.727097,255.919220 
	C184.800766,256.237183 183.620789,256.405518 182.230713,256.321472 
z"/>
<path fill="#E7EDF0" opacity="1.000000" stroke="none" 
	d="
M127.974060,294.672180 
	C127.196426,294.703857 126.425385,294.338043 125.654343,293.972229 
	C126.217911,293.326569 126.781487,292.680908 127.646347,291.962860 
	C127.958641,292.685181 127.969650,293.479919 127.974060,294.672180 
z"/>
<path fill="#E7EDF0" opacity="1.000000" stroke="none" 
	d="
M120.252625,324.355713 
	C121.402473,323.649963 122.770470,323.174011 124.507828,322.680267 
	C123.408394,323.303467 121.939583,323.944458 120.252625,324.355713 
z"/>
<path fill="#E7EDF0" opacity="1.000000" stroke="none" 
	d="
M134.226227,313.835175 
	C134.196182,312.867432 134.430664,311.733459 134.849731,310.304565 
	C134.853134,311.229431 134.671967,312.449188 134.226227,313.835175 
z"/>
<path fill="#E7EDF0" opacity="1.000000" stroke="none" 
	d="
M132.265198,283.752045 
	C131.974335,282.284271 131.951782,280.568054 131.996887,278.427551 
	C132.220856,279.836731 132.377167,281.670135 132.265198,283.752045 
z"/>
<path fill="#E7EDF0" opacity="1.000000" stroke="none" 
	d="
M173.956818,266.127075 
	C173.213257,266.361847 172.377045,266.325531 171.281738,266.100952 
	C171.969818,265.893799 172.916992,265.874908 173.956818,266.127075 
z"/>
<path fill="#E7EDF0" opacity="1.000000" stroke="none" 
	d="
M229.962585,266.211487 
	C229.206390,266.443909 228.368561,266.392975 227.268875,266.156860 
	C227.964996,265.957184 228.922989,265.942688 229.962585,266.211487 
z"/>
<path fill="#E7EDF0" opacity="1.000000" stroke="none" 
	d="
M84.137184,319.039246 
	C84.502930,319.736176 84.603889,320.519989 84.553284,321.676422 
	C84.225266,321.074738 84.048828,320.100433 84.137184,319.039246 
z"/>
<path fill="#E7EDF0" opacity="1.000000" stroke="none" 
	d="
M194.993713,239.735764 
	C195.725006,239.336945 196.574997,239.253922 197.730850,239.284103 
	C197.061951,239.615402 196.087189,239.833481 194.993713,239.735764 
z"/>
<path fill="#E7EDF0" opacity="1.000000" stroke="none" 
	d="
M135.252289,304.811279 
	C134.659286,303.897430 134.302689,302.799408 133.956024,301.350098 
	C134.473526,302.208252 134.981125,303.417694 135.252289,304.811279 
z"/>
<path fill="#E7EDF0" opacity="1.000000" stroke="none" 
	d="
M128.863220,165.185974 
	C128.853638,166.171921 128.565155,167.292984 128.060532,168.687683 
	C128.091049,167.747925 128.337692,166.534515 128.863220,165.185974 
z"/>
<path fill="#E7EDF0" opacity="1.000000" stroke="none" 
	d="
M188.232758,317.912384 
	C188.353653,317.020538 188.838715,316.097504 189.594696,315.013306 
	C189.442719,315.861816 189.019821,316.871490 188.232758,317.912384 
z"/>
<path fill="#E7EDF0" opacity="1.000000" stroke="none" 
	d="
M257.907227,318.884827 
	C257.178253,319.128448 256.464813,319.047638 255.393646,319.020081 
	C255.998215,318.902374 256.960510,318.731384 257.907227,318.884827 
z"/>
<path fill="#E7EDF0" opacity="1.000000" stroke="none" 
	d="
M130.051575,186.206451 
	C130.752655,186.638016 131.426239,187.449875 132.178802,188.573853 
	C131.513214,188.119598 130.768646,187.353180 130.051575,186.206451 
z"/>
<path fill="#E7EDF0" opacity="1.000000" stroke="none" 
	d="
M239.870148,294.765564 
	C239.423309,294.334930 238.871399,293.602997 238.611786,292.812408 
	C239.191086,293.323914 239.478073,293.894073 239.870148,294.765564 
z"/>
<path fill="#E7EDF0" opacity="1.000000" stroke="none" 
	d="
M184.015228,294.602692 
	C181.160080,294.672424 181.597153,293.617401 183.707184,292.163391 
	C184.026016,292.799042 184.021332,293.520477 184.015228,294.602692 
z"/>
<path fill="#E7EDF0" opacity="1.000000" stroke="none" 
	d="
M188.129303,275.873901 
	C187.580490,275.556671 187.273331,275.077911 186.972488,274.304474 
	C187.442856,274.577301 187.906891,275.144836 188.129303,275.873901 
z"/>
<path fill="#E7EDF0" opacity="1.000000" stroke="none" 
	d="
M232.171127,324.319885 
	C232.526962,323.887665 233.021515,323.659698 233.784042,323.511169 
	C233.471283,323.901764 232.890564,324.212952 232.171127,324.319885 
z"/>
<path fill="#E7EDF0" opacity="1.000000" stroke="none" 
	d="
M190.467926,248.751312 
	C190.461609,247.892090 190.720154,246.802139 191.199036,245.452118 
	C191.190521,246.301559 190.961670,247.411072 190.467926,248.751312 
z"/>
<path fill="#E7EDF0" opacity="1.000000" stroke="none" 
	d="
M143.135681,254.885132 
	C143.633209,254.944077 144.081589,255.319672 144.755020,255.885040 
	C144.348877,255.783798 143.717697,255.492783 143.135681,254.885132 
z"/>
<path fill="#E7EDF0" opacity="1.000000" stroke="none" 
	d="
M244.255249,277.841370 
	C243.796997,277.495422 243.552231,277.002380 243.360016,276.234406 
	C243.764648,276.537720 244.116699,277.116028 244.255249,277.841370 
z"/>
<path fill="#E7EDF0" opacity="1.000000" stroke="none" 
	d="
M243.654846,285.988373 
	C243.446777,285.486572 243.503479,284.936615 243.762375,284.187500 
	C243.949570,284.638977 243.934586,285.289581 243.654846,285.988373 
z"/>
<path fill="#E7EDF0" opacity="1.000000" stroke="none" 
	d="
M130.413879,289.014435 
	C130.326050,288.510651 130.514938,287.974304 130.911514,287.233795 
	C130.976334,287.680359 130.833466,288.331146 130.413879,289.014435 
z"/>
<path fill="#E7EDF0" opacity="1.000000" stroke="none" 
	d="
M215.888382,229.549408 
	C215.776611,229.371384 216.007355,229.184128 216.146851,229.132965 
	C216.541107,229.542633 216.795868,230.003433 217.018906,230.740601 
	C216.658157,230.587112 216.329163,230.157272 215.888382,229.549408 
z"/>
<path fill="#E7EDF0" opacity="1.000000" stroke="none" 
	d="
M167.737595,220.049088 
	C167.793060,219.489700 168.131500,218.842010 168.727112,218.080048 
	C168.663040,218.630768 168.341812,219.295792 167.737595,220.049088 
z"/>
<path fill="#E7EDF0" opacity="1.000000" stroke="none" 
	d="
M162.650894,217.214828 
	C162.936203,217.736877 162.980927,218.469238 163.127350,219.558929 
	C162.956146,219.085907 162.683228,218.255508 162.650894,217.214828 
z"/>
<path fill="#E7EDF0" opacity="1.000000" stroke="none" 
	d="
M247.286057,308.808533 
	C246.993362,308.246338 246.936722,307.493500 246.968933,306.371185 
	C247.212555,306.873779 247.367340,307.745819 247.286057,308.808533 
z"/>
<path fill="#E7EDF0" opacity="1.000000" stroke="none" 
	d="
M186.167389,289.869507 
	C186.093979,289.400360 186.304382,288.862427 186.761887,288.162720 
	C187.337616,288.092072 187.594772,288.280640 187.890213,288.783356 
	C188.000000,289.000000 188.004333,288.994385 188.004333,288.994385 
	C187.486633,289.263184 186.968933,289.531982 186.167389,289.869507 
z"/>
<path fill="#E7EDF0" opacity="1.000000" stroke="none" 
	d="
M189.292480,252.768646 
	C189.130554,252.338425 189.225571,251.676910 189.562347,250.776031 
	C189.719223,251.203568 189.634338,251.870468 189.292480,252.768646 
z"/>
<path fill="#E7EDF0" opacity="1.000000" stroke="none" 
	d="
M254.733124,319.046875 
	C254.937637,319.474060 254.812607,319.904907 254.687592,320.335754 
	C254.404968,320.110046 254.122345,319.884338 253.793182,319.381287 
	C253.965622,319.086182 254.184616,319.068359 254.733124,319.046875 
z"/>
<path fill="#E7EDF0" opacity="1.000000" stroke="none" 
	d="
M243.955536,317.887207 
	C243.879044,317.278442 244.147736,316.736542 244.678223,316.037292 
	C244.963120,316.351257 244.986252,316.822601 245.003387,317.648315 
	C244.997391,318.002686 245.000000,318.000000 245.001297,317.998718 
	C244.768616,317.983002 244.534653,317.968536 243.955536,317.887207 
z"/>
<path fill="#E7EDF0" opacity="1.000000" stroke="none" 
	d="
M112.744598,234.214172 
	C112.889557,234.641739 112.768379,235.277527 112.403198,236.135162 
	C112.265617,235.712143 112.372040,235.067261 112.744598,234.214172 
z"/>
<path fill="#E7EDF0" opacity="1.000000" stroke="none" 
	d="
M183.142410,321.911560 
	C183.268326,321.505310 183.742798,321.105530 184.526184,320.633423 
	C184.387054,321.013428 183.938995,321.465729 183.142410,321.911560 
z"/>
<path fill="#E7EDF0" opacity="1.000000" stroke="none" 
	d="
M169.977570,216.782990 
	C169.946899,216.355850 170.216400,215.838898 170.753265,215.188751 
	C170.773010,215.601425 170.525375,216.147308 169.977570,216.782990 
z"/>
<path fill="#E7EDF0" opacity="1.000000" stroke="none" 
	d="
M137.967316,239.827118 
	C138.298126,239.883514 138.656738,240.167542 138.968109,240.725739 
	C138.612274,240.684875 138.303680,240.369812 137.967316,239.827118 
z"/>
<path fill="#E7EDF0" opacity="1.000000" stroke="none" 
	d="
M191.018082,302.722534 
	C190.723495,302.530182 190.459564,302.052795 190.214417,301.298523 
	C190.505035,301.493622 190.776886,301.965576 191.018082,302.722534 
z"/>
<path fill="#E7EDF0" opacity="1.000000" stroke="none" 
	d="
M141.226837,196.952820 
	C141.676193,196.907822 142.213120,197.175659 142.888062,197.715973 
	C142.455521,197.747528 141.884964,197.506607 141.226837,196.952820 
z"/>
<path fill="#E7EDF0" opacity="1.000000" stroke="none" 
	d="
M165.279205,220.773315 
	C165.538162,220.619873 165.952164,220.609238 166.676895,220.623779 
	C166.469833,220.738007 165.952026,220.827057 165.279205,220.773315 
z"/>
<path fill="#E7EDF0" opacity="1.000000" stroke="none" 
	d="
M175.139725,209.822144 
	C175.028046,209.604416 175.180618,209.262161 175.592133,208.788422 
	C175.702026,209.003845 175.552994,209.350723 175.139725,209.822144 
z"/>
<path fill="#E7EDF0" opacity="1.000000" stroke="none" 
	d="
M159.082626,209.509399 
	C159.329346,209.246323 159.577713,209.344849 159.784393,209.839508 
	C159.544632,210.023087 159.325165,209.901550 159.082626,209.509399 
z"/>
<path fill="#E7EDF0" opacity="1.000000" stroke="none" 
	d="
M126.872429,321.810425 
	C126.853859,321.565491 127.132080,321.305786 127.703537,321.018677 
	C127.720924,321.259399 127.445068,321.527527 126.872429,321.810425 
z"/>
<path fill="#E7EDF0" opacity="1.000000" stroke="none" 
	d="
M153.129562,205.245956 
	C153.340454,205.127884 153.681641,205.252029 154.135269,205.634857 
	C153.918427,205.758423 153.589142,205.623291 153.129562,205.245956 
z"/>
<path fill="#E7EDF0" opacity="1.000000" stroke="none" 
	d="
M151.089386,203.638641 
	C151.276016,203.453659 151.471893,203.534988 151.647018,203.905884 
	C151.462006,204.046738 151.286133,203.949905 151.089386,203.638641 
z"/>
<path fill="#E7EDF0" opacity="1.000000" stroke="none" 
	d="
M149.102112,202.317108 
	C149.291443,202.214066 149.610229,202.333740 150.041870,202.694092 
	C149.847000,202.803131 149.539291,202.671463 149.102112,202.317108 
z"/>
<path fill="#E7EDF0" opacity="1.000000" stroke="none" 
	d="
M144.226074,199.054596 
	C144.471359,198.921021 144.847427,199.081482 145.370789,199.519577 
	C145.130997,199.647690 144.743927,199.498154 144.226074,199.054596 
z"/>
<path fill="#E7EDF0" opacity="1.000000" stroke="none" 
	d="
M139.086792,195.350845 
	C139.274872,195.249893 139.585907,195.366455 140.000397,195.720428 
	C139.747940,195.960861 139.449905,195.831024 139.086792,195.350845 
z"/>
<path fill="#E7EDF0" opacity="1.000000" stroke="none" 
	d="
M128.266357,182.684341 
	C128.537476,182.690262 128.788376,183.023346 129.039429,183.678925 
	C128.775101,183.671463 128.510635,183.341492 128.266357,182.684341 
z"/>
<path fill="#E7EDF0" opacity="1.000000" stroke="none" 
	d="
M191.306000,303.891602 
	C191.060623,303.843903 190.967117,303.690643 190.931061,303.274292 
	C191.144958,303.269531 191.301407,303.527771 191.306000,303.891602 
z"/>
<path fill="#E7EDF0" opacity="1.000000" stroke="none" 
	d="
M187.997131,289.002228 
	C188.111771,289.138000 188.229248,289.271545 188.346741,289.405090 
	C188.266846,289.356537 188.186951,289.308014 188.055695,289.126953 
	C188.004333,288.994385 188.000000,289.000000 187.997131,289.002228 
z"/>
<path fill="#E7EDF0" opacity="1.000000" stroke="none" 
	d="
M241.875900,289.701447 
	C241.718369,289.431030 241.903168,289.030701 242.358063,288.429504 
	C242.491501,288.676300 242.354858,289.123932 241.875900,289.701447 
z"/>
<path fill="#E7EDF0" opacity="1.000000" stroke="none" 
	d="
M185.282532,290.902649 
	C185.177719,290.698822 185.302322,290.380920 185.677368,289.972870 
	C185.789215,290.184662 185.650574,290.486603 185.282532,290.902649 
z"/>
<path fill="#E7EDF0" opacity="1.000000" stroke="none" 
	d="
M188.362885,283.919464 
	C188.176727,283.827362 188.140808,283.655945 188.223022,283.249817 
	C188.457199,283.194061 188.595688,283.363678 188.676178,283.557343 
	C188.701584,283.618469 188.571854,283.744080 188.362885,283.919464 
z"/>
<path fill="#E7EDF0" opacity="1.000000" stroke="none" 
	d="
M130.875214,296.763092 
	C130.669434,296.868134 130.341644,296.727966 129.896057,296.340637 
	C130.103256,296.234924 130.428238,296.376434 130.875214,296.763092 
z"/>
<path fill="#E7EDF0" opacity="1.000000" stroke="none" 
	d="
M189.859253,299.982361 
	C189.629364,300.011383 189.366226,299.772614 189.085449,299.258179 
	C189.320557,299.226532 189.573288,299.470551 189.859253,299.982361 
z"/>
<path fill="#E7EDF0" opacity="1.000000" stroke="none" 
	d="
M131.774139,276.283264 
	C131.529465,276.260193 131.317673,275.933868 131.123138,275.307007 
	C131.362610,275.330963 131.584808,275.655518 131.774139,276.283264 
z"/>
<path fill="#E7EDF0" opacity="1.000000" stroke="none" 
	d="
M125.740814,268.938995 
	C125.501389,269.105347 125.096069,268.976654 124.498146,268.585907 
	C124.728668,268.430542 125.151794,268.537231 125.740814,268.938995 
z"/>
<path fill="#E7EDF0" opacity="1.000000" stroke="none" 
	d="
M142.893066,265.560059 
	C142.828354,265.772858 142.667908,265.842133 142.256195,265.836548 
	C142.269104,265.646667 142.533234,265.531616 142.893066,265.560059 
z"/>
<path fill="#E7EDF0" opacity="1.000000" stroke="none" 
	d="
M114.428131,230.168411 
	C114.795502,230.357529 114.760841,230.662399 114.295273,231.066650 
	C113.999435,230.871597 114.053345,230.577637 114.428131,230.168411 
z"/>
<path fill="#E7EDF0" opacity="1.000000" stroke="none" 
	d="
M85.866058,265.599731 
	C85.840317,265.840027 85.692795,265.936462 85.280975,266.035004 
	C85.259216,265.843353 85.501755,265.649597 85.866058,265.599731 
z"/>
<path fill="#E7EDF0" opacity="1.000000" stroke="none" 
	d="
M187.337433,256.006866 
	C187.240051,255.773010 187.426773,255.585770 187.891418,255.429077 
	C187.986710,255.651520 187.804123,255.849472 187.337433,256.006866 
z"/>
<path fill="#E7EDF0" opacity="1.000000" stroke="none" 
	d="
M246.154633,313.744690 
	C245.950562,313.545135 246.011444,313.131836 246.271347,312.471008 
	C246.453430,312.659332 246.436493,313.095123 246.154633,313.744690 
z"/>
<path fill="#E7EDF0" opacity="1.000000" stroke="none" 
	d="
M190.114151,314.731415 
	C189.922592,314.507172 190.016266,314.097534 190.342834,313.467590 
	C190.516953,313.680176 190.458176,314.113098 190.114151,314.731415 
z"/>
<path fill="#E7EDF0" opacity="1.000000" stroke="none" 
	d="
M188.449005,254.888214 
	C188.305725,254.715240 188.367508,254.364136 188.641968,253.841370 
	C188.787766,254.016479 188.720901,254.363281 188.449005,254.888214 
z"/>
<path fill="#E7EDF0" opacity="1.000000" stroke="none" 
	d="
M142.358948,252.590927 
	C142.645615,252.621826 142.869766,252.984421 143.060181,253.674164 
	C142.783096,253.641739 142.539749,253.282181 142.358948,252.590927 
z"/>
<path fill="#E7EDF0" opacity="1.000000" stroke="none" 
	d="
M193.016556,240.771332 
	C192.877884,240.458023 193.050552,240.035828 193.578537,239.572052 
	C193.731873,239.907791 193.529892,240.285095 193.016556,240.771332 
z"/>
<path fill="#E7EDF0" opacity="1.000000" stroke="none" 
	d="
M238.902924,321.806458 
	C238.876053,321.568481 239.139435,321.302490 239.690491,320.997101 
	C239.716507,321.231293 239.454849,321.504852 238.902924,321.806458 
z"/>
<path fill="#E7EDF0" opacity="1.000000" stroke="none" 
	d="
M179.534882,323.515686 
	C179.555206,323.202698 179.914261,322.985626 180.594513,322.774780 
	C180.568359,323.057831 180.220993,323.334717 179.534882,323.515686 
z"/>
<path fill="#0D3362" opacity="1.000000" stroke="none" 
	d="
M526.104187,196.219727 
	C524.393616,195.390854 522.179321,194.634857 522.115112,193.726822 
	C521.764465,188.768295 521.942200,183.772430 521.938904,178.789398 
	C521.937927,177.323929 521.938721,175.858459 521.938721,174.038834 
	C530.761536,174.038834 539.184143,173.686234 547.560425,174.157593 
	C553.564636,174.495468 556.424561,178.776840 556.212463,185.384354 
	C556.014099,191.563263 552.676270,195.515167 546.513794,195.906097 
	C539.893494,196.326050 533.234863,196.142593 526.104187,196.219727 
z"/>
<path fill="#103664" opacity="1.000000" stroke="none" 
	d="
M734.756104,214.955582 
	C734.801270,209.434433 734.364563,204.219894 735.240417,199.236008 
	C736.267334,193.392502 740.875488,190.258499 746.745911,190.080566 
	C752.378174,189.909882 756.843201,192.617096 758.372864,198.332306 
	C759.598938,202.913406 760.121887,207.819778 760.076660,212.573441 
	C759.999817,220.651917 755.064941,226.186066 748.195435,226.872391 
	C741.748901,227.516479 737.159607,223.557541 734.756104,214.955582 
z"/>
<path fill="#163A66" opacity="1.000000" stroke="none" 
	d="
M396.953674,186.113724 
	C399.044220,192.434860 401.029633,198.378250 403.171021,204.788574 
	C396.360107,204.788574 390.017487,204.788574 383.017548,204.788574 
	C386.404480,195.491211 389.708801,186.420593 393.423309,176.223953 
	C394.847198,180.178207 395.847870,182.957092 396.953674,186.113724 
z"/>
<path fill="#133864" opacity="1.000000" stroke="none" 
	d="
M583.818604,218.255920 
	C585.982666,215.821518 587.798706,212.766800 590.318604,211.987274 
	C595.611938,210.349762 601.275024,209.907440 606.780823,208.975403 
	C608.709290,220.200867 603.534668,226.883621 592.977600,227.082291 
	C586.775574,227.198990 584.514771,225.128143 583.818604,218.255920 
z"/>
<path fill="#EFF3F5" opacity="1.000000" stroke="none" 
	d="
M174.269623,312.562592 
	C167.161255,313.096863 160.429764,313.466736 153.445953,313.850433 
	C153.445953,309.128326 153.445953,305.368317 153.445953,301.174164 
	C160.301041,301.174164 167.050751,300.923615 173.754684,301.366302 
	C175.259705,301.465729 177.294434,303.755066 177.869415,305.448975 
	C178.850937,308.340546 177.767532,311.026764 174.269623,312.562592 
z"/>
<path fill="#EFF3F5" opacity="1.000000" stroke="none" 
	d="
M167.482300,277.139038 
	C169.909912,277.888214 172.296539,278.154114 173.795135,279.448303 
	C177.134613,282.332214 175.294266,288.248077 170.640717,288.956116 
	C165.297958,289.769073 159.811127,289.634979 154.014847,289.931335 
	C154.014847,285.386261 154.014847,281.523621 154.014847,277.122406 
	C158.489136,277.122406 162.763733,277.122406 167.482300,277.139038 
z"/>
<path fill="#F1F5F7" opacity="1.000000" stroke="none" 
	d="
M224.777557,300.860840 
	C226.729416,300.999634 228.235977,301.017181 229.690430,301.301422 
	C232.863998,301.921509 234.565414,304.391541 233.674454,307.080109 
	C232.928665,309.330688 230.622711,312.363098 228.643051,312.665863 
	C222.338821,313.630066 215.864502,313.482117 209.195709,313.775269 
	C209.195709,309.242065 209.195709,305.477966 209.195709,300.860504 
	C214.189987,300.860504 219.249313,300.860504 224.777557,300.860840 
z"/>
<path fill="#EBF0F3" opacity="1.000000" stroke="none" 
	d="
M229.426880,287.385468 
	C222.749710,288.627563 216.351089,289.582184 209.476196,290.607880 
	C209.476196,285.442474 209.476196,281.701447 209.476196,277.343109 
	C214.661530,277.343109 219.925369,276.906830 225.083176,277.459686 
	C230.808578,278.073425 232.208176,281.517303 229.426880,287.385468 
z"/>
<path fill="#F1F5F7" opacity="1.000000" stroke="none" 
	d="
M118.915359,301.697266 
	C120.088356,304.184601 121.880104,306.758636 121.369034,308.738159 
	C120.909607,310.517639 118.014496,312.688507 116.032295,312.864105 
	C109.975304,313.400696 103.840500,313.059021 97.367996,313.059021 
	C97.367996,309.284760 97.367996,305.416840 97.367996,301.525177 
	C104.436279,301.525177 111.483940,301.525177 118.915359,301.697266 
z"/>
<path fill="#ECF1F3" opacity="1.000000" stroke="none" 
	d="
M113.039841,289.335632 
	C107.696304,289.406525 102.769920,289.406525 97.539536,289.406525 
	C97.539536,285.447662 97.539536,281.707245 97.539536,277.240417 
	C102.564026,277.240417 107.631142,277.005341 112.663124,277.324432 
	C115.924957,277.531311 118.920334,278.835266 119.067810,282.916779 
	C119.206848,286.764954 117.021255,288.645447 113.039841,289.335632 
z"/>
</svg>