<svg version="1.1" id="Layer_1" xmlns="http://www.w3.org/2000/svg" xmlns:xlink="http://www.w3.org/1999/xlink" x="0px" y="0px"
	 width="100%" viewBox="0 0 1024 1008" enable-background="new 0 0 1024 1008" xml:space="preserve">
<path fill="#000000" opacity="1.000000" stroke="none" 
	d="
M695.287231,525.000610 
	C695.234619,531.498230 694.799988,537.522217 695.208984,543.488342 
	C696.292664,559.295166 689.530212,571.911682 679.521301,583.195801 
	C665.626343,598.861023 647.717834,604.166138 627.339661,602.980774 
	C610.368164,601.993530 596.632996,594.625183 584.437378,583.037354 
	C561.343384,561.094238 539.933105,537.570129 518.276855,514.262695 
	C511.135345,506.576660 503.805634,499.059540 496.405151,491.621216 
	C482.903625,478.050812 466.241028,472.383820 447.366058,471.159363 
	C433.276917,470.245392 419.088654,469.884583 405.136078,467.341736 
	C401.979462,466.766388 398.462799,466.806335 396.100983,463.947937 
	C396.778259,461.140076 399.218567,460.975800 401.108582,460.231659 
	C416.982635,453.982025 432.327301,446.825012 445.369690,435.491516 
	C450.567047,430.975098 455.178589,425.988190 458.751526,420.093201 
	C461.643799,415.321167 461.172668,414.046021 455.815979,413.153046 
	C447.459839,411.760040 438.902832,411.614105 430.700409,409.268188 
	C426.707184,408.126068 422.739227,406.855103 418.854492,405.391235 
	C416.907257,404.657471 414.747162,403.835175 414.176117,401.297424 
	C415.228516,398.839935 417.672150,398.432892 419.734131,397.455048 
	C440.966949,387.385803 458.727417,373.310150 471.016510,352.937042 
	C471.446228,352.224579 471.832581,351.484528 472.212189,350.743500 
	C476.493103,342.386139 475.585052,340.898346 466.157684,340.270782 
	C459.310577,339.815002 452.653931,338.225494 446.178741,336.035614 
	C440.771576,334.206879 440.300751,332.243713 444.651245,328.629333 
	C454.398132,320.531616 463.979309,312.308716 472.398895,302.772827 
	C485.794403,287.601288 495.653381,270.357452 503.066193,251.624100 
	C503.740204,249.920807 504.350494,248.192047 505.038086,246.494431 
	C505.979309,244.170670 506.804749,241.466171 509.841034,241.396042 
	C513.020508,241.322586 514.991760,243.482605 516.266724,246.188202 
	C521.659729,257.632843 526.481018,269.358978 533.142883,280.174744 
	C544.038452,297.864197 556.440857,314.278778 572.893005,327.278229 
	C573.415466,327.691010 573.919617,328.129150 574.411682,328.578033 
	C579.056580,332.815247 578.652649,335.189636 572.672485,337.156311 
	C566.324158,339.244049 559.787842,340.313446 553.060608,340.512634 
	C547.097290,340.689178 546.173889,342.208893 548.617432,347.632996 
	C554.776794,361.305023 565.060852,371.715088 575.853088,381.743896 
	C582.739685,388.143372 590.460022,393.291656 598.470276,398.106659 
	C600.233154,399.166321 602.972412,400.101349 602.688416,402.550781 
	C602.393250,405.097290 599.619385,405.870911 597.470764,406.682159 
	C588.237366,410.168365 578.699341,412.396210 568.861633,413.307129 
	C567.373352,413.444977 565.873230,413.560516 564.410461,413.848358 
	C560.341675,414.649017 559.167358,416.915405 560.977539,420.732849 
	C564.264404,427.664764 567.745483,434.475464 572.267273,440.713501 
	C586.957947,460.980103 604.386597,478.130280 627.537903,488.554474 
	C647.511292,497.547729 668.106323,498.060150 689.024475,492.238831 
	C690.307617,491.881775 691.577271,491.468079 692.873962,491.172058 
	C693.327881,491.068390 693.844604,491.239777 695.289856,491.375397 
	C695.289856,502.382629 695.289856,513.441589 695.287231,525.000610 
z"/>
<path fill="#000000" opacity="1.000000" stroke="none" 
	d="
M617.091553,178.775146 
	C632.241211,178.792801 646.906128,178.668396 661.566406,178.873199 
	C673.949341,179.046173 684.384521,183.104874 690.727783,194.676285 
	C693.121094,199.042221 693.930481,203.755493 694.267212,208.581009 
	C695.555237,227.040482 695.314819,245.535889 695.312195,264.019104 
	C695.303223,328.169403 695.196472,392.319733 695.073608,456.469940 
	C695.065308,460.791840 694.507507,465.110229 694.401428,469.435059 
	C694.304871,473.372528 692.449646,475.354492 688.624023,476.330414 
	C657.572449,484.251648 629.984924,477.378174 605.476318,457.127533 
	C597.225464,450.310150 590.023132,442.445587 583.116638,434.308350 
	C578.471375,428.835388 578.949707,427.400543 586.036804,425.408844 
	C595.253479,422.818665 603.835388,418.846252 611.838928,413.634705 
	C613.780334,412.370575 615.601196,410.864014 617.276978,409.259552 
	C623.607910,403.198151 623.365356,397.874390 616.067078,392.818878 
	C605.802429,385.708588 595.074524,379.274414 585.338013,371.393524 
	C580.522888,367.496063 575.989624,363.380188 572.389038,358.290131 
	C570.480042,355.591339 570.853760,353.740417 574.008240,352.521210 
	C578.850525,350.649628 583.385254,348.206390 587.519043,345.048981 
	C595.621094,338.860687 597.109985,330.471375 590.076111,323.153870 
	C584.653503,317.512604 583.449829,311.534271 583.553284,304.208282 
	C583.906311,279.219391 583.522278,254.218292 584.037476,229.234604 
	C584.180786,222.285202 584.705872,215.250397 584.479797,208.341599 
	C583.980652,193.089127 598.224060,177.412384 617.091553,178.775146 
z"/>
<path fill="#000000" opacity="1.000000" stroke="none" 
	d="
M332.704346,326.999939 
	C332.711365,298.167328 332.629333,269.834259 332.784241,241.502472 
	C332.826935,233.692108 333.053833,225.814804 334.100891,218.090836 
	C337.049255,196.341721 355.747620,179.994522 377.946045,178.703705 
	C396.516205,177.623871 412.627533,182.260208 426.176392,195.782745 
	C445.063293,214.632919 463.049866,234.281982 480.699768,254.268311 
	C483.783600,257.760406 483.492096,260.805603 481.220734,264.593872 
	C468.743164,285.404480 453.115570,303.399353 434.045197,318.422638 
	C431.178314,320.681122 428.465027,323.191162 425.975494,325.859863 
	C421.171936,331.009125 421.326996,334.606049 426.412201,339.621429 
	C431.476135,344.615845 437.757965,347.740173 444.085541,350.756958 
	C452.894104,354.956635 452.877594,355.080505 446.195557,362.148560 
	C436.533936,372.368286 424.366150,378.998932 412.449738,386.012115 
	C409.007568,388.037964 405.583954,390.112366 402.283325,392.357727 
	C397.068817,395.905029 396.075562,400.297943 399.343658,405.672607 
	C402.545837,410.938782 407.332672,414.614349 412.617065,417.543945 
	C417.563324,420.286163 422.730377,422.629211 427.789032,425.170227 
	C429.224670,425.891327 431.058228,426.012482 431.838043,427.700439 
	C431.925842,428.946625 431.134277,429.631348 430.313507,430.171478 
	C408.172150,444.742737 384.457153,452.056488 357.867706,445.537323 
	C348.201752,443.167480 341.086670,437.018219 335.009857,429.425598 
	C332.978943,426.888153 332.672333,424.074738 332.676880,420.997223 
	C332.722687,389.831512 332.704712,358.665741 332.704346,326.999939 
z"/>
<path fill="#000000" opacity="1.000000" stroke="none" 
	d="
M390.000366,602.260010 
	C380.182159,602.176941 370.878754,602.237427 361.558228,601.468323 
	C345.446472,600.138794 334.328033,588.289795 333.605194,572.051514 
	C331.923126,534.265503 333.120331,496.468475 332.727234,458.679504 
	C332.706909,456.725861 332.311523,454.689240 333.361481,452.795258 
	C335.545288,452.142212 336.282623,453.971771 337.268036,455.149750 
	C353.212036,474.209137 372.814362,488.128357 396.042114,496.900940 
	C410.214630,502.253571 425.093475,504.011993 440.079498,504.649170 
	C444.876465,504.853119 446.382294,506.363556 446.319397,511.086273 
	C446.046814,531.556763 446.437439,552.031738 445.354156,572.496277 
	C444.510406,588.434814 431.927460,600.932739 415.952576,601.351074 
	C407.466400,601.573242 398.984283,601.950684 390.000366,602.260010 
z"/>
<path fill="#000000" opacity="1.000000" stroke="none" 
	d="
M606.396729,743.263123 
	C602.332336,757.230103 598.209900,770.764099 594.463257,784.401367 
	C593.403809,788.257507 591.450623,789.255798 587.728271,789.264954 
	C571.954102,789.303833 572.063965,789.372131 568.002625,774.112610 
	C562.095703,751.918823 555.932007,729.793152 550.086731,707.583435 
	C549.172363,704.109131 547.478149,702.191040 544.203552,700.942566 
	C539.315308,699.078918 536.768250,691.416809 539.238586,686.937622 
	C540.090515,685.392883 541.595398,685.100952 543.088135,685.083252 
	C555.083618,684.941711 567.080078,684.876160 579.075867,684.756714 
	C581.266907,684.734924 582.365234,685.692261 582.801208,687.878662 
	C584.236389,695.076294 582.548706,698.530640 575.977539,701.434692 
	C574.137939,702.247681 572.231995,702.868896 572.899780,705.686340 
	C576.449951,720.666809 579.905762,735.669739 584.520447,750.695557 
	C586.822144,742.965088 589.176514,735.249756 591.413452,727.500610 
	C594.967041,715.190491 598.531738,702.882141 601.891418,690.518616 
	C602.796387,687.188110 604.378540,685.690247 607.918091,685.159363 
	C622.744019,682.935425 623.560059,683.277222 627.448914,697.502747 
	C631.747192,713.226379 635.916260,728.985352 640.153015,744.725891 
	C640.660095,746.609802 641.238220,748.474670 642.022949,751.171631 
	C645.048096,745.311096 645.713501,739.687744 647.249512,734.360413 
	C649.692444,725.887634 651.570923,717.246094 654.195984,708.834412 
	C655.562683,704.454773 655.011719,701.982666 650.307190,700.785767 
	C647.297363,700.020020 645.000366,698.501038 644.777039,694.689392 
	C644.264343,685.939575 644.641235,685.208435 653.443115,684.994751 
	C662.936646,684.764343 672.439880,684.927734 681.933411,684.696838 
	C685.545959,684.609009 687.121643,685.846191 687.055115,689.550049 
	C686.883057,699.132874 687.328918,699.543030 679.538940,701.773315 
	C677.375671,702.392639 676.447571,703.961548 675.846191,706.046875 
	C668.652100,730.990662 661.317566,755.894226 654.199036,780.859314 
	C651.839905,789.133179 652.071533,789.348022 643.628662,789.168945 
	C628.272705,788.843201 631.609314,792.229675 627.161072,776.331360 
	C622.541809,759.821960 618.118469,743.257751 613.602173,726.719543 
	C613.342773,725.769897 613.016724,724.838501 612.478027,723.122131 
	C610.328552,730.200317 608.404846,736.534851 606.396729,743.263123 
z"/>
<path fill="#000000" opacity="1.000000" stroke="none" 
	d="
M90.526802,781.438049 
	C79.732620,762.858276 69.111702,744.602356 58.490791,726.346436 
	C58.104309,726.392883 57.717823,726.439331 57.331341,726.485779 
	C57.331341,730.359680 57.329678,734.233582 57.331676,738.107483 
	C57.336491,747.438354 57.489521,756.772522 57.276646,766.098389 
	C57.191692,769.820068 58.395683,771.863159 61.983826,773.133850 
	C68.112267,775.304016 70.461006,781.061462 68.206772,787.072266 
	C67.535187,788.863098 66.136864,789.110840 64.615036,789.114990 
	C52.951916,789.146912 41.288677,789.131836 29.625500,789.147766 
	C26.918299,789.151489 25.905655,787.813049 25.699438,785.145996 
	C25.031305,776.505005 25.078016,776.130188 32.781761,772.804993 
	C35.393215,771.677917 36.683929,770.248962 36.668427,767.236206 
	C36.565536,747.241943 36.541122,727.246460 36.677639,707.252625 
	C36.701714,703.726746 35.075146,702.273376 32.091625,701.156311 
	C26.279312,698.980042 23.751907,693.014343 25.870220,687.341309 
	C26.627676,685.312805 28.340340,685.218567 29.946915,685.185303 
	C39.274174,684.992371 48.605629,684.981506 57.931168,684.737183 
	C61.240620,684.650513 62.522186,686.714783 63.901199,689.124329 
	C74.822525,708.206482 85.802727,727.254944 96.771957,746.309692 
	C97.157745,746.979858 97.617691,747.607422 98.766685,749.356140 
	C98.766685,733.816223 98.783745,719.564758 98.753120,705.313477 
	C98.746536,702.249878 96.114403,701.820068 94.022209,700.917358 
	C89.325768,698.890747 86.577156,691.187988 89.081345,686.936829 
	C90.077797,685.245300 91.903587,685.209778 93.507446,685.182312 
	C104.667435,684.991638 115.829697,684.937317 126.990021,684.761841 
	C130.044968,684.713867 130.974625,686.258362 131.155197,689.060303 
	C131.695511,697.444214 131.474777,698.157104 123.481697,701.544434 
	C120.243179,702.916870 120.234329,705.291626 120.236427,708.034546 
	C120.255196,732.528137 120.246223,757.021729 120.236000,781.515320 
	C120.232819,789.152588 120.219688,789.155701 112.412315,789.176575 
	C109.246506,789.185059 106.018829,788.778687 102.927711,789.258972 
	C96.543945,790.250732 92.812126,787.461609 90.526802,781.438049 
z"/>
<path fill="#000000" opacity="1.000000" stroke="none" 
	d="
M467.906921,789.206665 
	C456.920319,789.211548 446.420319,789.073425 435.927582,789.289551 
	C431.702545,789.376526 430.097443,788.052612 429.899353,783.635437 
	C429.654938,778.186218 430.500519,774.221558 436.635986,772.982666 
	C439.929779,772.317688 440.808075,769.871765 440.788452,766.589844 
	C440.670898,746.929321 440.645355,727.267151 440.796326,707.607056 
	C440.823914,704.015076 439.572174,702.210022 436.245575,700.985046 
	C430.355072,698.816040 428.108032,693.305786 430.227905,687.545349 
	C431.037292,685.345886 432.871094,685.082397 434.666077,685.060303 
	C446.993256,684.908325 459.321838,684.871948 471.649658,684.764465 
	C474.098907,684.743103 475.407257,685.718384 475.326202,688.301941 
	C475.268768,690.132446 475.164734,691.986755 475.378448,693.795349 
	C475.831543,697.629517 474.189667,699.844116 470.501282,700.604614 
	C465.576294,701.620056 463.715057,704.488159 464.258698,709.534607 
	C464.684540,713.487610 464.452118,717.527039 464.308380,721.520752 
	C464.202484,724.462830 465.253387,725.765259 468.330536,725.729492 
	C477.660004,725.621094 486.992401,725.613831 496.321808,725.723083 
	C499.620392,725.761719 500.789459,724.326721 500.635468,721.189087 
	C500.488586,718.196655 500.381378,715.176208 500.616669,712.196472 
	C501.107727,705.977661 499.854279,701.523621 492.643250,699.867859 
	C486.605255,698.481567 488.976379,692.841797 488.960663,688.860046 
	C488.944275,684.708069 492.637115,685.124451 495.306610,685.075012 
	C506.632751,684.865173 517.964050,684.934448 529.290344,684.731506 
	C532.924683,684.666382 534.374146,686.015076 534.285767,689.699707 
	C534.061707,699.038269 535.139648,699.363281 526.788147,701.786499 
	C524.281494,702.513733 523.502625,704.324890 523.501343,706.729675 
	C523.490784,726.886475 523.558167,747.044250 523.359741,767.199341 
	C523.320801,771.150330 525.607544,772.309570 528.506409,773.474609 
	C533.630188,775.534119 536.177185,782.177795 533.924744,787.252014 
	C533.174927,788.941101 531.770874,789.190796 530.228577,789.191772 
	C517.732178,789.199280 505.235748,789.185425 492.739349,789.182129 
	C490.344971,789.181519 489.188232,788.084412 488.882568,785.614502 
	C487.848114,777.255127 488.633057,775.645569 496.539917,772.778687 
	C499.487366,771.709961 500.782318,770.137817 500.676483,766.930664 
	C500.478760,760.938721 500.486664,754.932068 500.662598,748.938965 
	C500.761841,745.559631 499.658905,744.131226 496.102539,744.196655 
	C486.941498,744.365234 477.774017,744.343201 468.611877,744.208740 
	C465.328369,744.160583 464.201813,745.449463 464.290466,748.647583 
	C464.451996,754.474792 464.575989,760.323608 464.244476,766.136597 
	C464.015198,770.157654 465.487579,772.196960 469.251709,773.455383 
	C474.785431,775.305420 477.515686,782.040466 475.074493,787.308533 
	C473.668365,790.342896 470.686432,788.767883 467.906921,789.206665 
z"/>
<path fill="#000000" opacity="1.000000" stroke="none" 
	d="
M338.782104,786.520508 
	C337.974304,789.263794 336.042694,789.195190 334.205475,789.202759 
	C327.875000,789.228882 321.542328,789.121521 315.214691,789.258789 
	C312.267059,789.322815 310.670135,788.043030 309.528259,785.431641 
	C305.126862,775.366333 300.610138,765.351135 296.087677,755.339294 
	C294.982056,752.891724 293.590576,750.650513 291.004089,749.394592 
	C284.708893,746.338135 281.346161,748.324646 281.325562,755.174744 
	C281.319061,757.340454 281.537048,759.533020 281.275024,761.666931 
	C280.483429,768.113037 281.791626,772.614563 289.069214,774.813171 
	C294.687561,776.510559 291.930878,782.247803 291.970703,786.210388 
	C292.007568,789.877930 288.584564,789.130127 286.216675,789.141663 
	C275.055176,789.196045 263.893250,789.172119 252.731476,789.154175 
	C250.218887,789.150085 247.070053,789.377747 247.244904,785.796936 
	C247.429977,782.006653 244.598526,776.579285 250.171326,774.905273 
	C256.620605,772.968018 258.307495,769.297974 258.430817,762.955872 
	C258.796906,744.128845 258.417297,725.321777 258.056915,706.506775 
	C257.992798,703.159241 255.995255,702.016296 253.289993,701.010254 
	C247.232788,698.757874 245.248337,694.332764 247.080032,688.079041 
	C247.798279,685.626892 249.682571,685.127197 251.714111,685.114197 
	C269.013153,685.003418 286.338440,683.632629 303.599213,685.729614 
	C316.551788,687.303284 325.509735,695.024231 328.606659,706.885132 
	C331.893585,719.473572 327.739594,732.750916 317.853271,739.964294 
	C314.920380,742.104187 314.664520,743.591492 316.417603,746.791931 
	C320.089813,753.496033 323.099152,760.563110 326.383545,767.479797 
	C327.450928,769.727661 328.418915,771.873779 331.023560,773.045532 
	C339.290527,776.764404 339.247223,776.860718 338.782104,786.520508 
M281.320129,719.481567 
	C281.329712,722.469727 281.355042,725.458008 281.343231,728.446106 
	C281.335541,730.394714 282.062866,731.701904 284.198242,731.677490 
	C288.330811,731.630188 292.495361,732.169373 296.561859,730.894104 
	C303.509766,728.715271 306.170074,724.464233 305.861694,715.902649 
	C305.619781,709.188293 302.389679,705.018799 295.643646,703.791321 
	C291.936157,703.116760 288.046753,703.406860 284.238007,703.336365 
	C281.721985,703.289734 281.326111,705.015808 281.332275,707.035461 
	C281.343964,710.853760 281.326721,714.672119 281.320129,719.481567 
z"/>
<path fill="#000000" opacity="1.000000" stroke="none" 
	d="
M984.651001,693.251709 
	C996.160461,701.817810 1000.133972,713.866760 1001.135742,726.973633 
	C1002.062805,739.103027 1001.861206,751.299500 996.722168,762.772034 
	C988.950012,780.122925 974.997803,788.398804 956.532104,789.093079 
	C942.567749,789.618164 928.567139,789.210388 914.583008,789.147278 
	C912.216003,789.136597 908.800232,789.798218 908.986633,786.057800 
	C909.182190,782.133240 906.188660,776.569702 911.926086,774.713989 
	C918.135864,772.705444 919.210571,769.029175 919.095520,763.151367 
	C918.737244,744.845520 918.866089,726.527222 919.038818,708.216003 
	C919.075684,704.311951 917.983459,702.113342 914.110474,700.833252 
	C909.259094,699.229797 906.741821,691.289124 909.241821,686.872437 
	C909.909241,685.693237 911.002258,685.269836 912.154114,685.271057 
	C931.410583,685.291687 950.725952,682.911560 969.895752,686.544922 
	C975.210388,687.552185 979.971497,689.908508 984.651001,693.251709 
M942.357300,747.499756 
	C942.359619,752.157776 942.325317,756.816101 942.371765,761.473694 
	C942.475525,771.874695 941.191833,770.667236 951.788269,770.738892 
	C965.081848,770.828735 971.670593,765.891113 974.947876,752.869751 
	C977.709045,741.898804 977.629578,730.782776 974.915100,719.793518 
	C972.096680,708.383362 965.596313,703.405090 953.838623,703.227051 
	C952.009155,703.199341 950.162598,703.376526 948.352234,703.187744 
	C943.893372,702.722534 942.165161,704.349976 942.272278,709.071716 
	C942.555054,721.541992 942.361267,734.023010 942.357300,747.499756 
z"/>
<path fill="#000000" opacity="1.000000" stroke="none" 
	d="
M758.312744,787.553833 
	C733.648376,797.041199 708.445312,788.076599 699.336243,766.802612 
	C694.507935,755.526001 693.250854,743.655029 694.189575,731.554871 
	C694.796570,723.730530 696.669556,716.190857 699.806396,708.894836 
	C712.777222,678.726196 753.116760,676.531799 772.486206,693.082703 
	C780.035461,699.533386 783.943970,708.174988 786.035461,717.588562 
	C789.279968,732.191956 788.659119,746.706665 783.585999,760.871765 
	C779.137695,773.292175 770.749939,782.102600 758.312744,787.553833 
M723.486267,759.949158 
	C726.452454,767.537170 731.766846,771.621765 740.148926,771.777832 
	C749.087463,771.944214 755.479980,767.879944 758.414246,759.816467 
	C763.861023,744.848694 763.645203,729.447754 758.849854,714.377075 
	C756.139343,705.858582 749.969910,702.243103 741.352722,702.309570 
	C732.429321,702.378357 726.376038,706.147156 723.516602,714.744446 
	C718.625061,729.451416 718.274658,744.366821 723.486267,759.949158 
z"/>
<path fill="#000000" opacity="1.000000" stroke="none" 
	d="
M228.137482,767.976685 
	C215.227753,788.218079 192.894089,796.049561 170.478806,788.490662 
	C159.217850,784.693176 151.075455,777.330139 146.889359,766.316467 
	C140.021851,748.247986 139.666321,729.857788 146.382355,711.626404 
	C154.431808,689.775330 174.527969,681.298584 195.034088,683.185486 
	C221.363785,685.608215 234.136368,704.473816 235.330307,728.392517 
	C236.010254,742.014221 235.197571,755.378967 228.137482,767.976685 
M201.225769,706.211243 
	C188.262650,697.632202 173.979202,702.705627 169.942627,717.674927 
	C166.186584,731.604065 166.423569,745.616882 170.887756,759.415955 
	C172.673157,764.934814 176.243515,768.892578 181.940750,770.704834 
	C192.573715,774.087036 202.906265,769.448608 206.639389,758.963074 
	C211.568756,745.117554 211.365326,730.944641 207.843307,716.802551 
	C206.871002,712.898438 204.921951,709.380737 201.225769,706.211243 
z"/>
<path fill="#000000" opacity="1.000000" stroke="none" 
	d="
M892.831970,711.442261 
	C897.750427,728.776062 898.301575,745.760742 891.600403,762.264221 
	C880.290771,790.117432 847.863953,797.869934 824.564758,785.457336 
	C815.926514,780.855286 810.250793,773.460083 807.195862,764.317871 
	C801.364502,746.866394 801.221008,729.292297 807.509827,711.894104 
	C820.754944,675.250977 868.081177,676.611084 884.517212,696.858032 
	C888.028992,701.184082 890.769958,705.868713 892.831970,711.442261 
M838.915161,705.291016 
	C834.706665,708.161560 832.372620,712.342468 831.061768,717.083252 
	C827.348389,730.512878 827.264893,744.026611 831.009766,757.435730 
	C833.561462,766.572571 839.987549,771.529846 848.585876,771.696655 
	C858.213623,771.883423 864.567810,767.600647 867.660278,758.088684 
	C871.923096,744.976624 872.053589,731.560059 868.793274,718.259583 
	C865.223328,703.695496 853.102600,698.353210 838.915161,705.291016 
z"/>
<path fill="#000000" opacity="1.000000" stroke="none" 
	d="
M394.167236,724.000183 
	C394.158386,738.324280 394.268311,752.150208 394.066681,765.971558 
	C394.008942,769.929565 395.056824,772.387207 399.205200,772.992859 
	C400.345795,773.159363 401.446655,773.609924 402.560059,773.948914 
	C407.361298,775.410828 410.129669,783.515686 407.286957,787.753845 
	C406.289886,789.240479 404.737274,789.167297 403.253265,789.169983 
	C389.262573,789.195374 375.271667,789.158203 361.281281,789.231628 
	C358.016205,789.248779 356.998138,787.720215 356.898590,784.641907 
	C356.610840,775.744202 356.463440,775.536499 365.361298,773.054993 
	C369.456970,771.912842 370.890228,769.975159 370.843231,765.709961 
	C370.634247,746.724731 370.768585,727.735962 370.722992,708.748596 
	C370.717346,706.396790 371.462555,703.077393 367.494568,703.408325 
	C363.837982,703.713196 358.679962,700.828125 357.360535,707.344788 
	C357.261414,707.834229 357.166626,708.325806 357.037781,708.807861 
	C354.677094,717.640808 352.547699,718.871277 343.257294,717.314575 
	C340.550171,716.861023 340.110046,715.178589 340.147552,713.068359 
	C340.292389,704.914612 340.563538,696.763000 340.679169,688.609009 
	C340.722168,685.577515 342.688171,685.071167 344.989044,684.991211 
	C349.149414,684.846558 353.313812,684.759277 357.476624,684.755310 
	C377.796570,684.735901 398.118469,684.907715 418.435059,684.647400 
	C423.588409,684.581360 425.171478,686.374390 424.960785,691.279724 
	C424.668060,698.095642 424.824951,704.935059 424.929169,711.762268 
	C424.987640,715.591370 423.806854,717.509399 419.473145,717.405884 
	C408.862885,717.152161 410.864807,717.720764 408.598969,709.102905 
	C407.258911,704.006104 400.481689,701.145447 395.708557,703.607910 
	C393.980164,704.499512 394.228790,706.066833 394.214172,707.510803 
	C394.160187,712.840271 394.177307,718.170349 394.167236,724.000183 
z"/>
<path fill="#000000" opacity="1.000000" stroke="none" 
	d="
M385.178711,845.047241 
	C382.593628,844.005798 382.832336,842.034851 382.823700,840.241516 
	C382.790009,833.252625 382.785095,826.263123 382.839203,819.274475 
	C382.854309,817.322327 382.614105,815.100159 385.478882,814.715759 
	C387.898773,814.390991 389.687561,815.114014 390.714783,817.482361 
	C392.420654,821.415466 394.205841,825.314087 396.227692,829.200073 
	C396.114868,825.290283 396.196472,821.430664 396.526703,817.567078 
	C396.707275,815.454285 397.519897,814.622742 399.601318,814.647400 
	C401.603394,814.671143 402.902405,815.481384 402.913055,817.502625 
	C402.955994,825.652893 402.926239,833.804138 402.832489,841.953918 
	C402.814545,843.514954 402.178101,844.895813 400.299103,845.144592 
	C398.116943,845.433350 396.345062,844.941956 395.376556,842.730286 
	C393.645203,838.776611 391.885864,834.835205 389.307892,830.848206 
	C389.307892,834.300354 389.262787,837.753296 389.322693,841.204407 
	C389.367523,843.786926 388.573334,845.450623 385.178711,845.047241 
z"/>
<path fill="#000000" opacity="1.000000" stroke="none" 
	d="
M732.189575,845.088928 
	C729.619751,844.034973 729.864380,842.059875 729.853638,840.277039 
	C729.811768,833.300720 729.816772,826.323730 729.857727,819.347290 
	C729.869263,817.382202 729.639221,815.167664 732.457947,814.757324 
	C734.846313,814.409729 736.597534,815.061890 737.636475,817.508484 
	C739.313293,821.457520 741.213623,825.311646 743.654541,830.575134 
	C743.654541,825.472473 743.647766,821.769409 743.657349,818.066345 
	C743.662170,816.229187 744.147888,814.805603 746.373413,814.687622 
	C748.707825,814.563904 749.826172,815.788086 749.839844,817.929688 
	C749.890747,825.900513 749.879272,833.872314 749.799561,841.842896 
	C749.781921,843.604309 749.127197,845.083923 746.943176,845.229065 
	C744.911011,845.364075 743.399658,844.753418 742.482361,842.822632 
	C740.595276,838.850647 739.434937,834.523315 736.298889,830.000732 
	C736.298889,834.372559 736.264343,837.796509 736.310303,841.219299 
	C736.344421,843.759216 735.607544,845.484375 732.189575,845.088928 
z"/>
<path fill="#000000" opacity="1.000000" stroke="none" 
	d="
M694.419312,827.491699 
	C694.407776,830.415100 694.448669,832.913452 694.364441,835.407593 
	C694.139832,842.061279 691.074402,845.333374 684.733154,845.775269 
	C678.387512,846.217468 674.545654,843.366333 673.421265,837.088196 
	C672.566284,832.314453 672.517334,827.450684 673.284302,822.676086 
	C674.297546,816.367432 678.242798,813.365662 684.425476,813.742615 
	C690.431396,814.108704 694.018311,817.822021 694.375366,824.069336 
	C694.432251,825.065308 694.403748,826.066223 694.419312,827.491699 
M686.156372,820.784363 
	C683.071777,818.694641 680.738403,819.803833 680.371216,823.102783 
	C679.880554,827.512207 680.147278,832.029602 680.381042,836.485352 
	C680.487976,838.522949 681.988770,839.712952 684.159912,839.616821 
	C686.118591,839.530090 687.437866,838.236938 687.479004,836.507996 
	C687.599731,831.442322 688.676086,826.292419 686.156372,820.784363 
z"/>
<path fill="#000000" opacity="1.000000" stroke="none" 
	d="
M456.910736,817.246216 
	C460.552765,824.562134 459.789795,831.893494 458.343079,839.062317 
	C457.353333,843.966858 453.791504,845.711243 447.968597,845.525452 
	C443.017639,845.367432 439.747437,843.148254 438.632263,838.191833 
	C437.520782,833.252075 437.725677,828.238037 438.206116,823.268982 
	C438.590820,819.289795 440.060883,815.566467 444.293732,814.322632 
	C448.734039,813.017883 453.228088,812.840637 456.910736,817.246216 
M450.482086,820.414001 
	C447.722656,819.090210 445.721954,820.023071 445.268066,822.884949 
	C444.563873,827.325134 444.734924,831.845398 445.287537,836.314941 
	C445.513611,838.143311 446.653839,839.371094 448.557434,839.547058 
	C450.519501,839.728394 452.111176,838.513672 452.206970,836.836243 
	C452.512390,831.488831 454.107758,825.983765 450.482086,820.414001 
z"/>
<path fill="#000000" opacity="1.000000" stroke="none" 
	d="
M280.369080,844.724304 
	C277.746521,840.254333 279.179810,835.692810 278.929230,831.283386 
	C278.693390,827.133301 278.924988,822.958557 278.871246,818.795654 
	C278.833618,815.880676 280.103149,814.465759 283.086426,814.648499 
	C284.413544,814.729858 285.750763,814.678345 287.082458,814.647217 
	C297.497192,814.404236 299.733582,823.059448 296.664459,829.190857 
	C294.081329,834.351379 294.957977,837.801697 297.682373,841.848938 
	C298.111664,842.486694 298.198669,843.354797 298.535034,844.399292 
	C295.536652,845.576721 292.989380,846.109924 290.969086,843.132507 
	C289.410248,840.835144 288.759033,837.956360 286.626282,836.084778 
	C283.395508,838.298828 288.945221,846.081909 280.369080,844.724304 
M290.819489,825.307678 
	C290.944305,822.947205 290.402100,820.956909 287.661011,820.615234 
	C286.261719,820.440735 285.521088,821.466431 285.503326,822.745972 
	C285.477112,824.629822 284.510681,826.980103 286.602539,828.167419 
	C288.580200,829.290039 289.992981,828.035034 290.819489,825.307678 
z"/>
<path fill="#000000" opacity="1.000000" stroke="none" 
	d="
M543.330811,834.459351 
	C544.908020,828.950867 546.345154,823.824219 547.802368,818.703369 
	C548.411621,816.562378 549.061829,814.643616 551.991821,814.649353 
	C554.702454,814.654724 555.347900,816.431519 555.899231,818.375183 
	C558.123657,826.216614 560.297302,834.072693 562.449341,841.934326 
	C562.658691,842.699219 562.590942,843.539978 562.664062,844.507812 
	C559.300842,845.768799 557.026184,845.603149 555.414246,841.814758 
	C554.010071,838.514709 549.715454,838.374695 548.519470,841.493958 
	C547.315796,844.633362 545.505005,846.094238 542.545227,844.848816 
	C539.492432,843.564209 541.949158,841.098633 542.101257,839.190552 
	C542.218323,837.721741 542.815247,836.291199 543.330811,834.459351 
z"/>
<path fill="#000000" opacity="1.000000" stroke="none" 
	d="
M345.764587,820.275757 
	C344.000519,820.309814 342.672424,820.346252 341.344604,820.338623 
	C339.289368,820.326782 338.364746,821.305786 338.312958,823.380859 
	C338.255157,825.697205 339.247742,826.776855 341.554413,826.708374 
	C342.382935,826.683777 343.213776,826.745422 344.043732,826.758301 
	C346.202850,826.791687 348.158112,827.145264 348.054291,829.946411 
	C347.948944,832.789978 345.736420,832.632202 343.751190,832.940063 
	C341.875671,833.230957 339.080780,831.445435 338.434509,834.821838 
	C337.909454,837.564941 338.329803,839.913574 342.061554,839.655029 
	C343.217560,839.574951 344.385376,839.636902 345.546783,839.670044 
	C347.560333,839.727478 349.825775,839.572693 349.685974,842.571411 
	C349.569275,845.074402 347.663635,845.292358 345.734100,845.273315 
	C328.983185,845.107910 332.105621,847.373596 331.763031,832.458130 
	C331.656311,827.812134 331.794739,823.160950 331.728577,818.513428 
	C331.689758,815.786255 332.921936,814.583069 335.626862,814.627502 
	C338.946045,814.682007 342.267212,814.600891 345.587463,814.610229 
	C347.086365,814.614441 348.739960,814.509705 349.048157,816.559448 
	C349.373016,818.720215 348.578888,820.126038 345.764587,820.275757 
z"/>
<path fill="#000000" opacity="1.000000" stroke="none" 
	d="
M512.326660,814.884827 
	C514.177856,816.509521 513.294678,818.150452 512.895569,819.689819 
	C511.060425,826.767212 509.140778,833.822693 507.278809,840.893188 
	C506.661407,843.237793 506.043182,845.345154 502.865417,845.285156 
	C499.722473,845.225830 499.150391,843.154541 498.544556,840.777588 
	C496.416412,832.427917 493.654785,824.234131 492.135071,815.542114 
	C496.158386,813.799561 498.569702,814.403625 499.431335,818.979675 
	C500.222473,823.181641 501.421906,827.306702 503.224548,831.517517 
	C504.311401,827.272217 505.583466,823.063171 506.425140,818.769775 
	C507.070618,815.477173 508.686646,814.134094 512.326660,814.884827 
z"/>
<path fill="#000000" opacity="1.000000" stroke="none" 
	d="
M600.828613,845.147705 
	C597.460754,844.949829 597.656982,842.756897 597.644836,840.768616 
	C597.613525,835.621155 597.598999,830.473022 597.650024,825.325867 
	C597.676575,822.645386 597.586609,820.213928 593.898621,820.306519 
	C592.031250,820.353455 591.202637,819.154358 591.231079,817.428284 
	C591.260437,815.645203 592.284180,814.704224 594.084412,814.699707 
	C598.401184,814.688904 602.718079,814.677917 607.034668,814.703491 
	C608.706726,814.713440 609.962402,815.318420 610.052795,817.246765 
	C610.135376,819.010681 609.386230,820.222839 607.550659,820.268372 
	C604.195679,820.351624 604.030579,822.586426 604.037720,825.075317 
	C604.052124,830.056702 604.089111,835.039734 603.976624,840.018921 
	C603.929932,842.087402 604.272827,844.547729 600.828613,845.147705 
z"/>
<path fill="#000000" opacity="1.000000" stroke="none" 
	d="
M636.681946,815.699951 
	C641.378052,813.502075 643.093262,815.251465 643.020264,819.763611 
	C642.909912,826.578430 643.014282,833.396545 642.914246,840.211609 
	C642.880493,842.510498 642.967102,845.102356 639.512695,845.198853 
	C636.049377,845.295471 635.929810,842.874451 635.990295,840.454041 
	C636.193481,832.327271 635.307251,824.180786 636.681946,815.699951 
z"/>
</svg>