<?xml version="1.0" encoding="UTF-8"?>
<svg xmlns="http://www.w3.org/2000/svg" xmlns:xlink="http://www.w3.org/1999/xlink" width="3002" height="2428" viewBox="0 0 3002 2428">
<path fill-rule="evenodd" fill="rgb(0%, 0%, 0%)" fill-opacity="1" d="M 1950.589844 2209.507812 L 296.679688 2209.507812 C 133.640625 2209.507812 1 2076.84375 1 1913.824219 L 1 476.78125 C 1 313.738281 133.640625 181.089844 296.679688 181.089844 L 2137.359375 181.089844 C 2300.390625 181.089844 2433.039062 313.738281 2433.039062 476.78125 L 2433.039062 1256.21875 C 2433.039062 1275.621094 2417.269531 1291.378906 2397.878906 1291.378906 C 2378.5 1291.378906 2362.730469 1275.609375 2362.730469 1256.21875 L 2362.71875 476.78125 C 2362.71875 352.511719 2261.621094 251.410156 2137.378906 251.410156 L 296.679688 251.410156 C 172.414062 251.410156 71.3125 352.5 71.3125 476.78125 L 71.3125 1913.835938 C 71.3125 2038.101562 172.40625 2139.175781 296.679688 2139.175781 L 1950.589844 2139.175781 C 1969.988281 2139.175781 1985.738281 2154.945312 1985.738281 2174.332031 C 1985.738281 2193.71875 1969.988281 2209.507812 1950.589844 2209.507812 "/>
<path fill-rule="evenodd" fill="rgb(0%, 0%, 0%)" fill-opacity="1" d="M 491.554688 431.828125 C 472.148438 431.828125 456.398438 416.078125 456.398438 396.671875 L 456.398438 35.808594 C 456.398438 16.398438 472.148438 0.648438 491.554688 0.648438 C 510.960938 0.648438 526.710938 16.398438 526.710938 35.808594 L 526.710938 396.671875 C 526.710938 416.078125 510.984375 431.828125 491.554688 431.828125 "/>
<path fill-rule="evenodd" fill="rgb(0%, 0%, 0%)" fill-opacity="1" d="M 975.195312 431.828125 C 955.792969 431.828125 940.039062 416.078125 940.039062 396.671875 L 940.039062 35.808594 C 940.039062 16.398438 955.792969 0.648438 975.195312 0.648438 C 994.601562 0.648438 1010.351562 16.398438 1010.351562 35.808594 L 1010.351562 396.671875 C 1010.351562 416.078125 994.601562 431.828125 975.195312 431.828125 "/>
<path fill-rule="evenodd" fill="rgb(0%, 0%, 0%)" fill-opacity="1" d="M 1458.839844 431.828125 C 1439.441406 431.828125 1423.679688 416.078125 1423.679688 396.671875 L 1423.679688 35.808594 C 1423.679688 16.398438 1439.441406 0.648438 1458.839844 0.648438 C 1478.25 0.648438 1494 16.398438 1494 35.808594 L 1494 396.671875 C 1494 416.078125 1478.25 431.828125 1458.839844 431.828125 "/>
<path fill-rule="evenodd" fill="rgb(0%, 0%, 0%)" fill-opacity="1" d="M 1942.460938 431.828125 C 1923.050781 431.828125 1907.300781 416.078125 1907.300781 396.671875 L 1907.300781 35.808594 C 1907.300781 16.398438 1923.070312 0.648438 1942.460938 0.648438 C 1961.839844 0.648438 1977.609375 16.398438 1977.609375 35.808594 L 1977.609375 396.671875 C 1977.609375 416.078125 1961.859375 431.828125 1942.460938 431.828125 "/>
<path fill-rule="evenodd" fill="rgb(0%, 0%, 0%)" fill-opacity="1" d="M 2397.851562 621.910156 L 36.15625 621.910156 C 16.75 621.910156 1 606.160156 1 586.761719 C 1 567.351562 16.75 551.601562 36.15625 551.601562 L 2397.851562 551.601562 C 2417.261719 551.601562 2433.011719 567.351562 2433.011719 586.761719 C 2433.011719 606.160156 2417.261719 621.910156 2397.851562 621.910156 "/>
<path fill-rule="evenodd" fill="rgb(0%, 0%, 0%)" fill-opacity="1" d="M 548.632812 1135.980469 L 309.46875 1135.980469 C 268.898438 1135.980469 235.882812 1102.96875 235.882812 1062.390625 L 235.882812 921.449219 C 235.882812 880.878906 268.886719 847.859375 309.46875 847.859375 L 548.632812 847.859375 C 589.207031 847.859375 622.222656 880.871094 622.222656 921.449219 L 622.222656 1062.390625 C 622.214844 1102.96875 589.207031 1135.980469 548.632812 1135.980469 Z M 309.46875 918.179688 C 307.734375 918.179688 306.195312 919.71875 306.195312 921.449219 L 306.195312 1062.390625 C 306.195312 1064.101562 307.753906 1065.671875 309.46875 1065.671875 L 548.632812 1065.671875 C 550.339844 1065.671875 551.910156 1064.109375 551.910156 1062.390625 L 551.910156 921.449219 C 551.910156 919.71875 550.367188 918.179688 548.632812 918.179688 L 309.46875 918.179688 "/>
<path fill-rule="evenodd" fill="rgb(0%, 0%, 0%)" fill-opacity="1" d="M 1073.949219 1135.980469 L 834.785156 1135.980469 C 794.210938 1135.980469 761.195312 1102.96875 761.195312 1062.390625 L 761.195312 921.449219 C 761.195312 880.878906 794.203125 847.859375 834.785156 847.859375 L 1073.949219 847.859375 C 1114.519531 847.859375 1147.539062 880.871094 1147.539062 921.449219 L 1147.539062 1062.390625 C 1147.511719 1102.96875 1114.5 1135.980469 1073.949219 1135.980469 Z M 834.765625 918.179688 C 833.03125 918.179688 831.488281 919.71875 831.488281 921.449219 L 831.488281 1062.390625 C 831.488281 1064.101562 833.050781 1065.671875 834.765625 1065.671875 L 1073.921875 1065.671875 C 1075.628906 1065.671875 1077.199219 1064.109375 1077.199219 1062.390625 L 1077.199219 921.449219 C 1077.199219 919.738281 1075.640625 918.179688 1073.921875 918.179688 L 834.765625 918.179688 "/>
<path fill-rule="evenodd" fill="rgb(0%, 0%, 0%)" fill-opacity="1" d="M 1599.238281 1135.980469 L 1360.078125 1135.980469 C 1319.511719 1135.980469 1286.488281 1102.96875 1286.488281 1062.390625 L 1286.488281 921.449219 C 1286.488281 880.878906 1319.5 847.859375 1360.078125 847.859375 L 1599.238281 847.859375 C 1639.820312 847.859375 1672.851562 880.871094 1672.851562 921.449219 L 1672.851562 1062.390625 C 1672.851562 1102.96875 1639.839844 1135.980469 1599.238281 1135.980469 Z M 1360.078125 918.179688 C 1358.339844 918.179688 1356.800781 919.71875 1356.800781 921.449219 L 1356.800781 1062.390625 C 1356.800781 1064.101562 1358.359375 1065.671875 1360.078125 1065.671875 L 1599.238281 1065.671875 C 1600.949219 1065.671875 1602.519531 1064.109375 1602.519531 1062.390625 L 1602.519531 921.449219 C 1602.519531 919.71875 1600.980469 918.179688 1599.238281 918.179688 L 1360.078125 918.179688 "/>
<path fill-rule="evenodd" fill="rgb(0%, 0%, 0%)" fill-opacity="1" d="M 2124.558594 1135.980469 L 1885.398438 1135.980469 C 1844.828125 1135.980469 1811.800781 1102.96875 1811.800781 1062.390625 L 1811.800781 921.449219 C 1811.800781 880.878906 1844.828125 847.859375 1885.398438 847.859375 L 2124.558594 847.859375 C 2165.128906 847.859375 2198.160156 880.871094 2198.160156 921.449219 L 2198.160156 1062.390625 C 2198.160156 1102.96875 2165.140625 1135.980469 2124.558594 1135.980469 Z M 1885.398438 918.179688 C 1883.671875 918.179688 1882.128906 919.71875 1882.128906 921.449219 L 1882.128906 1062.390625 C 1882.128906 1064.101562 1883.671875 1065.671875 1885.398438 1065.671875 L 2124.558594 1065.671875 C 2126.261719 1065.671875 2127.828125 1064.109375 2127.828125 1062.390625 L 2127.828125 921.449219 C 2127.828125 919.71875 2126.289062 918.179688 2124.558594 918.179688 L 1885.398438 918.179688 "/>
<path fill-rule="evenodd" fill="rgb(0%, 0%, 0%)" fill-opacity="1" d="M 548.632812 1524.625 L 309.46875 1524.625 C 268.898438 1524.625 235.882812 1491.589844 235.882812 1451.019531 L 235.882812 1310.101562 C 235.882812 1269.53125 268.886719 1236.488281 309.46875 1236.488281 L 548.632812 1236.488281 C 589.207031 1236.488281 622.222656 1269.53125 622.222656 1310.101562 L 622.222656 1451.019531 C 622.214844 1491.589844 589.207031 1524.625 548.632812 1524.625 Z M 309.46875 1306.820312 C 307.734375 1306.820312 306.195312 1308.359375 306.195312 1310.101562 L 306.195312 1451.019531 C 306.195312 1452.753906 307.734375 1454.292969 309.46875 1454.292969 L 548.632812 1454.285156 C 550.367188 1454.285156 551.910156 1452.742188 551.910156 1451.007812 L 551.910156 1310.089844 C 551.910156 1308.351562 550.367188 1306.808594 548.632812 1306.808594 L 309.46875 1306.820312 "/>
<path fill-rule="evenodd" fill="rgb(0%, 0%, 0%)" fill-opacity="1" d="M 1073.949219 1524.625 L 834.785156 1524.625 C 794.210938 1524.625 761.195312 1491.589844 761.195312 1451.019531 L 761.195312 1310.101562 C 761.195312 1269.53125 794.203125 1236.488281 834.785156 1236.488281 L 1073.949219 1236.488281 C 1114.519531 1236.488281 1147.539062 1269.53125 1147.539062 1310.101562 L 1147.539062 1451.019531 C 1147.511719 1491.589844 1114.5 1524.625 1073.949219 1524.625 Z M 834.765625 1306.820312 C 833.03125 1306.820312 831.488281 1308.359375 831.488281 1310.101562 L 831.488281 1451.019531 C 831.488281 1452.753906 833.03125 1454.292969 834.765625 1454.292969 L 1073.921875 1454.285156 C 1075.628906 1454.285156 1077.199219 1452.742188 1077.199219 1451.007812 L 1077.199219 1310.089844 C 1077.199219 1308.378906 1075.640625 1306.808594 1073.921875 1306.808594 L 834.765625 1306.820312 "/>
<path fill-rule="evenodd" fill="rgb(0%, 0%, 0%)" fill-opacity="1" d="M 1599.238281 1524.625 L 1360.078125 1524.625 C 1319.511719 1524.625 1286.488281 1491.589844 1286.488281 1451.019531 L 1286.488281 1310.101562 C 1286.488281 1269.53125 1319.5 1236.488281 1360.078125 1236.488281 L 1599.238281 1236.488281 C 1639.820312 1236.488281 1672.851562 1269.53125 1672.851562 1310.101562 L 1672.851562 1451.019531 C 1672.851562 1491.589844 1639.839844 1524.625 1599.238281 1524.625 Z M 1360.078125 1306.820312 C 1358.339844 1306.820312 1356.800781 1308.359375 1356.800781 1310.101562 L 1356.800781 1451.019531 C 1356.800781 1452.753906 1358.339844 1454.292969 1360.078125 1454.292969 L 1599.238281 1454.285156 C 1600.980469 1454.285156 1602.519531 1452.742188 1602.519531 1451.007812 L 1602.519531 1310.089844 C 1602.519531 1308.351562 1600.980469 1306.808594 1599.238281 1306.808594 L 1360.078125 1306.820312 "/>
<path fill-rule="evenodd" fill="rgb(0%, 0%, 0%)" fill-opacity="1" d="M 548.632812 1913.242188 L 309.46875 1913.242188 C 268.898438 1913.242188 235.882812 1880.210938 235.882812 1839.636719 L 235.882812 1698.71875 C 235.882812 1658.144531 268.886719 1625.109375 309.46875 1625.109375 L 548.632812 1625.109375 C 589.207031 1625.109375 622.222656 1658.144531 622.222656 1698.71875 L 622.222656 1839.636719 C 622.214844 1880.210938 589.207031 1913.242188 548.632812 1913.242188 Z M 309.46875 1695.449219 C 307.734375 1695.449219 306.195312 1696.992188 306.195312 1698.726562 L 306.195312 1839.648438 C 306.195312 1841.382812 307.734375 1842.921875 309.46875 1842.921875 L 548.632812 1842.914062 C 550.367188 1842.914062 551.910156 1841.371094 551.910156 1839.636719 L 551.910156 1698.71875 C 551.910156 1696.984375 550.367188 1695.441406 548.632812 1695.441406 L 309.46875 1695.449219 "/>
<path fill-rule="evenodd" fill="rgb(0%, 0%, 0%)" fill-opacity="1" d="M 1073.949219 1913.242188 L 834.785156 1913.242188 C 794.210938 1913.242188 761.195312 1880.210938 761.195312 1839.636719 L 761.195312 1698.71875 C 761.195312 1658.144531 794.203125 1625.109375 834.785156 1625.109375 L 1073.949219 1625.109375 C 1114.519531 1625.109375 1147.539062 1658.144531 1147.539062 1698.71875 L 1147.539062 1839.636719 C 1147.511719 1880.210938 1114.5 1913.242188 1073.949219 1913.242188 Z M 834.765625 1695.449219 C 833.03125 1695.449219 831.488281 1696.992188 831.488281 1698.726562 L 831.488281 1839.648438 C 831.488281 1841.382812 833.03125 1842.921875 834.765625 1842.921875 L 1073.921875 1842.914062 C 1075.628906 1842.914062 1077.199219 1841.371094 1077.199219 1839.636719 L 1077.199219 1698.71875 C 1077.199219 1697.011719 1075.640625 1695.441406 1073.921875 1695.441406 L 834.765625 1695.449219 "/>
<path fill-rule="evenodd" fill="rgb(0%, 0%, 0%)" fill-opacity="1" d="M 1599.238281 1913.242188 L 1360.078125 1913.242188 C 1319.511719 1913.242188 1286.488281 1880.210938 1286.488281 1839.636719 L 1286.488281 1698.71875 C 1286.488281 1658.144531 1319.5 1625.109375 1360.078125 1625.109375 L 1599.238281 1625.109375 C 1639.820312 1625.109375 1672.851562 1658.144531 1672.851562 1698.71875 L 1672.851562 1839.636719 C 1672.851562 1880.210938 1639.839844 1913.242188 1599.238281 1913.242188 Z M 1360.078125 1695.449219 C 1358.339844 1695.449219 1356.800781 1696.992188 1356.800781 1698.726562 L 1356.800781 1839.648438 C 1356.800781 1841.382812 1358.339844 1842.921875 1360.078125 1842.921875 L 1599.238281 1842.914062 C 1600.980469 1842.914062 1602.519531 1841.371094 1602.519531 1839.636719 L 1602.519531 1698.71875 C 1602.519531 1696.984375 1600.980469 1695.441406 1599.238281 1695.441406 L 1360.078125 1695.449219 "/>
<path fill-rule="evenodd" fill="rgb(0%, 0%, 0%)" fill-opacity="1" d="M 1938.988281 1524.625 L 1885.398438 1524.625 C 1844.828125 1524.625 1811.800781 1491.589844 1811.800781 1451.019531 L 1811.800781 1310.101562 C 1811.800781 1269.53125 1844.828125 1236.488281 1885.398438 1236.488281 L 2124.558594 1236.488281 C 2162.621094 1236.488281 2194.839844 1266.199219 2197.929688 1304.148438 C 2199.480469 1323.488281 2185.078125 1340.449219 2165.71875 1342.03125 C 2146.75 1343.570312 2129.421875 1329.191406 2127.828125 1309.828125 C 2127.710938 1308.421875 2126.351562 1306.851562 2124.558594 1306.851562 L 1885.398438 1306.851562 C 1883.671875 1306.851562 1882.128906 1308.390625 1882.128906 1310.128906 L 1882.128906 1451.046875 C 1882.128906 1452.78125 1883.671875 1454.320312 1885.398438 1454.320312 L 1938.988281 1454.3125 C 1958.390625 1454.3125 1974.140625 1470.082031 1974.140625 1489.46875 C 1974.140625 1508.855469 1958.398438 1524.625 1938.988281 1524.625 "/>
<path fill-rule="evenodd" fill="rgb(0%, 0%, 0%)" fill-opacity="1" d="M 2397.851562 2427.355469 C 2065.261719 2427.355469 1794.679688 2156.773438 1794.679688 1824.210938 C 1794.679688 1491.617188 2065.261719 1221.039062 2397.851562 1221.039062 C 2730.429688 1221.039062 3001 1491.617188 3001 1824.210938 C 3001 2156.773438 2730.421875 2427.355469 2397.851562 2427.355469 Z M 2397.851562 1291.378906 C 2104.03125 1291.378906 1865.019531 1530.390625 1865.019531 1824.210938 C 1865.019531 2118.007812 2104.039062 2357.023438 2397.851562 2357.023438 C 2691.648438 2357.023438 2930.671875 2118.007812 2930.671875 1824.210938 C 2930.691406 1530.382812 2691.671875 1291.378906 2397.851562 1291.378906 "/>
<path fill-rule="evenodd" fill="rgb(0%, 0%, 0%)" fill-opacity="1" d="M 2848.96875 1859.394531 L 2744.261719 1859.394531 C 2724.851562 1859.394531 2709.101562 1843.625 2709.101562 1824.238281 C 2709.101562 1804.851562 2724.871094 1789.082031 2744.261719 1789.082031 L 2848.96875 1789.082031 C 2868.378906 1789.082031 2884.128906 1804.851562 2884.128906 1824.238281 C 2884.128906 1843.625 2868.390625 1859.394531 2848.96875 1859.394531 "/>
<path fill-rule="evenodd" fill="rgb(0%, 0%, 0%)" fill-opacity="1" d="M 2397.851562 2310.507812 C 2378.449219 2310.507812 2362.699219 2294.738281 2362.699219 2275.351562 L 2362.699219 2170.613281 C 2362.699219 2151.207031 2378.46875 2135.457031 2397.851562 2135.457031 C 2417.238281 2135.457031 2433.011719 2151.226562 2433.011719 2170.613281 L 2433.011719 2275.351562 C 2433.03125 2294.769531 2417.261719 2310.507812 2397.851562 2310.507812 "/>
<path fill-rule="evenodd" fill="rgb(0%, 0%, 0%)" fill-opacity="1" d="M 2051.46875 1859.394531 L 1946.730469 1859.394531 C 1927.320312 1859.394531 1911.570312 1843.625 1911.570312 1824.238281 C 1911.570312 1804.851562 1927.339844 1789.082031 1946.730469 1789.082031 L 2051.46875 1789.082031 C 2070.871094 1789.082031 2086.621094 1804.851562 2086.621094 1824.238281 C 2086.621094 1843.625 2070.871094 1859.394531 2051.46875 1859.394531 "/>
<path fill-rule="evenodd" fill="rgb(0%, 0%, 0%)" fill-opacity="1" d="M 2397.851562 1512.980469 C 2378.449219 1512.980469 2362.699219 1497.210938 2362.699219 1477.824219 L 2362.699219 1373.078125 C 2362.699219 1353.679688 2378.46875 1337.929688 2397.851562 1337.929688 C 2417.238281 1337.929688 2433.011719 1353.699219 2433.011719 1373.078125 L 2433.011719 1477.824219 C 2433.03125 1497.230469 2417.261719 1512.980469 2397.851562 1512.980469 "/>
<path fill-rule="evenodd" fill="rgb(0%, 0%, 0%)" fill-opacity="1" d="M 2397.851562 1937.125 C 2335.28125 1937.125 2284.378906 1886.199219 2284.378906 1823.644531 C 2284.378906 1761.09375 2335.300781 1710.167969 2397.851562 1710.167969 C 2460.410156 1710.167969 2511.328125 1761.09375 2511.328125 1823.644531 C 2511.328125 1886.199219 2460.429688 1937.125 2397.851562 1937.125 Z M 2397.851562 1780.480469 C 2374.050781 1780.480469 2354.691406 1799.839844 2354.691406 1823.644531 C 2354.691406 1847.453125 2374.050781 1866.8125 2397.851562 1866.8125 C 2421.660156 1866.8125 2441.019531 1847.453125 2441.019531 1823.644531 C 2441.019531 1799.839844 2421.648438 1780.480469 2397.851562 1780.480469 "/>
<path fill-rule="evenodd" fill="rgb(0%, 0%, 0%)" fill-opacity="1" d="M 2520.339844 2071.476562 C 2508.199219 2071.476562 2496.378906 2065.152344 2489.871094 2053.867188 L 2406.328125 1909.164062 C 2396.640625 1892.371094 2402.371094 1870.863281 2419.191406 1861.144531 C 2435.941406 1851.457031 2457.46875 1857.1875 2467.210938 1874.007812 L 2550.75 2018.714844 C 2560.441406 2035.507812 2554.710938 2057.015625 2537.890625 2066.730469 C 2532.351562 2069.960938 2526.320312 2071.476562 2520.339844 2071.476562 "/>
<path fill-rule="evenodd" fill="rgb(0%, 0%, 0%)" fill-opacity="1" d="M 2397.851562 1780.480469 C 2378.449219 1780.480469 2362.699219 1764.710938 2362.699219 1745.324219 L 2362.699219 1608.4375 C 2362.699219 1589.03125 2378.46875 1573.28125 2397.851562 1573.28125 C 2417.238281 1573.28125 2433.011719 1589.050781 2433.011719 1608.4375 L 2433.011719 1745.324219 C 2433.03125 1764.738281 2417.261719 1780.480469 2397.851562 1780.480469 "/>
</svg>
