<?xml version="1.0" encoding="UTF-8"?>
<svg version="1.1" xmlns="http://www.w3.org/2000/svg" width="512" height="512">
<path d="M0 0 C1.01273957 -0.00384115 2.02547915 -0.00768229 3.0689078 -0.01163983 C4.72734584 -0.01034011 4.72734584 -0.01034011 6.41928768 -0.00901413 C8.18934096 -0.01347081 8.18934096 -0.01347081 9.99515289 -0.01801753 C13.26715361 -0.02518949 16.53912231 -0.02787621 19.81112969 -0.028615 C23.34164429 -0.03046841 26.87214757 -0.03801729 30.4026556 -0.04475021 C38.12192576 -0.05832356 45.84119072 -0.06435696 53.56047082 -0.06876087 C58.38336468 -0.07152551 63.20625654 -0.07576332 68.02914906 -0.08026505 C81.39012081 -0.09245741 94.75109097 -0.10275614 108.11206818 -0.10614014 C109.39443755 -0.10646949 109.39443755 -0.10646949 110.70271337 -0.10680549 C111.55964227 -0.10702377 112.41657118 -0.10724204 113.29946762 -0.10746694 C115.03585438 -0.1079104 116.77224114 -0.10835696 118.50862789 -0.10880661 C119.36993094 -0.10902804 120.23123399 -0.10924947 121.11863714 -0.10947761 C135.06500075 -0.11342296 149.01131203 -0.1308691 162.95765544 -0.15416613 C177.28643099 -0.17790813 191.61518033 -0.19034332 205.94397587 -0.19150805 C213.98484328 -0.19242332 222.02564254 -0.198138 230.06649113 -0.21632767 C236.91569647 -0.23176728 243.76481259 -0.2368265 250.61403204 -0.22858956 C254.10515503 -0.2246964 257.59609857 -0.2255468 261.08719921 -0.23964691 C264.88172357 -0.25238315 268.6757915 -0.24647981 272.47031307 -0.23606491 C273.56032338 -0.24412132 274.65033369 -0.25217772 275.77337462 -0.26047826 C289.0517379 -0.17560641 301.2248953 3.21890451 311.19393063 12.28377151 C322.13990026 24.21336515 323.3411848 37.37632743 323.2298193 52.80208206 C323.22897153 54.45885579 323.22945108 56.11563064 323.23114681 57.77240372 C323.23200237 62.23865258 323.2144484 66.70465636 323.19342494 71.17084861 C323.17458428 75.84998163 323.1729019 80.52912118 323.16934872 85.20828629 C323.16004986 94.05488237 323.1354655 102.90136632 323.10530025 111.74791318 C323.07168878 121.82534885 323.05525331 131.90279006 323.04021394 141.98026788 C323.00891388 162.69738359 322.95619566 183.41439859 322.88924313 204.13142776 C323.78602779 204.12476593 324.68281246 204.1181041 325.60677242 204.11124039 C334.08075066 204.05099264 342.55465638 204.00538405 351.02880001 203.97599125 C355.38488093 203.96037183 359.74078404 203.93920208 364.09676266 203.90510941 C368.30483898 203.87238247 372.51274486 203.85454677 376.72093868 203.84679604 C378.32201982 203.84127636 379.92309222 203.83049798 381.5241003 203.81423759 C394.12334466 203.69142803 402.12788571 204.70606531 411.68221188 213.71736526 C417.87694275 220.49319478 419.03935205 227.61214157 419.02968502 236.48633194 C419.0341417 237.76212702 419.0341417 237.76212702 419.03868842 239.06369573 C419.04737177 241.91855839 419.04888337 244.77337911 419.05037594 247.62825394 C419.05500441 249.67332931 419.06002911 251.71840382 419.0654211 253.76347733 C419.07854525 259.32358446 419.08499022 264.88367953 419.08943176 270.44379973 C419.09236277 273.91804463 419.09646765 277.39228623 419.10093594 280.86652946 C419.11461158 291.73800459 419.12427762 302.60947217 419.12813783 313.4809553 C419.13261737 326.02765516 419.15016023 338.57424602 419.17913842 351.12091273 C419.20076245 360.8204191 419.21084251 370.51989481 419.21217895 380.21942502 C419.21322655 386.01171611 419.21912491 391.80390473 419.23699856 397.59617043 C419.25349137 403.0470782 419.25562878 408.49780662 419.24685955 413.94873047 C419.2460898 415.946142 419.25042369 417.94356322 419.2603178 419.94095039 C419.27306214 422.67471425 419.26714698 425.40784529 419.2567358 428.14160538 C419.26882041 429.31800159 419.26882041 429.31800159 419.28114915 430.51816338 C419.19458091 440.28500307 415.99442632 446.93415945 409.30721188 453.95955276 C403.26421849 459.38750805 396.8541943 461.24028377 388.84749508 461.33675003 C388.13504635 461.34664963 387.42259762 461.35654922 386.68855953 461.36674881 C384.33491489 461.39832277 381.98125007 461.42310495 379.62752438 461.44783401 C377.99512872 461.46840709 376.36273834 461.48940366 374.73035336 461.51080704 C370.43468666 461.5659912 366.13897218 461.61541659 361.84322262 461.66365433 C357.459431 461.71389604 353.07570875 461.76956817 348.6919775 461.82478714 C340.0911247 461.93232401 331.49021385 462.03377891 322.88924313 462.13142776 C322.48847561 463.47878761 322.48847561 463.47878761 322.07961178 464.85336685 C321.72513973 466.02866455 321.37066769 467.20396225 321.00545406 468.41487503 C320.65577572 469.58123993 320.30609737 470.74760483 319.94582272 471.94931412 C317.10839798 480.49482081 310.71111806 487.73666298 302.88924313 492.13142776 C292.76720433 497.03220381 284.3693855 498.28061567 273.23894405 498.27186966 C271.46760914 498.27632634 271.46760914 498.27632634 269.66048968 498.28087306 C266.39074829 498.28803708 263.12103897 498.29073111 259.85129094 498.29147053 C256.3214756 498.29332584 252.79167154 498.3008756 249.26186275 498.30760574 C241.54678391 498.32117056 233.83171028 498.32721098 226.11662149 498.3316164 C221.29589987 498.33438212 216.47518023 498.33862009 211.65445995 498.34312057 C198.29773681 498.35531112 184.94101527 498.36561067 171.58428669 498.36899567 C170.7299089 498.36921523 169.87553111 498.3694348 168.99526308 498.36966102 C167.71069187 498.36998843 167.71069187 498.36998843 166.40016973 498.37032247 C164.66491946 498.37076593 162.92966918 498.37121249 161.19441891 498.37166214 C160.33368136 498.37188357 159.47294381 498.372105 158.5861233 498.37233314 C144.64628979 498.37627922 130.70650861 498.39372841 116.76669531 498.41702166 C102.44240814 498.44076342 88.1181472 498.45319881 73.79384005 498.45436358 C65.75634098 498.45527879 57.7189101 498.46099203 49.68142986 498.4791832 C42.83590853 498.4946224 35.99047646 498.49968222 29.14494102 498.49144509 C25.6558363 498.48755198 22.16691114 498.48840216 18.67782879 498.50250244 C14.88554739 498.5152387 11.09372267 498.50933536 7.30144405 498.49892044 C6.21211586 498.50697685 5.12278767 498.51503325 4.00044954 498.52333379 C-9.74589594 498.43541814 -21.11809218 494.83734011 -31.36075687 485.50642776 C-41.61045475 474.61353022 -43.45868992 461.13665935 -43.30606937 446.77595901 C-43.30323948 445.74830933 -43.30040958 444.72065964 -43.29749393 443.66186905 C-43.28641787 440.42243006 -43.2613377 437.1832813 -43.23575687 433.94392776 C-43.22571079 431.72973909 -43.21658781 429.51554602 -43.20841312 427.30134964 C-43.18651996 421.91127888 -43.15317051 416.52137407 -43.11075687 411.13142776 C-43.90248295 411.15761185 -44.69420902 411.18379593 -45.5099268 411.21077347 C-49.10583405 411.31486899 -52.70142419 411.37979677 -56.29825687 411.44392776 C-57.54413578 411.4858223 -58.79001469 411.52771683 -60.0736475 411.57088089 C-61.27569828 411.58699417 -62.47774906 411.60310745 -63.71622562 411.61970901 C-65.37367802 411.65898514 -65.37367802 411.65898514 -67.0646143 411.69905472 C-71.24685144 410.91972464 -72.639017 409.56560753 -75.11075687 406.13142776 C-75.58666778 403.2561327 -75.7690357 400.98975936 -75.70450687 398.12752151 C-75.70454716 397.36722137 -75.70458744 396.60692123 -75.70462894 395.8235817 C-75.69928574 394.22241792 -75.68175397 392.62125374 -75.65274906 391.02034378 C-75.61082374 388.57283148 -75.61168867 386.12806747 -75.61856937 383.68025589 C-75.60807811 382.12099203 -75.59514034 380.5617423 -75.57950687 379.00252151 C-75.57930546 378.27326965 -75.57910404 377.54401779 -75.57889652 376.79266739 C-75.50733124 373.71502033 -75.27614999 371.44551686 -73.83146 368.70198441 C-66.94469593 362.41615108 -46.19431645 366.13142776 -43.11075687 366.13142776 C-43.11075687 334.78142776 -43.11075687 303.43142776 -43.11075687 271.13142776 C-52.35075687 271.13142776 -61.59075687 271.13142776 -71.11075687 271.13142776 C-75.15065249 267.09153215 -75.5721552 266.58864581 -75.66654301 261.2920723 C-75.65844608 260.5378096 -75.65034916 259.78354691 -75.64200687 259.00642776 C-75.64583378 258.22251663 -75.64966068 257.4386055 -75.65360355 256.63093948 C-75.6563204 254.97679227 -75.64897498 253.32260194 -75.63224125 251.66853714 C-75.61082579 249.13956615 -75.63204785 246.61343562 -75.65763187 244.08455276 C-75.65498855 242.47517151 -75.64986348 240.86579202 -75.64200687 239.25642776 C-75.6501038 238.50216507 -75.65820072 237.74790237 -75.66654301 236.97078323 C-75.5721552 231.67420972 -75.15065249 231.17132338 -71.11075687 227.13142776 C-61.87075687 227.13142776 -52.63075687 227.13142776 -43.11075687 227.13142776 C-43.11075687 195.45142776 -43.11075687 163.77142776 -43.11075687 131.13142776 C-52.02075687 131.13142776 -60.93075687 131.13142776 -70.11075687 131.13142776 C-75.68342786 125.55875677 -75.68342786 125.55875677 -75.75418949 120.33124161 C-75.73779423 119.60401398 -75.72139896 118.87678635 -75.70450687 118.12752151 C-75.70454716 117.36722137 -75.70458744 116.60692123 -75.70462894 115.8235817 C-75.69928574 114.22241792 -75.68175397 112.62125374 -75.65274906 111.02034378 C-75.61082374 108.57283148 -75.61168867 106.12806747 -75.61856937 103.68025589 C-75.60807811 102.12099203 -75.59514034 100.5617423 -75.57950687 99.00252151 C-75.57930546 98.27326965 -75.57910404 97.54401779 -75.57889652 96.79266739 C-75.50648243 93.67851783 -75.28729765 91.45107064 -73.76896 88.70198441 C-70.59411925 85.694954 -67.27654991 86.01354585 -63.13028812 86.03377151 C-61.96690922 86.03699417 -60.80353031 86.04021683 -59.6048975 86.04353714 C-58.38995609 86.05191605 -57.17501469 86.06029495 -55.92325687 86.06892776 C-54.69671391 86.07343948 -53.47017094 86.0779512 -52.20646 86.08259964 C-49.17451019 86.09439711 -46.14265781 86.11085856 -43.11075687 86.13142776 C-43.1151981 85.57734238 -43.11963932 85.02325699 -43.12421513 84.45238113 C-43.16873479 78.64408849 -43.19874121 72.83584495 -43.22062016 67.02742386 C-43.23062854 64.86464339 -43.24423938 62.70187627 -43.26163578 60.53914261 C-43.28611231 57.41622478 -43.29729191 54.29348709 -43.30606937 51.17049026 C-43.31639194 50.21590927 -43.32671452 49.26132828 -43.33734989 48.27782059 C-43.33960089 34.56580588 -39.68799321 22.06746679 -30.09122562 11.87752151 C-21.79563755 4.56365984 -11.08282907 0.01583262 0 0 Z M-21.63810062 27.77595901 C-26.08391275 34.88689989 -26.52926949 41.2344848 -26.40372562 49.41267776 C-26.39948078 50.46676834 -26.39523594 51.52085892 -26.39086246 52.60689163 C-26.37417092 55.94867182 -26.33653596 59.28983217 -26.29825687 62.63142776 C-26.28319775 64.90746068 -26.2695115 67.18350311 -26.25724125 69.45955276 C-26.22429869 75.01705322 -26.17419493 80.57419619 -26.11075687 86.13142776 C-25.40467289 86.1512471 -24.69858891 86.17106644 -23.97110844 86.19148636 C-20.76728694 86.28683192 -17.56410886 86.39647289 -14.36075687 86.50642776 C-12.69399906 86.55283401 -12.69399906 86.55283401 -10.99356937 86.60017776 C-9.9236475 86.63884964 -8.85372562 86.67752151 -7.75138187 86.71736526 C-6.27459965 86.76449661 -6.27459965 86.76449661 -4.76798344 86.81258011 C-2.06897937 87.13644076 -0.3871132 87.66824156 1.88924313 89.13142776 C3.4288419 92.21062531 3.0938943 95.46106424 3.12752438 98.84236526 C3.13559612 99.60691025 3.14366787 100.37145523 3.15198421 101.15916824 C3.16582126 102.77815357 3.17654512 104.39716803 3.18440914 106.01619339 C3.20162922 108.49006342 3.24551664 110.96259923 3.28963375 113.43611526 C3.29976028 115.0090221 3.30827651 116.5819403 3.31502438 118.15486526 C3.33253246 118.89352829 3.35004055 119.63219131 3.36807919 120.39323807 C3.34583775 125.66908923 2.92730806 126.09336283 -1.11075687 130.13142776 C-13.48575687 130.62642776 -13.48575687 130.62642776 -26.11075687 131.13142776 C-26.11075687 162.81142776 -26.11075687 194.49142776 -26.11075687 227.13142776 C-17.53075687 227.46142776 -8.95075687 227.79142776 -0.11075687 228.13142776 C3.19530342 231.43748806 3.24667619 232.4175873 3.30608273 236.88313675 C3.29697369 238.0269783 3.29697369 238.0269783 3.28768063 239.19392776 C3.2905508 239.98162552 3.29342098 240.76932327 3.29637814 241.58089066 C3.29841834 243.24520461 3.29289145 244.90954257 3.28035641 246.57381058 C3.26430122 249.12220723 3.28020557 251.66901797 3.29939938 254.21736526 C3.29741694 255.83455627 3.29357324 257.45174628 3.28768063 259.06892776 C3.29678967 260.21276932 3.29678967 260.21276932 3.30608273 261.37971878 C3.24667619 265.84526823 3.19530342 266.82536747 -0.11075687 270.13142776 C-8.69075687 270.46142776 -17.27075687 270.79142776 -26.11075687 271.13142776 C-26.11075687 302.48142776 -26.11075687 333.83142776 -26.11075687 366.13142776 C-18.52075687 366.46142776 -10.93075687 366.79142776 -3.11075687 367.13142776 C1.88924313 369.13142776 1.88924313 369.13142776 2.88924313 371.13142776 C3.0244502 373.71061924 3.10185611 376.26157633 3.12752438 378.84236526 C3.13559612 379.60691025 3.14366787 380.37145523 3.15198421 381.15916824 C3.16582126 382.77815357 3.17654512 384.39716803 3.18440914 386.01619339 C3.20162922 388.49006342 3.24551664 390.96259923 3.28963375 393.43611526 C3.29976028 395.0090221 3.30827651 396.5819403 3.31502438 398.15486526 C3.33253246 398.89352829 3.35004055 399.63219131 3.36807919 400.39323807 C3.35396204 403.74194194 3.1207107 405.78842964 1.22884274 408.59187698 C-1.68170292 410.50713326 -3.49913743 410.66996614 -6.97013187 410.74080276 C-8.64269047 410.78914261 -8.64269047 410.78914261 -10.34903812 410.83845901 C-11.50790531 410.8526387 -12.6667725 410.86681839 -13.86075687 410.88142776 C-15.62226078 410.92590042 -15.62226078 410.92590042 -17.41935062 410.97127151 C-20.31655509 411.04193504 -23.21295642 411.09465043 -26.11075687 411.13142776 C-26.18710558 417.96322306 -26.23948187 424.79490744 -26.2755518 431.62703323 C-26.29059599 433.94901517 -26.31103632 436.27096888 -26.33707523 438.59285355 C-26.37365033 441.93911599 -26.39052742 445.28500121 -26.40372562 448.63142776 C-26.41920948 449.66195267 -26.43469334 450.69247757 -26.4506464 451.7542305 C-26.45271753 460.71551417 -24.62877388 467.57414991 -18.26028538 474.17101729 C-11.04318527 480.7531485 -3.33140898 481.86205992 6.10994625 481.76634598 C7.90077507 481.77804591 7.90077507 481.77804591 9.72778225 481.7899822 C13.01546196 481.80638793 16.30220665 481.80060337 19.58986187 481.78505111 C23.1455148 481.77368555 26.70104636 481.79122593 30.25667477 481.80495071 C37.21175184 481.82713251 44.16655845 481.82240466 51.12164593 481.80788751 C56.77637856 481.79657526 62.43103562 481.79507293 68.08577633 481.80050659 C68.89193968 481.80127276 69.69810304 481.80203892 70.52869558 481.8028283 C72.16662695 481.804427 73.8045583 481.80604807 75.44248962 481.80769126 C90.78549658 481.82193394 106.12835394 481.80557935 121.47133636 481.77868943 C134.62373434 481.75635197 147.77591163 481.76023251 160.92830563 481.78328323 C176.21805355 481.81006748 191.50767051 481.82056078 206.79743862 481.80522192 C208.4291957 481.80362924 210.0609528 481.80205739 211.69270992 481.80050659 C212.49547312 481.79973521 213.29823632 481.79896384 214.12532568 481.79816908 C219.77037779 481.79385995 225.41534651 481.80112164 231.0603857 481.81290436 C237.94400971 481.82695711 244.82734881 481.82307142 251.71094036 481.79650064 C255.22016986 481.78339942 258.72892508 481.77814599 262.2381506 481.7947464 C266.0487515 481.80843589 269.85802347 481.79124103 273.66854 481.76634598 C274.76874729 481.77749959 275.86895458 481.78865319 277.00250149 481.80014479 C285.5215965 481.69239547 292.00339066 479.41725889 298.54549313 473.88533401 C299.15393063 473.16216995 299.76236813 472.43900589 300.38924313 471.69392776 C301.01830563 470.97334183 301.64736813 470.25275589 302.29549313 469.51033401 C304.1012244 466.81501455 304.91629595 464.21251509 305.88924313 461.13142776 C304.96962292 461.12778214 304.05000271 461.12413651 303.10251522 461.1203804 C294.40786387 461.08240971 285.71358417 461.0254542 277.01919556 460.94752502 C272.55000118 460.90812709 268.08100157 460.87590115 263.61165524 460.86043167 C259.29310806 460.84521416 254.97509661 460.81067923 250.65678883 460.76311874 C249.01474271 460.74835721 247.37262009 460.74038977 245.73050785 460.73954391 C233.67789156 460.72709924 224.75235544 459.52816028 215.61580563 451.06502151 C209.74372276 444.48882011 208.74009425 437.30924337 208.74207211 428.78325272 C208.73839542 427.93342823 208.73471873 427.08360375 208.73093063 426.20802701 C208.71990256 423.35550214 208.71605142 420.50301372 208.71224117 417.65047073 C208.70597582 415.60701761 208.69932896 413.56356563 208.69232845 411.5201149 C208.67129291 404.80462308 208.66092605 398.08913105 208.65096188 391.37361526 C208.64691403 389.06083158 208.6427971 386.74804802 208.63861179 384.43526459 C208.61956068 373.5685949 208.60532988 362.701932 208.59699982 351.83524883 C208.58722946 339.29701683 208.56091471 326.75896146 208.52049893 314.2207917 C208.49032361 304.52636595 208.47552956 294.8319908 208.47221881 285.137519 C208.46986982 279.34907134 208.46092877 273.56081239 208.43575764 267.77241516 C208.41244752 262.32392915 208.40825565 256.87575573 208.41851902 251.42723274 C208.41901378 249.43184811 208.41271098 247.43644794 208.39896297 245.44111061 C208.31382794 232.34811671 208.59306603 221.83860623 218.02205563 211.82283401 C224.16383516 206.25925548 230.16268566 204.99368245 238.22811031 204.9261055 C238.96021221 204.9162059 239.69231411 204.9063063 240.44660091 204.89610672 C242.85974073 204.86458956 245.27290022 204.83977312 247.68611813 204.81502151 C249.36192484 204.79444353 251.03772647 204.77344683 252.71352291 204.75204849 C257.119324 204.69691502 261.52517125 204.64746734 265.93105221 204.5992012 C270.42887628 204.5489224 274.9266335 204.49326966 279.42439938 204.43806839 C288.24595682 204.33059356 297.06757236 204.22912497 305.88924313 204.13142776 C305.98273225 182.3651559 306.05324482 160.59891719 306.09649181 138.8324852 C306.11710691 128.72568419 306.14520744 118.61900802 306.19100094 108.51228714 C306.23090086 99.7020813 306.25668359 90.89196588 306.26559711 82.08167219 C306.2708065 77.41772866 306.28302858 72.75404379 306.31216335 68.09018326 C306.33938232 63.69727006 306.34767506 59.30472124 306.34167385 54.91173172 C306.34277119 53.30251457 306.35068653 51.69328481 306.36606503 50.08414078 C306.45252829 40.56742591 306.09272898 33.81789525 300.28377438 25.95955276 C299.76170406 25.43877151 299.23963375 24.91799026 298.70174313 24.38142776 C298.19256344 23.85033401 297.68338375 23.31924026 297.15877438 22.77205276 C289.73813459 17.40773484 282.7674341 16.54968989 273.78879452 16.61676407 C272.59576306 16.60981854 271.40273161 16.60287301 270.17354769 16.59571701 C266.88373305 16.58065022 263.59450418 16.58336362 260.30469 16.59387004 C256.74834722 16.60088732 253.19209512 16.58484504 249.63577938 16.57187271 C242.67726268 16.55026957 235.71890975 16.5503501 228.76037056 16.55849826 C223.10276005 16.56480706 217.44519718 16.56365316 211.78758717 16.55722618 C210.98128832 16.55632453 210.17498948 16.55542287 209.34425734 16.55449389 C207.70608444 16.55264263 206.06791156 16.55078006 204.42973869 16.54890633 C189.08008518 16.5323407 173.73052367 16.54103652 158.3808757 16.55789191 C144.34929401 16.57258757 130.31792648 16.55796022 116.28637237 16.52912175 C101.86479754 16.4997033 87.44332148 16.48876261 73.02171797 16.49830395 C71.38938361 16.49932646 69.75704924 16.50032107 68.12471485 16.50128746 C67.32165666 16.50176385 66.51859848 16.50224024 65.69120519 16.50273107 C60.04365385 16.50489198 54.39619635 16.49510835 48.74866581 16.48051643 C41.86136905 16.46296886 34.97434524 16.46314503 28.08705909 16.48586809 C24.57580351 16.49698855 21.06502838 16.50022355 17.55379391 16.48156738 C13.74096388 16.46563223 9.92944382 16.48059558 6.11667538 16.50323868 C5.01578597 16.49140295 3.91489656 16.47956722 2.78064686 16.46737283 C-7.51548582 16.59136459 -14.88194468 19.99060978 -21.63810062 27.77595901 Z M-59.11075687 103.13142776 C-59.11075687 106.76142776 -59.11075687 110.39142776 -59.11075687 114.13142776 C-43.60075687 114.13142776 -28.09075687 114.13142776 -12.11075687 114.13142776 C-12.11075687 110.50142776 -12.11075687 106.87142776 -12.11075687 103.13142776 C-27.62075687 103.13142776 -43.13075687 103.13142776 -59.11075687 103.13142776 Z M227.88924313 224.13142776 C223.66461474 229.62344466 223.74103476 235.46674301 223.74880123 242.15774918 C223.74583011 242.96083659 223.74285899 243.763924 223.73979783 244.5913474 C223.73113334 247.27960419 223.7296045 249.96781633 223.72811031 252.65608597 C223.72348059 254.58470632 223.71845572 256.51332575 223.71306515 258.44194412 C223.69995505 263.67962111 223.69349904 268.9172853 223.68905449 274.15497613 C223.68612186 277.42803955 223.68201672 280.70109948 223.67755032 283.97416115 C223.6638798 294.21718813 223.65421064 304.46020713 223.65034842 314.7032426 C223.64586694 326.52321879 223.62831294 338.34307939 223.59934783 350.16302043 C223.57772842 359.3028758 223.56764402 368.44269865 223.56630731 377.58257931 C223.56525958 383.04003704 223.5593584 388.49738603 223.54148769 393.95481682 C223.52500234 399.08891862 223.52285382 404.22283 223.5316267 409.35694885 C223.53239679 411.23867745 223.52805808 413.1204163 223.51816845 415.00211906 C223.50543503 417.57635693 223.51133315 420.14992171 223.52175045 422.72415543 C223.51369405 423.46395891 223.50563764 424.20376239 223.4973371 424.96598417 C223.55016188 430.56982155 224.4257881 436.40373061 228.30577636 440.69990522 C232.84683956 444.62598566 236.25292008 445.25655682 242.08730221 445.27859879 C244.03460484 445.28933174 244.03460484 445.28933174 246.02124691 445.30028152 C247.46324801 445.30312177 248.90524937 445.3058335 250.34725094 445.30842972 C251.86341158 445.31469511 253.37957069 445.32134197 254.89572811 445.32834244 C259.87793059 445.3493765 264.86013334 445.35974428 269.84236813 445.36970901 C271.55808433 445.37375683 273.27380038 445.37787376 274.98951626 445.3820591 C283.05034885 445.40110942 291.11117229 445.41534072 299.17202306 445.42367107 C308.47401372 445.43344299 317.77576639 445.4597619 327.0776732 445.50017196 C334.26929305 445.53034121 341.46084471 445.54514071 348.65252662 445.54845208 C352.94694531 445.55080168 357.24110971 445.55975021 361.53546047 445.58491325 C365.5771461 445.60821323 369.61841035 445.61241964 373.66014576 445.60215187 C375.14077501 445.60165686 376.62142513 445.60796711 378.1019907 445.62170792 C388.73296056 445.83002695 388.73296056 445.83002695 397.88924313 441.13142776 C402.99430503 435.75767839 403.03787273 431.30412366 403.02968502 424.14270401 C403.03265614 423.33159835 403.03562726 422.52049269 403.03868842 421.68480808 C403.04736881 418.96347231 403.04888311 416.24218058 403.05037594 413.52083206 C403.05500455 411.57103252 403.06002927 409.62123389 403.0654211 407.67143631 C403.0785423 402.37178575 403.08498943 397.07214785 403.08943176 391.77248359 C403.09236273 388.46174369 403.09646757 385.15100725 403.10093594 381.84026909 C403.11460966 371.48244451 403.12427713 361.12462784 403.12813783 350.76679486 C403.13261946 338.80869796 403.15017283 326.85071532 403.17913842 314.89265317 C403.20074965 305.65007438 403.2108418 296.40752775 403.21217895 287.16492397 C403.2132273 281.64432656 403.2191418 276.12383658 403.23699856 270.60326576 C403.25346967 265.4100851 403.25563935 260.21709273 403.24685955 255.02389526 C403.24608868 253.11917174 403.2504384 251.21443813 403.2603178 249.30974007 C403.27302664 246.70663673 403.26716638 244.10420134 403.2567358 241.50110245 C403.26479221 240.74992211 403.27284861 239.99874176 403.28114915 239.22479838 C403.22836723 233.58071398 402.16657223 228.71587758 398.35408688 224.38924026 C393.65960459 220.90739918 391.56120736 220.00596516 385.73551083 219.98425674 C384.42185543 219.97710144 383.10820004 219.96994614 381.7547369 219.96257401 C380.29021382 219.95973357 378.82569049 219.95702186 377.36116695 219.95442581 C375.82544964 219.94816225 374.28973386 219.94151555 372.75401974 219.93451309 C368.57405468 219.91709112 364.39410108 219.90654763 360.21410871 219.89830756 C357.60256485 219.89315892 354.99102456 219.88708306 352.37948322 219.88079643 C344.20865636 219.86173922 336.03783855 219.84751039 327.86699373 219.83918446 C318.43538327 219.82941537 309.00400772 219.80310671 299.57248002 219.76268357 C292.28321662 219.73251464 284.9940205 219.71771477 277.70469588 219.71440345 C273.35101896 219.71205344 268.99759283 219.7030999 264.64398289 219.67794228 C260.54567869 219.65464345 256.44779005 219.65043546 252.34943676 219.66070366 C250.84784531 219.66119873 249.3462333 219.65488675 247.84470463 219.64114761 C237.16989513 219.41999335 237.16989513 219.41999335 227.88924313 224.13142776 Z M-59.11075687 243.13142776 C-59.11075687 247.09142776 -59.11075687 251.05142776 -59.11075687 255.13142776 C-43.60075687 255.13142776 -28.09075687 255.13142776 -12.11075687 255.13142776 C-12.11075687 251.17142776 -12.11075687 247.21142776 -12.11075687 243.13142776 C-27.62075687 243.13142776 -43.13075687 243.13142776 -59.11075687 243.13142776 Z M-59.11075687 383.13142776 C-59.11075687 386.76142776 -59.11075687 390.39142776 -59.11075687 394.13142776 C-43.60075687 394.13142776 -28.09075687 394.13142776 -12.11075687 394.13142776 C-12.11075687 390.50142776 -12.11075687 386.87142776 -12.11075687 383.13142776 C-27.62075687 383.13142776 -43.13075687 383.13142776 -59.11075687 383.13142776 Z " fill="#000000" transform="translate(84.11075687408447,6.868572235107422)"/>
<path d="M0 0 C12.549684 -0.04831614 25.09678632 0.01404957 37.6457901 0.1452713 C42.59786028 0.19608107 47.54976033 0.22126118 52.50203609 0.24170208 C56.37712474 0.26196716 60.25189555 0.29976078 64.12679482 0.34256172 C65.95718243 0.359818 67.78764402 0.37057749 69.61810875 0.37450981 C72.13737202 0.38155551 74.65515229 0.41333134 77.17411041 0.45142365 C78.28550385 0.44623466 78.28550385 0.44623466 79.41934967 0.44094086 C82.78819911 0.51660409 84.70621781 0.77958955 87.45207977 2.7983017 C89.83735222 6.15930953 90.14833369 9.2024391 90.1576767 13.25695038 C90.16407417 14.51648277 90.16407417 14.51648277 90.17060089 15.80146027 C90.17014771 16.71429779 90.16969452 17.62713531 90.1692276 18.56763458 C90.17258621 19.53554428 90.17594482 20.50345398 90.17940521 21.50069427 C90.18890716 24.70148755 90.19085787 27.90222847 90.19193268 31.10303497 C90.19514549 33.32736482 90.19850958 35.55169446 90.20201874 37.77602386 C90.20800791 42.43898763 90.20985882 47.10193287 90.20926666 51.76490021 C90.20916499 57.74152912 90.22282386 63.71803938 90.24003887 69.69464016 C90.25115327 74.28855181 90.25318605 78.8824347 90.25265694 83.47635841 C90.25383764 85.67997967 90.25826447 87.88360166 90.2659893 90.0872097 C90.27577889 93.16800905 90.27291526 96.24854989 90.26688385 99.32935333 C90.27250336 100.24016663 90.27812286 101.15097992 90.28391266 102.08939362 C90.25644026 107.60751992 90.12085242 111.91630273 86.02396393 116.01319122 C82.94830206 117.06658837 80.06450473 117.14095994 76.83110809 117.14690399 C75.25604492 117.15330147 75.25604492 117.15330147 73.64916229 117.15982819 C71.92925331 117.15914841 71.92925331 117.15914841 70.17459869 117.1584549 C68.35697525 117.16349281 68.35697525 117.16349281 66.50263214 117.16863251 C63.18237208 117.17650387 59.86217454 117.17981 56.54190946 117.18044829 C54.46673582 117.18115951 52.39156872 117.18329515 50.31639671 117.18594551 C43.07462778 117.1951937 35.83287724 117.19928099 28.5911026 117.19849396 C21.843939 117.19789304 15.09685533 117.20844889 8.34971195 117.22423762 C2.55341897 117.23731731 -3.24284791 117.24267769 -9.03915554 117.24203855 C-12.49951778 117.24178372 -15.95980896 117.24462659 -19.42015648 117.2552166 C-23.27922815 117.26670483 -27.13819031 117.26214812 -30.99727631 117.25611115 C-32.14185806 117.26173065 -33.28643982 117.26735016 -34.46570587 117.27313995 C-35.51856781 117.26894547 -36.57142975 117.26475098 -37.65619659 117.26042938 C-39.02417971 117.26124653 -39.02417971 117.26124653 -40.41979885 117.26208019 C-44.39959882 116.87458552 -47.14342113 115.84580616 -49.97603607 113.01319122 C-50.23330498 111.09159279 -50.23330498 111.09159279 -50.24346161 108.69950104 C-50.25199158 107.79380371 -50.26052155 106.88810638 -50.26931 105.95496368 C-50.26840363 104.95855865 -50.26749725 103.96215363 -50.26656342 102.9355545 C-50.27328064 101.888302 -50.27999786 100.8410495 -50.28691864 99.76206207 C-50.30598077 96.28582824 -50.30982704 92.80978663 -50.31197357 89.33350372 C-50.31839597 86.92455718 -50.3251239 84.51561143 -50.33214569 82.10666656 C-50.34413917 77.05091289 -50.3478244 71.99522766 -50.34664154 66.93946075 C-50.34643828 60.45360885 -50.3737391 53.96819477 -50.40818596 47.48244667 C-50.43039869 42.50510382 -50.4344808 37.52786724 -50.43342209 32.55047989 C-50.43578659 30.15901811 -50.44465753 27.76755377 -50.46008682 25.37614059 C-50.47963179 22.0336523 -50.47395335 18.69211993 -50.46187592 15.349617 C-50.47311493 14.35726044 -50.48435394 13.36490387 -50.49593353 12.34247589 C-50.43572509 5.80172855 -50.43572509 5.80172855 -48.45594025 2.40566254 C-44.96109941 0.44330219 -41.72005138 0.40650212 -37.81172943 0.39722443 C-36.9898646 0.38009336 -36.16799976 0.3629623 -35.32122993 0.34531212 C-32.59019968 0.29419472 -29.85979735 0.27225186 -27.12837982 0.25147247 C-25.19696152 0.22349627 -23.26555961 0.19436653 -21.33417511 0.16414642 C-14.22293959 0.06434352 -7.11180105 0.03152292 0 0 Z M-33.97603607 17.01319122 C-33.97603607 28.23319122 -33.97603607 39.45319122 -33.97603607 51.01319122 C-25.39603607 51.01319122 -16.81603607 51.01319122 -7.97603607 51.01319122 C-7.97603607 39.79319122 -7.97603607 28.57319122 -7.97603607 17.01319122 C-16.55603607 17.01319122 -25.13603607 17.01319122 -33.97603607 17.01319122 Z M9.02396393 17.01319122 C9.02396393 28.23319122 9.02396393 39.45319122 9.02396393 51.01319122 C15.95396393 51.01319122 22.88396393 51.01319122 30.02396393 51.01319122 C30.02396393 39.79319122 30.02396393 28.57319122 30.02396393 17.01319122 C23.09396393 17.01319122 16.16396393 17.01319122 9.02396393 17.01319122 Z M47.02396393 17.01319122 C47.02396393 28.23319122 47.02396393 39.45319122 47.02396393 51.01319122 C55.60396393 51.01319122 64.18396393 51.01319122 73.02396393 51.01319122 C73.02396393 39.79319122 73.02396393 28.57319122 73.02396393 17.01319122 C64.44396393 17.01319122 55.86396393 17.01319122 47.02396393 17.01319122 Z M-33.97603607 68.01319122 C-33.97603607 78.57319122 -33.97603607 89.13319122 -33.97603607 100.01319122 C-25.39603607 100.01319122 -16.81603607 100.01319122 -7.97603607 100.01319122 C-7.97603607 89.45319122 -7.97603607 78.89319122 -7.97603607 68.01319122 C-16.55603607 68.01319122 -25.13603607 68.01319122 -33.97603607 68.01319122 Z M9.02396393 68.01319122 C9.02396393 78.57319122 9.02396393 89.13319122 9.02396393 100.01319122 C15.95396393 100.01319122 22.88396393 100.01319122 30.02396393 100.01319122 C30.02396393 89.45319122 30.02396393 78.89319122 30.02396393 68.01319122 C23.09396393 68.01319122 16.16396393 68.01319122 9.02396393 68.01319122 Z M47.02396393 68.01319122 C47.02396393 78.57319122 47.02396393 89.13319122 47.02396393 100.01319122 C55.60396393 100.01319122 64.18396393 100.01319122 73.02396393 100.01319122 C73.02396393 89.45319122 73.02396393 78.89319122 73.02396393 68.01319122 C64.44396393 68.01319122 55.86396393 68.01319122 47.02396393 68.01319122 Z " fill="#000000" transform="translate(377.97603607177734,315.98680877685547)"/>
<path d="M0 0 C1.27202271 -0.0071553 2.54404541 -0.01431061 3.85461426 -0.02168274 C7.33614707 -0.04017603 10.81691277 -0.02727306 14.29841352 -0.00759244 C17.94406332 0.0088095 21.58966512 -0.0000208 25.2353363 -0.00511169 C31.35607135 -0.00963039 37.47650056 0.00622436 43.59716797 0.03417969 C50.67226706 0.0662452 57.74681506 0.06620979 64.82195336 0.04896492 C71.63130574 0.03309974 78.44045618 0.0398323 85.24979973 0.05690193 C88.1464876 0.06377222 91.04301358 0.06274036 93.93969917 0.05535698 C97.98354832 0.04627119 102.02654631 0.07022953 106.0703125 0.09765625 C107.87437813 0.08786743 107.87437813 0.08786743 109.71488953 0.07788086 C110.81541656 0.09060532 111.9159436 0.10332977 113.04981995 0.11643982 C114.00567773 0.11924674 114.96153551 0.12205366 115.94635868 0.12494564 C119.20227499 0.77785459 120.39240951 2.10135598 122.47045898 4.63110352 C123.99643651 8.28710184 123.63227879 12.37480776 123.63842773 16.28344727 C123.64175613 17.02059464 123.64508453 17.757742 123.64851379 18.51722717 C123.65356571 20.07300189 123.65592266 21.6287874 123.65576172 23.18457031 C123.6579482 25.5569045 123.67612184 27.92877339 123.69506836 30.30102539 C123.6980027 31.81599777 123.69998722 33.33097234 123.70092773 34.84594727 C123.70811325 35.55130112 123.71529877 36.25665497 123.72270203 36.98338318 C123.7043337 40.96804717 123.43605254 44.12985359 121.47045898 47.63110352 C118.36496241 50.50843391 116.27669067 51.00904511 112.08778381 51.0255127 C110.99567093 51.03686249 109.90355804 51.04821228 108.77835083 51.05990601 C107.58499115 51.0569754 106.39163147 51.0540448 105.16210938 51.05102539 C103.90159256 51.05949493 102.64107574 51.06796448 101.34236145 51.07669067 C97.88776834 51.0989036 94.43341377 51.10183752 90.97875905 51.09994316 C88.09354201 51.09982345 85.20837549 51.10838766 82.32317251 51.11672068 C75.51586977 51.13595379 68.70868966 51.13883887 61.90136719 51.13208008 C54.88136848 51.12543834 47.86189509 51.14830859 40.84200293 51.18539381 C34.81213925 51.21609164 28.78244455 51.22745081 22.75250429 51.223557 C19.15228129 51.22148961 15.55246712 51.22696631 11.95231819 51.25144958 C7.93725942 51.27785278 3.92330982 51.26398854 -0.09179688 51.24633789 C-1.28313232 51.25960114 -2.47446777 51.27286438 -3.7019043 51.28652954 C-11.71493118 51.20450037 -11.71493118 51.20450037 -15.76646423 48.35266113 C-17.4636056 45.73288413 -18.15874382 44.52826085 -18.17651367 41.47094727 C-18.19227448 40.6866333 -18.20803528 39.90231934 -18.22427368 39.09423828 C-18.21415253 38.26077881 -18.20403137 37.42731934 -18.19360352 36.56860352 C-18.19838715 35.69969482 -18.20317078 34.83078613 -18.20809937 33.93554688 C-18.21149326 32.10325301 -18.20232646 30.27089817 -18.18139648 28.4387207 C-18.15462125 25.63949133 -18.18115905 22.84427118 -18.21313477 20.04516602 C-18.20983057 18.26130303 -18.20342414 16.47744253 -18.19360352 14.69360352 C-18.20372467 13.86014404 -18.21384583 13.02668457 -18.22427368 12.16796875 C-18.20851288 11.38365479 -18.19275208 10.59934082 -18.17651367 9.79125977 C-18.17253571 9.10684814 -18.16855774 8.42243652 -18.16445923 7.71728516 C-15.48370121 -1.09101178 -7.59584121 -0.07396778 0 0 Z M-1.52954102 16.63110352 C-1.52954102 22.24110352 -1.52954102 27.85110352 -1.52954102 33.63110352 C34.11045898 33.63110352 69.75045898 33.63110352 106.47045898 33.63110352 C106.47045898 28.02110352 106.47045898 22.41110352 106.47045898 16.63110352 C70.83045898 16.63110352 35.19045898 16.63110352 -1.52954102 16.63110352 Z " fill="#000000" transform="translate(344.529541015625,246.368896484375)"/>
<path d="M0 0 C2.5 1.5625 2.5 1.5625 4 4 C4.25 7.75 4.25 7.75 4 11 C4.88751953 10.94779297 4.88751953 10.94779297 5.79296875 10.89453125 C10.73137167 10.72535268 14.03564222 10.71524641 18 14 C22.29809768 18.89505569 23.33936705 21.43890377 23 28 C21.98263229 30.76142665 21.63829259 31.68085371 19 33 C16.94140625 33.203125 16.94140625 33.203125 14.5625 33.25 C13.78003906 33.27578125 12.99757812 33.3015625 12.19140625 33.328125 C10 33 10 33 8.21484375 31.671875 C7 30 7 30 7 27 C-0.92 27 -8.84 27 -17 27 C-17 29.64 -17 32.28 -17 35 C-15.68394775 34.9685791 -15.68394775 34.9685791 -14.34130859 34.93652344 C-11.06483317 34.868074 -7.78912488 34.81806949 -4.51220703 34.78027344 C-3.09802205 34.76024157 -1.68391903 34.73300752 -0.27001953 34.69824219 C1.77071419 34.64934511 3.8103469 34.62694877 5.8515625 34.609375 C7.07697754 34.58842773 8.30239258 34.56748047 9.56494141 34.54589844 C14.83431326 35.24248917 17.8689821 37.73536768 21.34765625 41.625 C23.58457499 46.19402552 23.55184397 49.9836193 23.4375 55 C23.44458984 55.8765625 23.45167969 56.753125 23.45898438 57.65625 C23.40828277 62.83561418 22.8926729 66.53642579 20 71 C16.03010272 74.58259023 13.68217138 76.13831673 8.375 76.0625 C7.55773437 76.05347656 6.74046875 76.04445313 5.8984375 76.03515625 C5.27195313 76.02355469 4.64546875 76.01195312 4 76 C4.103125 77.0725 4.20625 78.145 4.3125 79.25 C4 83 4 83 1.875 85.4375 C-1.51598543 87.28042686 -3.19847951 87.63358675 -7 87 C-9.875 85.4375 -9.875 85.4375 -12 83 C-12.3125 79.25 -12.3125 79.25 -12 76 C-12.79664063 76.04640625 -13.59328125 76.0928125 -14.4140625 76.140625 C-22.17300084 76.40491974 -26.03111086 75.69517265 -31.8125 70.3125 C-33.6385182 66.75656982 -34.14732247 62.984722 -34 59 C-32.90753301 56.16562711 -32.41035274 55.23937243 -29.75 53.6875 C-26.34000471 52.83500118 -24.35381519 52.92963345 -21 54 C-20.52175781 54.82757813 -20.04351562 55.65515625 -19.55078125 56.5078125 C-15.44897937 60.51539228 -10.76870569 59.78239797 -5.25 59.8125 C-4.17105469 59.83763672 -3.09210938 59.86277344 -1.98046875 59.88867188 C0.68005377 59.94753299 3.33893151 59.9838204 6 60 C6 57.03 6 54.06 6 51 C5.11739502 51.01571045 4.23479004 51.0314209 3.32543945 51.04760742 C0.03599114 51.09887998 -3.25302961 51.13641917 -6.54272461 51.16479492 C-7.96369141 51.1798376 -9.38461213 51.20027704 -10.80541992 51.22631836 C-12.85346886 51.26290347 -14.9009015 51.27977097 -16.94921875 51.29296875 C-18.79519653 51.31653442 -18.79519653 51.31653442 -20.6784668 51.34057617 C-25.54817232 50.84125686 -28.02346174 49.08504251 -31.25 45.5 C-34.49898992 40.85858583 -34.21521639 36.62678714 -34.25 31.1875 C-34.270625 30.39279297 -34.29125 29.59808594 -34.3125 28.77929688 C-34.35337626 22.60187265 -33.13579113 18.46950849 -29 13.6875 C-25.45118234 10.6931851 -22.2753506 10.88951236 -17.8125 10.9375 C-16.18248047 10.95103516 -16.18248047 10.95103516 -14.51953125 10.96484375 C-13.68808594 10.97644531 -12.85664063 10.98804687 -12 11 C-12.0825 9.9275 -12.165 8.855 -12.25 7.75 C-12 4 -12 4 -10.5 1.5625 C-6.97873756 -0.63828902 -4.04560357 -0.80414661 0 0 Z " fill="#000000" transform="translate(142,64)"/>
<path d="M0 0 C1.65285255 -0.01268921 1.65285255 -0.01268921 3.33909607 -0.02563477 C4.53821121 -0.01956207 5.73732635 -0.01348938 6.97277832 -0.00723267 C8.24319473 -0.01248962 9.51361115 -0.01774658 10.82252502 -0.02316284 C14.29981416 -0.03681796 17.77683571 -0.03154542 21.25412941 -0.02202559 C24.89664037 -0.01441957 28.53912874 -0.02147721 32.18164062 -0.02618408 C38.29809677 -0.0316389 44.41444416 -0.02445726 50.53088379 -0.01016235 C57.59792849 0.00616371 64.66471351 0.000875 71.73175192 -0.01564157 C77.80409003 -0.02926429 83.87635006 -0.03117228 89.94869852 -0.02332556 C93.57338116 -0.01865334 97.19794182 -0.01801171 100.82261658 -0.02793503 C104.86371184 -0.03822599 108.90436085 -0.02395455 112.94543457 -0.00723267 C114.74410728 -0.01634171 114.74410728 -0.01634171 116.57911682 -0.02563477 C117.68101852 -0.01717529 118.78292023 -0.00871582 119.91821289 0 C121.35061687 0.00169662 121.35061687 0.00169662 122.81195831 0.00342751 C125.98294203 0.45565782 127.87671228 1.51518246 130.45910645 3.38095093 C131.98757306 6.43788415 131.6915309 9.0107964 131.45910645 12.38095093 C129.69895514 15.56598663 128.96019728 16.21392065 125.45910645 17.38095093 C123.69433334 17.47755031 121.92612832 17.51589789 120.15872192 17.52139282 C118.50999336 17.52995804 118.50999336 17.52995804 116.82795715 17.53869629 C115.62165146 17.53981415 114.41534576 17.54093201 113.17248535 17.54208374 C111.90236099 17.54704865 110.63223663 17.55201355 109.32362366 17.55712891 C105.83804008 17.57024423 102.35247575 17.57669605 98.86687136 17.58113956 C96.68901975 17.58407142 94.51117339 17.58817642 92.33332443 17.59264374 C85.51869978 17.60631578 78.70408714 17.61598413 71.88944972 17.61984563 C64.02394369 17.62432718 56.15861138 17.64188069 48.29315817 17.67084622 C42.21238684 17.69246197 36.13166439 17.70254983 30.05085504 17.70388675 C26.41941103 17.70493477 22.78813038 17.71084189 19.15672684 17.72870636 C15.1058828 17.74824691 11.05540253 17.74389854 7.0045166 17.73739624 C5.80225937 17.74661102 4.60000214 17.75582581 3.36131287 17.76531982 C2.25652084 17.75975067 1.15172882 17.75418152 0.01345825 17.7484436 C-0.94407537 17.74991016 -1.901609 17.75137672 -2.8881588 17.75288773 C-6.06574353 17.30736233 -7.9549569 16.25097006 -10.54089355 14.38095093 C-11.75165724 11.95942355 -11.6185707 10.62672005 -11.41589355 7.94345093 C-11.37206543 7.16098999 -11.3282373 6.37852905 -11.28308105 5.57235718 C-9.60824614 0.6271867 -4.66623486 0.00552694 0 0 Z " fill="#000000" transform="translate(209.5408935546875,158.61904907226563)"/>
<path d="M0 0 C1.31089096 -0.0071553 2.62178192 -0.01431061 3.97239685 -0.02168274 C7.5655467 -0.04020242 11.15795484 -0.02725552 14.75107384 -0.00759244 C18.51150758 0.00879117 22.27189423 -0.00001842 26.03234863 -0.00511169 C32.3473699 -0.00963301 38.662095 0.00623922 44.97705078 0.03417969 C52.27763457 0.06623203 59.5776842 0.06621616 66.87830591 0.04896492 C73.90176242 0.03310005 80.92502313 0.03983304 87.94847107 0.05690193 C90.93726311 0.06377386 93.92589827 0.06273862 96.91468811 0.05535698 C101.08795843 0.04627197 105.26040382 0.07022879 109.43359375 0.09765625 C111.29612038 0.08786743 111.29612038 0.08786743 113.1962738 0.07788086 C114.33190262 0.09060532 115.46753143 0.10332977 116.63757324 0.11643982 C117.62422722 0.11924674 118.6108812 0.12205366 119.62743378 0.12494564 C122.96878775 0.77809955 124.15675215 1.96491118 126.21679688 4.63110352 C126.89308029 8.76394663 126.7680907 10.78205036 124.47521973 14.31332397 C119.4256792 17.90516035 114.57236306 17.32838066 108.51953125 17.27807617 C106.58464592 17.29121857 106.58464592 17.29121857 104.610672 17.30462646 C101.07951349 17.32738807 97.54908675 17.31859726 94.01791573 17.30273104 C90.31933777 17.29005539 86.62082168 17.30181675 82.92224121 17.30966187 C76.71155571 17.31875365 70.50116767 17.30678315 64.29052734 17.28295898 C57.11426565 17.25574824 49.93871425 17.26456276 42.76246977 17.29209101 C36.59667498 17.31479478 30.4310938 17.31797609 24.26527071 17.30489767 C20.5846216 17.29710997 16.90430615 17.29604235 13.22367859 17.31258011 C9.12004664 17.32973119 5.01763547 17.30594903 0.9140625 17.27807617 C-0.30375412 17.28819733 -1.52157074 17.29831848 -2.77629089 17.30874634 C-11.93670413 17.19329956 -11.93670413 17.19329956 -15.04162598 14.27816772 C-17.19509815 11.00505454 -17.50423104 9.47658572 -16.78320312 5.63110352 C-13.47361006 -1.45831968 -6.79921501 -0.06402414 0 0 Z " fill="#000000" transform="translate(214.783203125,99.368896484375)"/>
<path d="M0 0 C3.41639845 1.9739191 4.72268412 3.18538459 6 6.9375 C6 10.83645423 5.50061936 11.98454724 3 15 C0.09042954 17.4615481 -2.91865496 19.75843453 -6 22 C-3.53067374 24.53987844 -1.09363826 26.92596045 1.6875 29.125 C4.1456504 31.11809492 5.80071671 32.71630506 6.30078125 35.9375 C6.33178961 41.39497188 6.33178961 41.39497188 4.9375 43.9375 C1.85436497 45.62825147 -0.48072051 45.94134534 -4 46 C-9.88145564 43.43354663 -14.3184022 39.32895796 -19 35 C-23.02502705 36.3511075 -25.42264998 38.10139062 -28.4375 41.0625 C-31.1402459 43.52769112 -32.78306003 44.92073347 -36.25 46.1875 C-39.63917076 45.95642018 -41.33058953 45.07620814 -44 43 C-46.34168764 39.48746854 -46.49623677 38.13530644 -46 34 C-43.22973624 29.45676743 -39.33863013 26.92023182 -35 24 C-36.37154686 20.81580579 -37.86169983 19.02887404 -40.5625 16.875 C-43.64735543 14.39941955 -44.8354953 13.23378529 -45.375 9.1875 C-45 6 -45 6 -42.9375 3.125 C-39.20298871 0.42343864 -37.5411155 0.45621096 -33 1 C-30.56341919 2.61096252 -28.66615147 4.04679788 -26.5625 6 C-26.02173828 6.47695313 -25.48097656 6.95390625 -24.92382812 7.4453125 C-23.6021855 8.61490774 -22.29910474 9.80542093 -21 11 C-16.36567692 8.38131833 -12.58171639 5.14873629 -8.59765625 1.64453125 C-5.44162045 -0.35350044 -3.67258853 -0.43649618 0 0 Z " fill="#000000" transform="translate(159,262)"/>
<path d="M0 0 C3.87117244 0.64519541 5.45005852 1.50006885 8 4.5 C8.94663073 11.12641509 8.94663073 11.12641509 6.28515625 14.98828125 C3.96483042 17.53865648 1.58266576 19.6186013 -1.125 21.75 C-4.87692159 24.75452685 -8.51573634 27.81830386 -12.0625 31.0625 C-26.04739684 43.77401166 -26.04739684 43.77401166 -33.0625 45.0625 C-39.13345611 44.19522056 -42.48765788 40.45236893 -47 36.5 C-49.01707019 34.87033126 -51.03785147 33.24524402 -53.0625 31.625 C-57.87441315 27.75117371 -57.87441315 27.75117371 -59 25.5 C-59.57089084 19.33437892 -59.57089084 19.33437892 -57.375 16.125 C-54.43721938 14.11493957 -52.5603504 13.57266021 -49 13.5 C-44.24087275 15.96566626 -40.42537621 19.45699201 -36.40234375 22.953125 C-34.19702621 24.67602548 -34.19702621 24.67602548 -32.0078125 24.515625 C-29.19135302 23.09095678 -27.21989264 21.17818915 -24.9375 19 C-19.48732595 13.90733402 -13.82398157 9.16281391 -8 4.5 C-7.13117188 3.76523437 -6.26234375 3.03046875 -5.3671875 2.2734375 C-3 0.5 -3 0.5 0 0 Z " fill="#000000" transform="translate(167,382.5)"/>
<path d="M0 0 C1.9921875 0.55078125 1.9921875 0.55078125 4.6171875 2.61328125 C6.44361636 6.51519745 6.23845269 8.4454371 4.9921875 12.55078125 C2.8671875 15.05078125 2.8671875 15.05078125 -0.0078125 17.55078125 C-1.11838396 18.66945907 -2.22213464 19.79493448 -3.3203125 20.92578125 C-6.32887811 23.93434686 -9.46389058 26.74079258 -12.6875 29.515625 C-16.1472583 32.55019415 -19.5161637 35.6828278 -22.88354492 38.81933594 C-29.87213935 45.28375711 -29.87213935 45.28375711 -35.7109375 45.11328125 C-40.71741881 43.8872042 -44.29314046 39.93960487 -48.0078125 36.55078125 C-49.02232244 35.65368533 -50.03797761 34.75788312 -51.0546875 33.86328125 C-59.8707064 26.03152716 -59.8707064 26.03152716 -60.3203125 21.17578125 C-60.0078125 17.55078125 -60.0078125 17.55078125 -58.5078125 15.11328125 C-55.75356023 13.39187358 -53.56791725 12.69167601 -50.296875 12.8203125 C-46.11539655 14.15467508 -43.34726693 17.33444958 -40.3046875 20.38671875 C-38.23770682 22.33418014 -36.60264342 23.46761788 -34.0078125 24.55078125 C-32.9559375 23.58978516 -32.9559375 23.58978516 -31.8828125 22.609375 C-21.62574511 13.25816275 -21.62574511 13.25816275 -16.8984375 9.22265625 C-15.57376349 8.05125031 -14.29511526 6.82668086 -13.0546875 5.56640625 C-8.90565922 1.482717 -5.96691128 -0.52649217 0 0 Z " fill="#000000" transform="translate(168.0078125,326.44921875)"/>
<path d="M0 0 C2.875 1.5 2.875 1.5 5 4 C5.84577114 9.32835821 5.84577114 9.32835821 5 12 C2.90625 14.33203125 2.90625 14.33203125 0 17 C-1.12864402 18.07703638 -2.25618508 19.15522935 -3.3828125 20.234375 C-9.9773784 26.44934697 -16.59346392 32.53083929 -23.70703125 38.15234375 C-25.66586 39.73075261 -27.44126449 41.38272721 -29.25 43.125 C-32 45 -32 45 -35.25 45.3125 C-40.83281535 43.35851463 -44.60047667 39.87259629 -49 36 C-50.00675781 35.17242187 -51.01351562 34.34484375 -52.05078125 33.4921875 C-53.04464844 32.64914063 -54.03851563 31.80609375 -55.0625 30.9375 C-55.98160156 30.16277344 -56.90070313 29.38804687 -57.84765625 28.58984375 C-60.53958901 25.35073046 -60.87925659 23.16806256 -61 19 C-59.06373462 15.28882468 -57.679226 14.24817873 -53.75 12.8125 C-48.41571155 13.07921442 -45.90006658 15.56478984 -42 19 C-40.83467802 19.959968 -39.66815783 20.91848488 -38.5 21.875 C-37.675 22.57625 -36.85 23.2775 -36 24 C-33.13275037 22.68532222 -30.95455409 21.24373471 -28.625 19.125 C-24.70557785 15.61970548 -20.74051879 12.17384237 -16.75 8.75 C-16.14752441 8.23066895 -15.54504883 7.71133789 -14.92431641 7.17626953 C-5.62821245 -0.80403035 -5.62821245 -0.80403035 0 0 Z " fill="#000000" transform="translate(170,145)"/>
<path d="M0 0 C2.4375 1.125 2.4375 1.125 4 3 C5.07143765 6.28574213 5.33973524 8.13933739 4.0625 11.375 C-1.12839948 17.98159934 -7.37495709 23.21458699 -13.93359375 28.4140625 C-16.26070549 30.31577179 -18.40421283 32.34210499 -20.53515625 34.4609375 C-21.14149902 35.05624268 -21.7478418 35.65154785 -22.37255859 36.26489258 C-23.55737043 37.43838862 -24.72662076 38.62786805 -25.87744141 39.8347168 C-28.86469279 42.77248718 -30.9000938 44.37950003 -35.18359375 44.5234375 C-38.72486135 44.03773652 -40.23194684 43.80970419 -42.875 41.5625 C-43.52726562 41.01980469 -44.17953125 40.47710937 -44.8515625 39.91796875 C-45.56054688 39.28503906 -46.26953125 38.65210938 -47 38 C-47.85335937 37.25363281 -48.70671875 36.50726563 -49.5859375 35.73828125 C-60.67718447 25.89927184 -60.67718447 25.89927184 -61.875 22.5625 C-62.02583739 19.47033348 -61.46741381 17.71471554 -60 15 C-56.09168591 12.39445728 -54.65785128 12.26065853 -50 13 C-45.21499915 16.12949221 -40.97924142 19.90448205 -37 24 C-33.49172085 22.47920927 -31.04728354 20.4004327 -28.25 17.8125 C-27.37214844 17.008125 -26.49429688 16.20375 -25.58984375 15.375 C-24.73519531 14.59125 -23.88054687 13.8075 -23 13 C-20.96790409 11.19692384 -18.92536206 9.40930353 -16.86328125 7.640625 C-15.61742117 6.54364128 -14.40554965 5.4068619 -13.23046875 4.234375 C-8.79753867 -0.04845587 -6.16665627 -0.90983453 0 0 Z " fill="#000000" transform="translate(170,202)"/>
<path d="M0 0 C1.26473648 -0.00630432 2.52947296 -0.01260864 3.83253479 -0.019104 C5.19947449 -0.01552426 6.56641291 -0.0114223 7.93334961 -0.00683594 C9.34769253 -0.00818472 10.762035 -0.01012703 12.17637634 -0.01263428 C15.13260333 -0.01557455 18.08870904 -0.0113227 21.04492188 -0.00195312 C24.82661859 0.00945133 28.60803169 0.00286886 32.38971806 -0.00909805 C35.30743025 -0.01633743 38.22507559 -0.01401938 41.14278984 -0.00884247 C42.5369921 -0.00751226 43.93120051 -0.00913159 45.32539558 -0.01380157 C47.2755229 -0.0189019 49.22567162 -0.00974498 51.17578125 0 C52.83741051 0.00238678 52.83741051 0.00238678 54.53260803 0.00482178 C58.73650028 0.36182584 61.52723987 1.26283557 64.52319336 4.25878906 C64.82397461 6.31738281 64.82397461 6.31738281 64.83569336 8.69628906 C64.85245117 9.47875 64.86920898 10.26121094 64.88647461 11.06738281 C64.44037778 13.75835402 63.62867428 14.58362541 61.52319336 16.25878906 C58.67345146 17.68366001 56.22748005 17.41769308 53.04150391 17.45166016 C52.37624695 17.45983765 51.71098999 17.46801514 51.02557373 17.47644043 C48.82036235 17.501286 46.61521532 17.51780848 44.40991211 17.53222656 C43.65674021 17.53755024 42.90356831 17.54287392 42.12757301 17.54835892 C38.14072309 17.57508739 34.15390444 17.59446285 30.16699219 17.60888672 C26.05085157 17.62553071 21.93551224 17.67030598 17.81967449 17.72125816 C14.65319408 17.75493027 11.48690385 17.766464 8.320261 17.7721138 C6.803189 17.77882691 5.28612953 17.79405082 3.7692318 17.81800461 C1.64318122 17.84966101 -0.48070879 17.84969405 -2.60693359 17.84228516 C-4.41989677 17.85441544 -4.41989677 17.85441544 -6.26948547 17.86679077 C-10.40947013 17.081987 -11.89731455 15.52307268 -14.47680664 12.25878906 C-14.92261995 9.13809593 -14.68931939 7.02383496 -13.85180664 4.00878906 C-10.61246405 -0.1140106 -4.85884707 0.00697428 0 0 Z " fill="#000000" transform="translate(212.476806640625,396.7412109375)"/>
<path d="M0 0 C1.000952 -0.01073296 1.000952 -0.01073296 2.02212524 -0.02168274 C4.21654804 -0.03852132 6.40891381 -0.01920183 8.60327148 0.00219727 C10.13354155 0.0013682 11.66381153 -0.00109261 13.19407654 -0.00511169 C16.39609688 -0.0079662 19.59741637 0.006698 22.79931641 0.03417969 C26.90092502 0.06829187 31.00128319 0.06223203 35.102952 0.04351711 C38.26090396 0.03294341 41.41856545 0.04188759 44.5764904 0.05690193 C46.08873571 0.06207962 47.60101139 0.06160693 49.11325264 0.05535698 C51.22720605 0.04989866 53.33937506 0.07029364 55.453125 0.09765625 C56.65493912 0.10385483 57.85675323 0.11005341 59.09498596 0.11643982 C62.76937233 0.7330514 63.92933434 1.70271075 66.16186523 4.63110352 C67.29878754 8.19346008 67.45920458 9.904274 66.03686523 13.38110352 C63.81924154 16.04225195 62.44216121 16.59567455 59.16186523 17.63110352 C56.20924377 17.8850708 56.20924377 17.8850708 52.90625 17.88989258 C51.66468643 17.8961969 50.42312286 17.90250122 49.14393616 17.90899658 C47.79704648 17.90541615 46.45015811 17.90131403 45.10327148 17.89672852 C43.71231519 17.89807707 42.32135935 17.90001918 40.93040466 17.90252686 C38.01947529 17.90547017 35.10866894 17.90120676 32.19775391 17.8918457 C28.47778029 17.88046218 24.75809565 17.88700853 21.03813267 17.89899063 C18.16670073 17.90623981 15.29533656 17.90390713 12.42390251 17.89873505 C11.05285546 17.89740644 9.68180213 17.89901845 8.31076241 17.90369415 C6.3894679 17.90880832 4.46815167 17.89962359 2.546875 17.88989258 C1.45609146 17.88830139 0.36530792 17.88671021 -0.75852966 17.8850708 C-4.08193282 17.6109981 -6.75405199 16.88591521 -9.83813477 15.63110352 C-11.65517756 13.31850359 -11.84142736 11.60899608 -12.27563477 8.69360352 C-11.28474712 1.75739002 -6.35950506 0.00508588 0 0 Z " fill="#000000" transform="translate(209.838134765625,218.368896484375)"/>
<path d="M0 0 C0.6671553 -0.0071553 1.33431061 -0.01431061 2.02168274 -0.02168274 C4.2215373 -0.03855766 6.41935013 -0.01917833 8.61914062 0.00219727 C10.15083993 0.00136844 11.68253915 -0.00109148 13.2142334 -0.00511169 C16.42222918 -0.00796882 19.62952643 0.00672187 22.83740234 0.03417969 C26.94688634 0.06826345 31.05512143 0.0622441 35.16466522 0.04351711 C38.32690822 0.03294206 41.48886123 0.0418893 44.65107727 0.05690193 C46.16611367 0.06208057 47.6811804 0.06160577 49.19621277 0.05535698 C51.31506322 0.04989819 53.43213373 0.07029627 55.55078125 0.09765625 C56.75561157 0.10385483 57.96044189 0.11005341 59.20178223 0.11643982 C62.86067053 0.72910635 64.03867687 1.73048968 66.27539062 4.63110352 C66.80664062 6.63110352 66.80664062 6.63110352 66.77539062 8.63110352 C66.79085937 9.62110352 66.79085937 9.62110352 66.80664062 10.63110352 C66.01999164 13.59260558 64.6570452 14.72710435 62.27539062 16.63110352 C59.20178223 17.14576721 59.20178223 17.14576721 55.55078125 17.16455078 C54.88362595 17.17316635 54.21647064 17.18178192 53.52909851 17.19065857 C51.32954831 17.21331333 49.13127262 17.2065822 46.93164062 17.19750977 C45.39993918 17.20274537 43.86824098 17.20902162 42.33654785 17.21629333 C39.12867037 17.22669632 35.92123652 17.22213758 32.71337891 17.20751953 C28.60377358 17.19032453 24.49556545 17.21383429 20.38611603 17.24900913 C17.22388456 17.27097549 14.0619879 17.26954381 10.89970398 17.26124382 C9.38464321 17.26042399 7.86955795 17.26729354 6.35456848 17.28201485 C4.23550648 17.29945066 2.11896099 17.28493309 0 17.26220703 C-1.20483032 17.26124527 -2.40966064 17.26028351 -3.65100098 17.2592926 C-6.72460938 16.63110352 -6.72460938 16.63110352 -9.11364746 14.27915955 C-11.09780101 11.01766111 -11.35081021 9.38830852 -10.72460938 5.63110352 C-7.72406542 0.69888975 -5.67944505 0.00453364 0 0 Z " fill="#000000" transform="translate(208.724609375,337.368896484375)"/>
<path d="M0 0 C0.6671553 -0.0071553 1.33431061 -0.01431061 2.02168274 -0.02168274 C4.2215373 -0.03855766 6.41935013 -0.01917833 8.61914062 0.00219727 C10.15083993 0.00136844 11.68253915 -0.00109148 13.2142334 -0.00511169 C16.42222918 -0.00796882 19.62952643 0.00672187 22.83740234 0.03417969 C26.94688634 0.06826345 31.05512143 0.0622441 35.16466522 0.04351711 C38.32690822 0.03294206 41.48886123 0.0418893 44.65107727 0.05690193 C46.16611367 0.06208057 47.6811804 0.06160577 49.19621277 0.05535698 C51.31506322 0.04989819 53.43213373 0.07029627 55.55078125 0.09765625 C56.75561157 0.10385483 57.96044189 0.11005341 59.20178223 0.11643982 C62.86067053 0.72910635 64.03867687 1.73048968 66.27539062 4.63110352 C66.80664062 6.63110352 66.80664062 6.63110352 66.77539062 8.63110352 C66.79085937 9.62110352 66.79085937 9.62110352 66.80664062 10.63110352 C66.01999164 13.59260558 64.6570452 14.72710435 62.27539062 16.63110352 C59.20178223 17.14576721 59.20178223 17.14576721 55.55078125 17.16455078 C54.88362595 17.17316635 54.21647064 17.18178192 53.52909851 17.19065857 C51.32954831 17.21331333 49.13127262 17.2065822 46.93164062 17.19750977 C45.39993918 17.20274537 43.86824098 17.20902162 42.33654785 17.21629333 C39.12867037 17.22669632 35.92123652 17.22213758 32.71337891 17.20751953 C28.60377358 17.19032453 24.49556545 17.21383429 20.38611603 17.24900913 C17.22388456 17.27097549 14.0619879 17.26954381 10.89970398 17.26124382 C9.38464321 17.26042399 7.86955795 17.26729354 6.35456848 17.28201485 C4.23550648 17.29945066 2.11896099 17.28493309 0 17.26220703 C-1.20483032 17.26124527 -2.40966064 17.26028351 -3.65100098 17.2592926 C-6.72460938 16.63110352 -6.72460938 16.63110352 -9.11364746 14.27915955 C-11.09780101 11.01766111 -11.35081021 9.38830852 -10.72460938 5.63110352 C-7.72406542 0.69888975 -5.67944505 0.00453364 0 0 Z " fill="#000000" transform="translate(208.724609375,278.368896484375)"/>
</svg>
