<?xml version="1.0" encoding="UTF-8"?>
<!-- The Best Svg Icon site in the world: iconSvg.co, Visit us! https://iconsvg.co -->
<svg width="800px" height="800px" version="1.1" viewBox="144 144 512 512" xmlns="http://www.w3.org/2000/svg">
 <defs>
  <clipPath id="a">
   <path d="m164 148.09h473v503.81h-473z"/>
  </clipPath>
 </defs>
 <g clip-path="url(#a)">
  <path d="m599.4 441.88-53.449-52.98h-0.003907c-5.1289-5.1016-11.598-8.6523-18.656-10.234-10.977-2.4609-22.469 0.46484-30.938 7.875l-238.05-229.95c-5.9062-5.6758-13.855-8.7383-22.047-8.4844-8.1914 0.25-15.938 3.793-21.484 9.8242l-34.32 36.684c-10.727 11.809-16.383 27.355-15.746 43.297 0.33203 6.0273 5.3008 10.75 11.336 10.785h17.004l-4.4102 18.184c-0.80859 3.4805 0.03125 7.1406 2.2852 9.918 2.3594 2.6758 5.8008 4.1523 9.3672 4.0156l15.742-0.94531-2.5977 16.297c-0.84766 6.1133 3.3516 11.781 9.4492 12.75l15.273 2.2812-3.4648 11.812c-1.1172 3.3086-0.62109 6.9492 1.3359 9.8398 1.9727 2.8945 5.1641 4.7227 8.6602 4.957l18.344 1.1016-5.1953 18.734-0.003906 0.003907c-0.85938 3.1641-0.3125 6.5508 1.4961 9.2891 1.8125 2.6719 4.6758 4.4492 7.875 4.8789l15.742 2.0469-4.9609 13.934c-1.2578 3.4727-0.69922 7.3438 1.4961 10.312 2.1562 2.9766 5.6133 4.7383 9.2891 4.7227h19.363l-3.7773 15.035c-0.80469 3.2617-0.14453 6.7148 1.8125 9.4453 2.0039 2.6875 5.082 4.3555 8.4219 4.5664l17.477 1.1016-4.9609 17.871h0.003907c-0.96094 3.4727-0.20312 7.1914 2.0391 10.012 2.2422 2.8164 5.6953 4.3906 9.293 4.2383l16.766-0.70703-4.25 16.453 0.003906-0.003906c-0.82812 3.2383-0.16406 6.6719 1.8086 9.3672 2.1289 2.7578 5.4102 4.3867 8.8945 4.4102h17.238l-2.5156 19.602c-0.43359 3.2188 0.55078 6.4727 2.6914 8.9141 2.1406 2.4453 5.2383 3.8438 8.4883 3.8359h20.309c-1.6719 5.5938-2.7539 11.344-3.2266 17.164-1.5195 19.438 6.457 38.414 21.41 50.93l64.078 54.238c2.0156 1.7305 4.5859 2.6797 7.2422 2.6758h1.5742c3.207-0.46875 6.0664-2.2695 7.8711-4.957l70.848-106.43h0.003906c2.0586-3.4062 5.5703-5.6719 9.5234-6.1406 8.4219-0.55078 15.742 7.8711 20.387 15.273v-0.003906c1.8711 3.0508 5.0938 5.0156 8.6602 5.2773 3.5742 0.23438 7.0586-1.1875 9.4453-3.8594 7.3359-8.5742 11.008-19.68 10.234-30.938-2.0586-29.73-15.074-57.641-36.523-78.324zm-182 62.504h-17.395l2.5977-19.363v-0.003906c0.42969-3.1992-0.51562-6.4297-2.5977-8.8945-1.9922-2.3047-4.832-3.6953-7.875-3.8555h-15.742l4.4883-17.164c0.86719-3.457 0.082031-7.1211-2.1289-9.918-2.2344-2.8203-5.6875-4.4023-9.2891-4.25l-16.531 0.70703 4.4883-16.215c0.92578-3.3242 0.28906-6.8867-1.7305-9.6836-1.9141-2.8047-5.0312-4.5508-8.4219-4.7227l-18.109-1.1016 4.0156-15.742v-0.003906c1.0352-3.4023 0.35938-7.0977-1.8086-9.918-2.2148-2.6875-5.4922-4.2695-8.9766-4.3281h-17.789l4.1719-11.414c1.168-3.2148 0.78906-6.7852-1.0234-9.6836-1.7344-2.8164-4.6094-4.7383-7.8711-5.2734l-16.926-2.0469 5.4336-19.68c0.87891-3.2852 0.23828-6.7891-1.7422-9.5508-1.9844-2.7578-5.1016-4.4844-8.4922-4.6992l-17.633-1.0234 3.2266-11.02c1.0039-3.1641 0.58203-6.6055-1.1562-9.4336-1.7383-2.8281-4.6211-4.7578-7.8984-5.2891l-17.398-2.5977 2.6758-19.129h0.003907c0.45312-3.3516-0.61719-6.7344-2.918-9.2188-2.3008-2.4805-5.5898-3.8086-8.9688-3.6133l-13.855 0.78906 4.25-17.555c0.86719-3.4062 0.078125-7.0234-2.125-9.7617-2.1367-2.7617-5.4844-4.3164-8.9727-4.1719h-18.973c1.5625-5.875 4.5352-11.277 8.6602-15.746l33.93-36.684h-0.003906c1.4492-1.5586 3.4648-2.4688 5.5898-2.5156 2.125-0.14453 4.1992 0.66406 5.668 2.2031l240.57 231.99-56.602 86.594c-3.1914 4.1484-6.1367 8.4883-8.8164 12.988zm167.59 7.3984h0.003907c-10.961 0.94531-20.855 6.9414-26.766 16.215l-63.766 95.805-54.395-46.051c-9.2578-7.7539-14.281-19.438-13.539-31.488 1.7305-15.359 7.9453-29.871 17.871-41.723l64.395-98.398h-0.003907c2.3477-3.4688 6.2852-5.5117 10.469-5.4336 0.99609-0.11328 2-0.11328 2.9922 0 2.9727 0.60547 5.707 2.0508 7.875 4.1719l53.531 52.98h-0.003906c17.066 16.965 27.344 39.59 28.891 63.605-7.5273-6.7656-17.445-10.254-27.551-9.6836z"/>
 </g>
 <path d="m529.34 438.41c-2.4453-2.4336-5.8633-3.6211-9.2891-3.2266-3.4531 0.35547-6.5391 2.3086-8.3438 5.2734l-56.602 92.18c-2.6055 4.3008-2.0938 9.7969 1.2617 13.543l31.723 34.871c2.1328 2.3555 5.1641 3.6992 8.3438 3.6992h0.94531c3.4688-0.30859 6.6055-2.1953 8.5039-5.1172l59.434-92.336c2.8789-4.4531 2.2891-10.305-1.418-14.094zm-34.48 116.74-16.137-17.949 44.949-72.738 18.027 18.266z"/>
 <path d="m243.98 190.52c-4.9531-0.28516-9.8086 1.4492-13.461 4.8008-3.707 3.3711-5.9102 8.082-6.1172 13.086-0.21094 5 1.5938 9.8789 5.0039 13.543 3.4141 3.668 8.1523 5.8125 13.156 5.9648h0.86719c6.4141-0.26172 12.25-3.7852 15.465-9.3438 3.2109-5.5586 3.3555-12.375 0.37891-18.066-2.9766-5.6875-8.6602-9.457-15.059-9.9844zm1.8125 21.57h-0.003906c-0.8125 0.625-1.8086 0.95703-2.832 0.94531-1.0312-0.03125-2-0.48828-2.6797-1.2617-0.66797-0.75391-1.0078-1.7461-0.94141-2.7539 0-1.0117 0.46094-1.9727 1.2578-2.5977 0.69531-0.67578 1.6289-1.043 2.5977-1.0234 1.0312 0.019531 2.0039 0.47656 2.6758 1.2578 1.4102 1.5391 1.4102 3.8984 0 5.4336z"/>
</svg>