<?xml version="1.0" encoding="UTF-8"?>
<svg xmlns="http://www.w3.org/2000/svg" xmlns:xlink="http://www.w3.org/1999/xlink" width="2616" height="3000" viewBox="0 0 2616 3000">
<path fill-rule="nonzero" fill="rgb(0%, 0%, 0%)" fill-opacity="1" d="M 169.695312 174.75 C 404.941406 44.738281 533.140625 -8.019531 616.285156 0.960938 C 717.808594 11.941406 746.429688 90.058594 783.835938 219.171875 C 797.8125 267.421875 818.035156 320.710938 838.605469 374.929688 C 913.183594 571.511719 992.042969 779.371094 848.1875 926.320312 C 741.105469 1035.71875 726.449219 1206.640625 770.976562 1380.199219 C 813.632812 1546.519531 911.285156 1715.460938 1034.039062 1835.589844 C 1162.050781 1960.898438 1317.398438 2033.65625 1465.710938 1995.609375 C 1664.75 1944.558594 1805.371094 2116.828125 1938.371094 2279.777344 C 1974.660156 2324.246094 2010.351562 2367.96875 2045.75 2404.832031 C 2138.890625 2501.816406 2192.269531 2565.667969 2151.050781 2658.980469 C 2117.21875 2735.585938 2007.371094 2820.277344 1777.070312 2959.058594 C 1539.101562 3102.464844 1190.21875 2853.820312 864.386719 2450.753906 C 723.75 2276.78125 586.214844 2073.371094 463.636719 1861.058594 C 341.324219 1649.191406 233.972656 1428.371094 153.429688 1219.070312 C -32.660156 735.488281 -73.496094 309.140625 169.695312 174.75 "/>
<path fill-rule="nonzero" fill="rgb(0%, 0%, 0%)" fill-opacity="1" d="M 1744.449219 162.160156 C 1719.46875 155.488281 1693.800781 170.328125 1687.128906 195.308594 C 1680.449219 220.300781 1695.300781 245.960938 1720.28125 252.640625 C 1856.558594 289.148438 1985.738281 352.148438 2099.371094 439.339844 C 2208.691406 523.238281 2303.75 629.660156 2377.03125 756.570312 C 2450.289062 883.46875 2494.941406 1018.980469 2512.910156 1155.570312 C 2531.589844 1297.46875 2521.53125 1440.839844 2484.980469 1577.238281 C 2478.308594 1602.230469 2493.148438 1627.898438 2518.128906 1634.570312 C 2543.121094 1641.238281 2568.789062 1626.398438 2575.460938 1601.421875 C 2615.058594 1453.609375 2625.921875 1297.921875 2605.589844 1143.480469 C 2586.019531 994.789062 2537.53125 847.460938 2457.980469 709.679688 C 2378.429688 571.890625 2275.089844 456.261719 2156.148438 364.980469 C 2032.660156 270.230469 1892.390625 201.800781 1744.449219 162.160156 "/>
<path fill-rule="nonzero" fill="rgb(0%, 0%, 0%)" fill-opacity="1" d="M 1652.671875 504.75 C 1627.679688 498.070312 1602.019531 512.921875 1595.339844 537.898438 C 1588.671875 562.878906 1603.511719 588.550781 1628.488281 595.21875 C 1720.109375 619.761719 1806.929688 662.109375 1883.289062 720.699219 C 1956.878906 777.160156 2020.761719 848.628906 2069.878906 933.710938 C 2119.101562 1018.980469 2149.121094 1110.101562 2161.210938 1202.019531 C 2173.761719 1297.339844 2166.988281 1393.71875 2142.398438 1485.449219 C 2135.730469 1510.441406 2150.570312 1536.101562 2175.558594 1542.78125 C 2200.539062 1549.449219 2226.210938 1534.609375 2232.878906 1509.628906 C 2260.519531 1406.480469 2268.089844 1297.78125 2253.890625 1189.929688 C 2240.238281 1086.230469 2206.371094 983.410156 2150.828125 887.191406 C 2095.171875 790.78125 2023.019531 709.988281 1940.070312 646.339844 C 1853.859375 580.191406 1755.921875 532.410156 1652.671875 504.75 "/>
<path fill-rule="nonzero" fill="rgb(0%, 0%, 0%)" fill-opacity="1" d="M 1539.171875 805.078125 C 1514.179688 798.398438 1488.519531 813.25 1481.839844 838.230469 C 1475.171875 863.210938 1490.011719 888.878906 1514.988281 895.550781 C 1570.378906 910.398438 1622.871094 935.988281 1669.019531 971.398438 C 1760.71875 1041.78125 1821.871094 1147.570312 1836.960938 1262.238281 C 1844.53125 1319.800781 1840.429688 1378.070312 1825.558594 1433.570312 C 1818.878906 1458.558594 1833.71875 1484.230469 1858.710938 1490.898438 C 1883.691406 1497.570312 1909.359375 1482.730469 1916.03125 1457.75 C 1933.960938 1390.839844 1938.859375 1320.25 1929.640625 1250.160156 C 1911.261719 1110.5 1837.539062 982.789062 1725.800781 897.039062 C 1669.789062 854.070312 1606.199219 823.039062 1539.171875 805.078125 "/>
</svg>
